<svg width="108" height="55" viewBox="0 0 108 55" fill="none" xmlns="http://www.w3.org/2000/svg">
<g clip-path="url(#clip0_8_7413)">
<path d="M30.7904 34.8541C30.3995 35.2916 30.0487 35.6779 29.7555 35.9904C27.7128 38.0545 25.4669 39.9122 23.0511 41.5357C20.6006 43.2179 17.9586 44.61 15.1796 45.6833C12.7713 46.659 10.17 47.0806 7.57247 46.9163C6.42181 46.8269 5.30301 46.4995 4.28868 45.9553C3.27434 45.411 2.38713 44.6622 1.68461 43.7573C0.641572 42.4395 0.0513652 40.8272 -0.00010546 39.1551C-0.0137445 37.4743 0.337207 35.8101 1.02912 34.2746C2.13946 31.8275 3.6165 29.5597 5.41052 27.5475C7.03839 25.6662 8.82329 23.9234 10.7464 22.3374C12.4714 20.9511 13.6213 20.1386 14.1963 19.9113C14.0411 19.7522 13.8628 19.5875 13.6558 19.4113C12.6051 18.5066 11.686 17.4626 10.9246 16.3092C10.5291 15.6822 10.2859 14.9733 10.2141 14.2379C10.1423 13.5026 10.2438 12.7607 10.5107 12.0706C11.1514 10.5397 12.0846 9.14503 13.2591 7.9628C14.4207 6.73172 15.6864 5.60076 17.0425 4.58222C18.3132 3.63906 19.2332 3.0084 19.8139 2.6675C22.7885 1.00466 25.1517 0.237641 26.9035 0.366425C27.6774 0.391793 28.4369 0.580316 29.1311 0.91936C29.8252 1.2584 30.4381 1.74014 30.9284 2.33228C31.5904 3.09244 32.0437 4.00779 32.2451 4.99067C32.4464 5.97356 32.389 6.99106 32.0784 7.94576C31.5034 10.0877 29.8762 12.1615 27.214 14.1388C26.547 14.5308 25.7248 14.4399 24.7703 13.866C23.8834 13.3858 23.1715 12.6425 22.7349 11.7411C22.3516 10.8889 22.6697 10.2279 23.6894 9.75821C24.4707 9.40543 25.2063 8.96095 25.8801 8.43438C26.6211 7.90976 27.2683 7.26645 27.7948 6.53102C28.2605 5.86627 28.3353 5.31515 27.996 4.88903C27.674 4.65608 26.846 4.88903 25.4201 5.57651C23.7907 6.41271 22.2314 7.37596 20.7569 8.45711C19.1441 9.58724 17.6631 10.8906 16.341 12.3434C15.1163 13.7183 14.5068 14.9626 14.5241 16.0762C14.5416 16.3629 14.6507 16.6366 14.8357 16.8581C15.0206 17.0797 15.2718 17.2376 15.5533 17.3091C16.1506 17.4691 16.7742 17.5096 17.3875 17.4284C17.8274 17.3873 18.2625 17.3055 18.687 17.1841C19.0496 17.1119 19.424 17.1215 19.7823 17.212C20.1407 17.3024 20.4738 17.4716 20.7569 17.7068C21.4487 18.2159 22.0181 18.8697 22.4244 19.6216C22.8021 20.2565 23.0209 20.9714 23.0626 21.7067C23.0796 21.8364 23.0688 21.9681 23.0309 22.0933C22.993 22.2185 22.9288 22.3345 22.8426 22.4336C22.7564 22.5328 22.65 22.6129 22.5304 22.6687C22.4108 22.7246 22.2806 22.7549 22.1484 22.7578C21.1824 22.8753 19.7411 23.5703 17.8245 24.843C15.7489 26.2688 13.7881 27.8511 11.9596 29.5758C10.0811 31.2908 8.40495 33.2101 6.96299 35.2973C5.64052 37.2404 5.08278 38.9278 5.27828 40.4108C5.69227 42.0509 7.05115 42.691 9.35493 42.3312C11.6587 41.9713 14.3669 40.9126 17.4795 39.1551C20.7037 37.3561 23.7275 35.227 26.501 32.803C28.801 30.7917 32.5614 26.4623 34.7751 23.4453C35.2542 22.4015 35.8156 21.3966 36.4541 20.4397C36.6001 20.2908 36.7835 20.1829 36.9855 20.127C37.1876 20.071 37.401 20.0692 37.604 20.1216C38.1718 20.2032 38.7173 20.3964 39.2083 20.6897C39.6954 20.9581 40.1376 21.2992 40.5192 21.7011C40.8412 22.0647 40.9332 22.3829 40.7722 22.6556C40.2547 23.3904 39.5839 24.4926 38.7598 25.9623C37.8832 27.5733 37.1335 29.2487 36.5173 30.9735C37.2073 29.8372 38.1848 28.3713 39.3923 26.5248C40.5997 24.6782 41.8762 22.8942 43.1354 21.2011C44.0101 19.9562 44.9974 18.7923 46.0851 17.7239C46.3399 17.5657 46.6288 17.4689 46.9284 17.4412C47.228 17.4136 47.53 17.4559 47.8101 17.5648C48.5146 17.766 49.1662 18.117 49.719 18.5932C49.9619 18.7697 50.1585 19.001 50.2925 19.2679C50.4265 19.5347 50.4941 19.8294 50.4895 20.1272C50.4282 20.4175 50.3436 20.7025 50.2365 20.9795C50.087 21.4113 49.9145 21.9056 49.719 22.4567C49.4258 23.2749 49.144 24.0362 48.9198 24.7294C48.7487 25.1205 48.6457 25.5373 48.615 25.9623C48.7358 25.8146 48.9715 25.5134 49.305 25.0589C50.1943 23.8089 51.4018 22.2446 52.9274 20.3659C54.0904 18.8746 55.4432 17.5379 56.9524 16.3887C58.0218 15.7467 59.0511 15.9739 60.04 17.0989C60.5841 17.5834 61.0156 18.1784 61.305 18.8432C61.469 19.5306 61.3556 20.254 60.9888 20.8602C60.4329 21.9965 59.7104 23.6536 58.8211 25.8316C57.9318 28.0096 57.144 30.1421 56.4579 32.2292C55.8813 33.7155 55.4949 35.2673 55.3079 36.8484C56.891 35.9166 58.4358 34.3143 59.9423 32.0417C60.7971 30.7463 61.5868 29.4887 62.3112 28.2691C63.1253 25.7743 64.1905 23.3665 65.4909 21.0818C65.8359 20.6727 66.4281 20.5136 67.2676 20.6727C68.0933 20.7915 68.8814 21.0925 69.5733 21.5533C70.2403 22.0079 70.453 22.5135 70.2116 23.076C68.8177 25.6771 67.5999 28.3666 66.5661 31.1269C65.9107 33.0814 65.6864 34.3371 65.9107 34.8882C66.2441 35.6457 67.2025 35.0776 68.7856 33.1837C71.0608 30.2461 73.1556 27.1763 75.0587 23.9908C76.3083 20.6719 77.7403 17.4228 79.3481 14.2581C81.8282 9.41731 84.0975 6.09164 86.1559 4.28109C86.4039 4.09066 86.7048 3.97965 87.0184 3.96291C87.6049 3.94019 88.477 4.30381 89.6346 5.05379L89.9911 5.22424C91.0778 5.89468 91.6356 6.5083 91.6528 7.07646C91.6589 7.20484 91.6345 7.33284 91.5816 7.45024C91.5287 7.56764 91.4487 7.67118 91.3481 7.75258C88.9774 9.96977 86.9576 12.5267 85.3567 15.3376C81.6325 21.6564 78.9866 28.538 77.5254 35.7063C77.1028 37.7333 76.9233 39.8025 76.9907 41.8709C77.0817 42.8426 77.2295 43.8082 77.4334 44.7629C77.5313 45.3117 77.8251 45.8075 78.2614 46.1606C79.4109 44.7107 80.6802 43.3576 82.0563 42.1152C84.0841 40.2517 86.0218 38.5775 87.8694 37.0927C90.0544 35.3276 91.3634 34.1306 91.7966 33.5019C92.2163 32.661 92.6706 31.5701 93.188 30.2065C93.7055 28.8429 94.1195 27.7179 94.4358 26.8373C93.1481 28.8407 91.7023 30.7405 90.1119 32.5189C88.7604 34.1013 87.2153 35.5117 85.512 36.7177C85.1545 36.8841 84.7671 36.9788 84.3724 36.9963C83.9776 37.0139 83.5832 36.9539 83.212 36.8199C82.2834 36.5713 81.428 36.1078 80.7166 35.4677C80.3964 35.2298 80.1432 34.9148 79.9812 34.5528C79.8191 34.1907 79.7536 33.7937 79.7908 33.3996C80.3247 30.9518 81.1108 28.5644 82.1368 26.2748C83.1611 23.8332 84.5151 21.5397 86.1617 19.4568C86.5584 19.0875 87.1737 19.0193 88.0189 19.2352C88.8103 19.4476 89.542 19.8364 90.1579 20.3715C90.7328 20.8943 90.8363 21.417 90.4396 21.9454C89.7908 22.7326 89.2136 23.5749 88.7146 24.4623C88.0592 25.5646 87.4516 26.7009 86.8919 27.8713C86.414 28.8347 86.0141 29.8341 85.696 30.8599C85.4717 31.661 85.5292 32.0417 85.8857 31.9962C86.6677 31.7065 87.9039 30.4054 89.6116 28.11C91.3193 25.8146 92.9753 23.3999 94.614 20.8715C96.2527 18.3432 97.3509 16.5989 97.9259 15.6387C98.2652 15.1899 98.8287 15.0706 99.6509 15.2183C100.451 15.3789 101.208 15.7063 101.87 16.1785C102.543 16.6614 102.854 17.15 102.813 17.633C102.583 18.8545 102.238 20.292 101.721 21.951C101.203 23.6101 100.738 25.201 100.26 26.718C99.9211 27.7861 99.6509 28.7009 99.4267 29.4395C100.835 28.4679 102.043 27.6497 103.061 26.9964C104.078 26.343 105.09 25.7123 106.125 25.1328C106.631 24.8885 106.988 24.9794 107.154 25.3941C107.338 25.9089 107.317 26.4732 107.097 26.9736C106.854 27.6646 106.395 28.2615 105.786 28.6781C102.979 30.3071 100.315 32.1658 97.8224 34.2348C97.3058 34.6402 96.8873 35.1546 96.5977 35.7404C95.5781 37.8919 94.3188 40.2365 92.82 42.7743C91.3886 45.2111 89.7436 47.5191 87.9039 49.6719C86.1253 51.7324 84.3352 53.1396 82.5335 53.8933C81.5649 54.1044 80.5526 53.9884 79.6586 53.5638C78.5166 53.1495 77.5433 52.3772 76.8872 51.365C76.2278 50.3423 76.3218 49.0999 77.1689 47.6378L77.2896 47.456H76.8872C76.1282 47.3935 75.1622 46.8878 73.949 45.9617C72.6388 44.8333 71.755 43.2989 71.442 41.6096C71.3588 41.1841 71.3088 40.7529 71.2925 40.3198C71.2408 37.6334 71.5856 34.9538 72.316 32.3655C71.5053 33.5644 70.66 34.7121 69.7688 35.8143C68.3888 37.5188 67.1296 38.6551 65.9969 39.2233C65.2452 39.4968 64.4271 39.5385 63.651 39.3426C62.7966 39.1701 62.0033 38.7782 61.351 38.2063C60.8779 37.8149 60.5585 37.2721 60.4483 36.6722C59.5372 37.9308 58.3941 39.0083 57.0788 39.8483C56.3088 40.177 55.4528 40.2546 54.6352 40.0699C53.7297 39.9243 52.861 39.6079 52.0765 39.1381C51.4433 38.82 50.9518 38.2817 50.6965 37.6267C50.5207 36.2743 50.6204 34.9009 50.9897 33.5871C51.3988 31.8136 51.9036 30.0631 52.502 28.3429C53.1229 26.5759 53.6519 25.1782 54.1349 24.1101C52.3278 25.9201 50.7451 27.9361 49.42 30.1156C47.7894 32.7165 46.4403 35.4797 45.3951 38.3597C45.2341 38.6494 44.8546 38.7801 44.2451 38.7403C43.6326 38.689 43.0413 38.4943 42.5202 38.1722C42.253 38.0281 42.026 37.8209 41.8595 37.5691C41.693 37.3173 41.592 37.0287 41.5657 36.729C41.628 35.579 41.8013 34.4375 42.0832 33.32C42.4397 31.7576 42.8134 30.2349 43.2332 28.7747C43.6529 27.3145 43.9232 26.36 44.0784 25.9339C42.444 27.8927 40.9784 29.9833 39.697 32.1837C37.7804 35.2745 36.0209 38.3351 34.4186 41.3653C34.1656 41.78 33.6711 41.9334 32.9467 41.8709C32.2255 41.79 31.5288 41.5637 30.8997 41.2062C30.2442 40.8028 29.8992 40.388 29.8992 39.9392C30.0594 38.2133 30.3613 36.5032 30.8019 34.8257L30.7904 34.8541ZM79.9576 50.4218C81.4436 49.2618 82.7937 47.9411 83.9825 46.4844C85.3114 44.9277 86.513 43.2691 87.5762 41.5244C86.0429 42.9561 84.4406 44.5659 82.7693 46.3538C81.098 48.1416 80.1531 49.4976 79.9346 50.4218H79.9576ZM70.6888 18.6045C70.5247 18.8157 70.3066 18.9796 70.0569 19.0795C69.8072 19.1794 69.5351 19.2116 69.2686 19.1727C68.6606 19.1359 68.0698 18.9588 67.5436 18.6557C67.0031 18.3546 66.7501 18.0023 66.7731 17.5932C66.9828 16.4422 67.3044 15.3139 67.7334 14.224C68.0363 13.4135 68.3897 12.6222 68.7913 11.8547C69.1651 11.3832 69.7861 11.207 70.66 11.2866C71.4846 11.3658 72.2756 11.6491 72.96 12.1104C73.6327 12.5593 73.834 13.0649 73.5695 13.6331C73.4142 13.9229 73.2015 14.2979 72.9485 14.7694C72.5978 15.4228 72.2068 16.0933 71.7985 16.7921C71.3903 17.4909 71.028 18.0989 70.7118 18.5875L70.6888 18.6045Z" fill="#FBFBFB"/>
</g>
<defs>
<clipPath id="clip0_8_7413">
<rect width="107.281" height="53.6405" fill="white" transform="translate(0 0.366455)"/>
</clipPath>
</defs>
</svg>
