<?xml version="1.0" encoding="utf-8"?>
<!-- Generator: Adobe Illustrator 24.3.0, SVG Export Plug-In . SVG Version: 6.00 Build 0)  -->
<svg version="1.1" id="Слой_1" xmlns="http://www.w3.org/2000/svg" xmlns:xlink="http://www.w3.org/1999/xlink" x="0px" y="0px"
	 viewBox="0 0 1080 1080" style="enable-background:new 0 0 1080 1080;" xml:space="preserve">
<style type="text/css">
	.st0{fill:#FBF8E7;}
</style>
<g>
	<g>
		<path class="st0" d="M961,475.2c-63.2-71.5-141.8-121.6-227.2-161.9c-9.3-4.4-18.6-8.8-29-13.6c17-16.7,22.2-35.4,14.7-56.5
			c-7.7-21.7-24.5-32.2-49.1-34.9c8.3-10.2,15.3-18.8,22.4-27.3c24.4-29.8,27.7-68.8,8.5-101.8C682.4,46.6,648,30,611.8,36.6
			c-8.7,1.6-17.1,4.9-26,7.6c-11.1-23.1-30.6-34.8-54-41.3h-25.2c-25.1,6.7-45.3,19.4-56.6,44c-1,2.1-5.4,3.6-8.3,3.8
			c-34.1,1.7-57.2,19.2-69.5,50.3c-11.7,29.8-3.9,56,18.3,78.6c8.2,8.4,15,18.1,22.9,27.7c-53.1,18.1-65.9,51.7-35.8,90.7
			c-1.1,0.8-2.1,1.9-3.3,2.5c-6.3,3-12.6,6.1-18.9,8.9C286.9,340,222.6,377,166.3,426.8C56.7,523.7,1.5,643.5,15.6,791.4
			c5.4,57.1,25.5,108.7,63.9,152c43.7,49.3,99.4,79.6,161.8,98.1c63,18.6,127.8,26.5,193.1,31.4c19.1,1.5,38.2,2.8,57.3,4.2h109.1
			c6.6-0.6,13.1-1.2,19.7-1.9c48.6-5.4,97.2-10.6,145.7-16.5c2.7-0.3,5.1-1,7.1-1.9c31-6.6,61.6-14.7,91.8-24.3
			c1.6-0.5,2.9-1.2,4.1-2c3.2-1.2,6.4-2.5,9.6-3.8c115.4-47.2,181.3-130.9,187.4-257.3C1071.8,657.1,1035.2,559.2,961,475.2z
			 M404,106.1c10.3-18.9,27.9-26.7,50.3-22.3c12.5,2.5,18.2-1.6,22.2-15.9c7.2-26.2,30.2-39.3,55.6-31.5c15.8,4.8,25,15.9,28.8,31.7
			c4.5,18.7,15,22.7,30.1,11.4c26-19.4,53.8-17.8,74.5,4.2c21.2,22.5,21.7,54,2.2,78.2c-11.1,13.8-20.8,28.7-31.6,42.7
			c-2,2.6-6.8,4.3-10.4,4.3c-28,0.3-55.9,0.2-83.9,0.2c-27.6,0-55.2-0.2-82.8,0.1c-6.3,0.1-9.4-2-13-7.5
			c-9.7-14.8-19.9-29.5-31.7-42.6C398.4,141.4,394.1,124.3,404,106.1z M1033,789.1c-6.7,67-35.4,122.9-89.1,164.9
			c-27.8,21.7-58.9,37.3-91.9,49.5c-1.9,0.7-3.7,1.5-5.2,2.3c-29.3,9-59.1,16.6-89.1,22.7c-43.9,5.3-87.7,11.8-131.8,14.8
			c-85.3,5.7-170.6,2.6-255.4-8.2c-65.6-8.3-130-21-189.9-51.8c-59.6-30.8-101.5-76-120.7-139.6c-34.5-114.4-11.3-220.1,56.2-316.3
			c44.7-63.7,105.2-111,172.7-148.7c34.7-19.4,71.4-35.3,106.2-54.4c14.7-8.1,28.3-15,45.8-13.3c10.1,1,15.7-5.9,15.7-15.5
			c0-9.5-5.7-15.3-15.9-15.6c-9.4-0.3-18.9,0.3-28.3-0.3c-11.8-0.7-19.7-9.8-18.9-20.8c0.9-11.3,8.9-18.1,22.8-18.2
			c31.5-0.2,63-0.1,94.4-0.1c51.4,0,102.8,0,154.2,0c17.7,0,26.4,6.7,26.2,19.9c-0.2,12.8-8.7,19.2-25.7,19.3c-14,0-28,0-42,0
			c-31.8,0-63.7-0.1-95.5,0.1c-12.7,0.1-19.6,7.8-17.3,19.2c2,9.7,8.9,12.3,18,12.3c42.7-0.1,85.3-0.1,128,0.1c4.3,0,9,1.1,12.8,3
			c14.8,7.7,29,16.9,44.1,24c63.3,29.6,123.2,64.5,176,110.6C992.4,539.1,1046.9,649.9,1033,789.1z"/>
		<path class="st0" d="M601,1079.9H491.6l-18-1.3c-13.1-0.9-26.2-1.9-39.3-2.9c-58-4.4-126.4-11.6-193.6-31.5
			c-68.8-20.4-122.2-52.7-163.1-98.9C40.4,903.4,18.7,851.7,13,791.7c-7.1-72.8,2.7-141,29-202.8c25.3-59.4,66.5-114.6,122.5-164.1
			C215.1,380,277,341.4,354,306.7c6.6-3,13.2-6.2,18.9-8.9c0.2-0.1,0.5-0.3,0.7-0.5c-13.2-17.9-17.7-35.4-13.1-50.6
			c5.2-17.1,21.8-31.2,48.2-40.9c-1.6-2.1-3.3-4.1-4.8-6.1c-5.1-6.5-9.9-12.7-15.4-18.3c-24.1-24.6-30.5-52.1-18.9-81.6
			c12.9-32.7,37.1-50.2,71.9-52c2.6-0.1,5.6-1.5,6-2.2c10.5-23,29.6-37.9,58.3-45.5l0.3-0.1H532l0.4,0.1
			c26.9,7.5,44.3,20.4,54.7,40.6c2.1-0.6,4.1-1.3,6.1-2c5.8-1.9,11.9-3.9,18-5c37.3-6.7,72.7,10.1,92.3,43.9
			c19.8,34,16.4,74.3-8.7,104.9c-4.9,6-9.8,12-15.1,18.5l-4.1,5c24,3.9,39.2,15.7,46.4,36.1c7.3,20.7,3.1,39.7-12.6,56.6l6.2,2.9
			c6.6,3.1,13,6.1,19.3,9.1C833.8,357.4,906.2,409,963,473.3c75.7,85.7,111.4,185.3,106.1,296.1c-6,123.4-69.6,210.8-189.1,259.7
			c-3.1,1.3-6.3,2.5-9.4,3.7c-1.4,0.9-2.9,1.6-4.6,2.1c-30,9.6-60.9,17.7-91.8,24.3c-2.3,1-4.8,1.6-7.6,2
			c-36.6,4.5-73.8,8.6-109.8,12.6c-12,1.3-23.9,2.6-35.9,4c-4.5,0.5-9.1,0.9-13.5,1.3c-2.1,0.2-4.2,0.4-6.3,0.6L601,1079.9z
			 M491.9,1074.4h108.9c2-0.2,4.1-0.4,6.1-0.6c4.4-0.4,8.9-0.8,13.4-1.3c12-1.3,23.9-2.7,35.9-4c36-4,73.2-8.1,109.7-12.5
			c2.4-0.3,4.5-0.8,6.3-1.6l0.5-0.2c30.9-6.6,61.7-14.7,91.6-24.2c1.2-0.4,2.4-0.9,3.5-1.6l0.5-0.3c3.2-1.2,6.4-2.5,9.6-3.8
			c117.4-48,179.9-133.8,185.7-254.9c5.3-109.3-30-207.6-104.7-292.2l0,0c-56.3-63.7-128.2-114.9-226.4-161.3
			c-6.3-3-12.6-5.9-19.3-9.1l-13.3-6.2l2.8-2.8c16.5-16.2,21.1-33.7,14.1-53.7c-7-19.8-21.9-30.3-46.8-33.1l-5-0.6l10.4-12.7
			c5.3-6.5,10.2-12.5,15.1-18.5c23.7-28.9,26.8-66.7,8.2-98.7c-18.5-31.8-51.7-47.6-86.6-41.3c-5.8,1-11.4,2.9-17.3,4.8
			c-2.7,0.9-5.6,1.8-8.5,2.7l-2.2,0.7l-1-2.1c-9.5-19.8-26-32.5-51.9-39.7h-24.4c-27.2,7.3-44.5,20.8-54.4,42.4
			c-1.7,3.6-7.4,5.2-10.7,5.4c-32.5,1.6-55,18-67.1,48.5c-10.7,27.3-4.8,52.8,17.7,75.7c5.7,5.8,10.6,12.1,15.8,18.8
			c2.3,3,4.7,6.1,7.2,9.1l2.5,3.1l-3.7,1.3c-26.8,9.1-43.5,22.4-48.4,38.6c-4.3,14.2,0.3,30.3,13.8,47.8l1.7,2.2L379,300
			c-0.3,0.2-0.6,0.5-0.9,0.7c-0.8,0.7-1.7,1.5-2.9,2c-5.7,2.7-12.3,6-19,9c-76.4,34.5-138,72.8-188.1,117.1
			C55.3,528.6,4.9,650.5,18.3,791.1c5.6,58.8,26.9,109.5,63.3,150.5c40.3,45.4,92.8,77.2,160.6,97.3
			c66.8,19.8,134.8,26.9,192.5,31.3c13.1,1,26.2,1.9,39.3,2.9L491.9,1074.4z M541.7,1048.7c-56.5,0-114-3.7-171.6-11
			c-58.8-7.5-127.5-19.5-190.8-52.1c-62.4-32.1-103.4-79.6-122-141.1C24,734,43,626.8,113.9,525.8c40.7-58.1,97.5-107,173.6-149.6
			c18.1-10.1,36.9-19.4,55.2-28.3c16.9-8.3,34.3-16.9,51.1-26.1c16-8.8,29.6-15.4,47.4-13.6c3.7,0.4,6.7-0.5,8.9-2.5
			c2.4-2.2,3.8-5.9,3.8-10.3c0-8.1-4.6-12.6-13.2-12.9c-4.2-0.1-8.4-0.1-12.5-0.1c-5.2,0-10.5,0.1-15.8-0.2
			c-6.5-0.4-12.3-3.1-16.2-7.6c-3.8-4.4-5.7-10.1-5.2-16.2c1-13.1,10.3-20.6,25.5-20.7c22.6-0.2,45.5-0.1,67.7-0.1
			c8.9,0,17.8,0,26.7,0h39.4c38.3,0,76.6,0,114.9,0c10.8,0,18.7,2.5,23.5,7.3c3.7,3.8,5.6,9,5.5,15.4c-0.1,10-5.2,21.9-28.5,22
			c-9.7,0-19.5,0-29.2,0h-12.8c-9.2,0-18.3,0-27.4,0c-22.3,0-45.4,0-68,0.1c-5.6,0-10,1.7-12.6,4.8c-2.2,2.8-2.9,6.6-2,11
			c1.5,7.2,5.9,10.1,15.1,10.1h0.1c49.9-0.1,90.5-0.1,128,0.1c4.9,0,10,1.3,14,3.4c6.1,3.2,12.2,6.6,18,10c8.4,4.8,17.1,9.8,26,13.9
			c73.1,34.2,129.2,69.5,176.7,111.1c53.1,46.4,92.2,97.8,116.3,152.5c25.5,58,35,121.9,28.2,189.8l0,0
			c-6.9,69.3-37.3,125.4-90.2,166.8C920,976,889.8,992.4,853,1006c-1.8,0.7-3.4,1.4-5,2.1l-0.4,0.2c-29.3,9-59.4,16.6-89.4,22.8H758
			c-10.7,1.3-21.4,2.7-32.1,4c-32.7,4.2-66.5,8.5-99.9,10.7C598.2,1047.8,570,1048.7,541.7,1048.7z M435.4,313.4
			c-13.9,0-25.6,5.8-39.1,13.2c-16.8,9.3-34.3,17.9-51.3,26.2c-18.2,8.9-37,18.2-54.9,28.2c-75.3,42.2-131.5,90.6-171.8,147.9
			c-69.8,99.6-88.6,205.2-55.8,314c18.1,60,58.2,106.4,119.2,137.8c62.6,32.2,130.7,44.1,189,51.6c86.2,10.9,172,13.7,254.9,8.2
			c33.2-2.2,66.9-6.5,99.5-10.7c10.7-1.4,21.3-2.7,32-4c29.8-6.1,59.6-13.7,88.6-22.6c1.6-0.8,3.4-1.6,5.3-2.3
			c36.2-13.4,66.1-29.5,91.1-49.1c51.7-40.4,81.3-95.2,88.1-163c13.1-131.8-33.5-242.2-142.6-337.7
			c-47.1-41.2-102.8-76.2-175.4-110.2c-9-4.2-17.8-9.3-26.3-14.1c-5.8-3.3-11.8-6.8-17.8-9.9c-3.3-1.7-7.5-2.7-11.5-2.7
			c-37.5-0.2-78.1-0.2-128-0.1c-4.4,0-17.7,0-20.7-14.5c-1.3-6.1-0.2-11.5,3.1-15.6c3.6-4.4,9.5-6.8,16.8-6.9
			c22.7-0.1,45.8-0.1,68.1-0.1c9.1,0,18.3,0,27.4,0h12.8c9.7,0,19.5,0,29.2,0c20.4,0,22.9-9.5,23-16.6c0.1-5-1.2-8.7-3.9-11.4
			c-3.7-3.8-10.3-5.7-19.6-5.7c-38.3,0-76.6,0-114.9,0h-39.4c-8.9,0-17.8,0-26.7,0c-22.2,0-45.1-0.1-67.7,0.1
			c-12.2,0.1-19.3,5.6-20.1,15.6c-0.4,4.6,1,8.9,3.9,12.1c3,3.4,7.4,5.5,12.4,5.7c5.1,0.3,10.4,0.2,15.5,0.2c4.2,0,8.5-0.1,12.8,0.1
			c11.6,0.4,18.5,7.2,18.5,18.3c0,6-2,11.1-5.6,14.3c-3.4,3-7.9,4.4-13.2,3.9C438.7,313.5,437,313.4,435.4,313.4z M458.8,212
			c-6.8,0-10.8-2.3-15-8.7c-8.6-13.2-19.1-28.5-31.5-42.2c-17.3-19.2-20.8-37.6-10.7-56.2l2.4,1.3l-2.4-1.3
			c10.8-19.9,29.8-28.3,53.3-23.7c11.1,2.2,15.4-0.9,19-13.9c3.8-13.6,11.9-24.4,22.8-30.4c10.6-5.8,23.5-6.9,36.3-3
			c16.2,4.9,26.5,16.3,30.7,33.7c1.4,5.8,4.2,13.1,9.5,15c4.2,1.5,9.6-0.2,16.3-5.2c27.2-20.3,56.4-18.5,78.2,4.6
			c22,23.3,23,56.2,2.4,81.8c-6,7.4-11.6,15.3-17.1,23c-4.7,6.5-9.5,13.2-14.5,19.7c-2.7,3.4-8.3,5.3-12.5,5.4
			c-21.4,0.3-43.2,0.2-64.3,0.2c-13.9,0-27.7,0-41.6,0c-19.9,0-40.5-0.1-60.8,0.1C459,212,458.9,212,458.8,212z M442.6,85.3
			c-15.9,0-28.2,7.5-36.2,22.1l0,0c-9,16.5-5.8,32.4,10,49.9c12.6,14,23.2,29.5,32,42.9c3.2,5,5.5,6.4,10.7,6.3
			c20.3-0.2,40.9-0.2,60.9-0.1c13.9,0,27.7,0,41.6,0c21,0,42.8,0.1,64.2-0.2c3.1,0,6.9-1.6,8.2-3.2c4.9-6.3,9.7-13,14.3-19.5
			c5.5-7.7,11.2-15.7,17.3-23.3c18.8-23.3,18-53.3-2.1-74.6c-19.7-20.9-46.2-22.3-70.9-3.9c-8.2,6.1-15.4,8.1-21.4,6
			c-6.1-2.2-10.5-8.6-12.9-18.9c-3.7-15.4-12.7-25.4-26.9-29.7c-11.5-3.5-22.6-2.6-32.1,2.5c-9.6,5.3-16.8,14.9-20.1,27.1
			c-4.3,15.6-11.4,20.6-25.3,17.8C449.9,85.7,446.1,85.3,442.6,85.3z"/>
	</g>
	<g>
		<path class="st0" d="M261.8,584.5c-17.3,0-24-11.6-18-24.4c14.8-31.1,33.8-59.5,56.5-85.3c41.7-47.6,90.9-85.6,147.9-113.2
			c11.6-5.6,19.7-3.6,24.2,5.3c4.7,9.2,1.4,17.1-9.7,22.6c-46.1,22.9-87.1,52.8-123.1,89.5c-27.1,27.6-49.4,58.6-66.9,93.3
			C269.9,577.8,264.3,581.9,261.8,584.5z"/>
		<path class="st0" d="M261.8,587.3c-9.4,0-16.6-3.2-20.3-9.1c-3.3-5.3-3.4-12.3-0.1-19.2c14.5-30.5,33.6-59.5,56.9-86
			c42.3-48.2,92.3-86.5,148.7-113.9c16.2-7.9,24.1-0.8,27.8,6.5c2.5,4.9,3,9.5,1.6,13.8c-1.7,5-5.9,9.2-12.6,12.5
			c-45.4,22.5-86.6,52.5-122.4,89c-27,27.6-49.3,58.7-66.4,92.6c-2.2,4.4-6.1,8-8.8,10.5c-1,0.9-1.9,1.7-2.4,2.4l-0.8,0.9
			L261.8,587.3L261.8,587.3z M459.8,361.2c-2.7,0-6.1,0.8-10.4,2.9c-55.8,27.1-105.2,64.9-147,112.6c-22.9,26.1-41.8,54.6-56.1,84.7
			c-2.5,5.3-2.6,10.2-0.2,13.9c2.5,4,7.7,6.3,14.6,6.5c0.6-0.6,1.2-1.1,1.9-1.8c2.6-2.4,5.9-5.4,7.7-9c17.4-34.4,40-66,67.4-93.9
			c36.2-37,77.8-67.3,123.8-90.1c5.3-2.6,8.6-5.8,9.8-9.3c0.9-2.8,0.5-6.1-1.3-9.6C468.3,364.8,465.6,361.2,459.8,361.2z"/>
	</g>
	<g>
		<path class="st0" d="M727.8,450.4c4.6,1.8,8.1,2.6,10.9,4.4c79.8,49.8,138.6,116.5,167.3,207.5c0.7,2.3,1.5,4.7,1.7,7.1
			c0.6,8.8-3.3,15.2-11.8,17.4c-8.7,2.2-15-1.7-18.2-10.1c-4.6-12.4-8.3-25.2-13.7-37.3c-30-67.3-78.7-118-140.4-157.1
			c-10.7-6.8-13.6-16-6.9-24.2C719.5,454.6,724.2,452.8,727.8,450.4z"/>
		<path class="st0" d="M891.3,690.1c-7.4,0-13.1-4.4-16.1-12.5c-1.6-4.3-3.1-8.8-4.6-13.1c-2.7-8-5.6-16.3-9-24.1
			c-28.4-63.4-74-114.4-139.5-155.8c-6.7-4.2-10.7-9.4-11.6-15c-0.7-4.5,0.7-9.1,4-13.2c2.3-2.8,5.5-4.6,8.4-6.2
			c1.2-0.7,2.4-1.3,3.4-2l1.2-0.8l1.3,0.5c1.5,0.6,2.9,1.1,4.2,1.6c2.7,0.9,5,1.8,7.1,3.1c85.9,53.6,141,121.9,168.4,209
			c0.8,2.5,1.6,5,1.8,7.7c0.7,10.4-4.3,17.8-13.9,20.2C894.7,689.9,893,690.1,891.3,690.1z M728.1,453.4c-0.8,0.5-1.7,1-2.5,1.5
			c-2.6,1.5-5.2,3-6.8,4.9c-2.4,2.9-3.3,5.9-2.8,8.9c0.6,3.9,3.9,7.9,9.1,11.3c66.4,42,112.7,93.8,141.5,158.3
			c3.6,8,6.4,16.4,9.2,24.5c1.5,4.3,3,8.7,4.6,13c2.7,7.4,7.8,10.2,14.9,8.4c8.7-2.2,10.1-9.1,9.7-14.5c-0.1-2.1-0.8-4.3-1.5-6.4
			c-27.1-85.8-81.4-153.2-166.1-206c-1.6-1-3.6-1.7-6.1-2.6C730.3,454.2,729.2,453.8,728.1,453.4z"/>
	</g>
</g>
</svg>
