<?xml version="1.0" encoding="utf-8"?>
<!-- Generator: Adobe Illustrator 24.3.0, SVG Export Plug-In . SVG Version: 6.00 Build 0)  -->
<svg version="1.1" id="Слой_1" xmlns="http://www.w3.org/2000/svg" xmlns:xlink="http://www.w3.org/1999/xlink" x="0px" y="0px"
	 viewBox="0 0 1080 1080" style="enable-background:new 0 0 1080 1080;" xml:space="preserve">
<style type="text/css">
	.st0{fill:#FBF8E7;}
</style>
<g>
	<path class="st0" d="M132.6,544.4c-59.6,0-108.5-31.7-124.8-82.7C-6,418.2-1.5,373.6,21.2,328.9c21.6-42.4,56.7-74.4,110.6-100.8
		c52-25.5,110.3-39.9,183.4-45.5c71.7-5.5,148.4-2.4,234.3,9.3l27.9,3.8l-22,17.5c-4.7,3.8-9.2,7.4-13.6,11
		c-11.5,9.3-22.4,18.1-33.8,26.3c-7.2,5.1-16.4,4.3-23.1,3.8l-0.7-0.1c-77.8-6.7-169.6-10.2-261.3,13.9
		c-57.4,15.1-95.4,36.3-123.3,68.9c-24,27.9-33.2,59.3-27.6,93.3c4.2,25.3,19,39.4,45.1,43c23.7,3.3,48.5-0.1,80.6-10.7
		c57.8-19.2,114-49.4,182.1-97.8c47.5-33.7,93.6-67,135.7-103.3c109.6-94.2,235-114.6,383.5-62.3c54.9,19.4,99.4,45.4,136,79.7
		c11.4,10.7,21.6,23.1,29.6,35.9c10.9,17.4,14.1,35.5,9.2,52.2c-4.9,17-17.6,30.8-36.5,40c-29.3,14.2-63.3,17.3-98.3,8.9
		c-56.4-13.5-111.1-29.5-161.8-44.9l-10.2-3c-64.8-19.6-131.8-39.9-199.9-50.1c-6.4-0.9-9.7,0-14.9,4.3
		C484.2,378.6,401.6,443,305,492.7c-57.1,29.4-105.9,45.5-153.7,50.6C145,544,138.7,544.4,132.6,544.4z M385.7,204
		c-23.5,0-46.3,0.9-68.6,2.6c-69.9,5.3-125.4,19-174.6,43.1c-49,24-80.7,52.6-99.7,90.1C23,378.6,19,417.1,30.9,454.4
		c14.6,45.7,60.9,71.3,117.8,65.1c45.4-4.9,90.1-19.7,145.2-48.1c94.5-48.7,175.8-112.1,242.9-167.7c10.5-8.7,20.6-11.5,33.9-9.6
		c69.8,10.4,137.7,31,203.3,50.9l10.2,3.1c50.3,15.2,104.6,31.2,160.4,44.5c29.9,7.1,57.5,4.7,82-7.2c12.7-6.1,20.9-14.8,23.9-25
		c2.9-10,0.6-21.4-6.5-32.9c-6.9-11-15.8-21.8-25.7-31.1c-34.1-32-75.8-56.3-127.5-74.6c-139.6-49.2-257.2-30.2-359.6,57.8
		c-42.9,36.9-89.5,70.6-137.5,104.6c-70.2,49.9-128.3,81-188.5,101c-35.8,11.9-64,15.5-91.5,11.7c-36.4-5-59.7-27.3-65.6-62.9
		c-6.9-41.4,4.2-79.3,33-112.9C121.8,274,178,255,216.7,244.8c95.3-25.1,189.8-21.5,269.6-14.6l0.7,0.1c2.1,0.2,5.9,0.5,7.5,0.2
		c7.9-5.7,15.7-11.8,23.8-18.3C471.5,206.7,427.6,204,385.7,204z M990.7,374.6c-5.5,0-10.5-0.7-13.7-1.2l-8.5-1.3
		c-29.4-4.4-59.7-8.8-88.9-17.1c-64.8-18.4-130.5-38.2-193.9-57.4c-25.5-7.7-51-15.4-76.5-23.1l-25.8-7.7l22.9-14
		c28-17.1,59.6-28,93.9-32.2c109.2-13.3,211,17,302.4,90.1l1.7,1.3c9.5,7.6,27.3,21.6,19,43C1016.9,371.3,1002.4,374.6,990.7,374.6z
		 M644.4,260c16.1,4.8,32.1,9.7,48.2,14.5c63.4,19.2,128.9,39,193.6,57.3c27.7,7.9,57.2,12.2,85.9,16.5l8.6,1.3
		c16.4,2.4,18.9-0.3,20.1-3.2c1.5-3.9-0.9-7.1-11.5-15.5l-1.7-1.4c-86.2-68.9-181.8-97.5-284.3-85C682.3,247,662.7,252.2,644.4,260z
		"/>
	<path class="st0" d="M647.9,936.3c-6.5,0-13,0-19.4,0c-6.5,0-12.9,0-19.4,0H597v-0.5c-2.2,0-4.3,0-6.5,0c-14.1-0.1-28.7-0.2-43,0.2
		c-18.8,0.5-31.4-9.6-35.1-28.4l-0.8-4.1c-1.7-8.6-3.5-17.4-4.5-26.5c-5.9-53.2-27.2-103.4-47.8-152l-0.6-1.5
		c-25.8-60.8-24.7-122.9-23.6-183c0.2-9,0.3-18,0.4-27c0-6.1,1.9-11.5,3.5-15l8.1-18.1c11.5-25.6,23.4-52,35.7-77.8
		c9.5-20,28.5-30.4,49.6-27.2c14.3,2.2,26.1,9.3,33.3,20c6.8,10.2,8.9,22.9,5.7,35.8c-4.6,18.7-10,37.4-15.3,55.4
		c-4.3,14.6-8.7,29.6-12.5,44.4c-2.1,8.1-2.5,16.8-1.1,23.9c7.6,37.5,15.4,76.2,43.4,106.2c18.8,20.2,35.7,29.8,50.1,28.3
		c14-1.4,28-13.4,41.5-35.7c6.8-11.1,12.2-23,18-35.5c4.3-9.3,8.7-19,13.7-28.3l0.9-1.6c7.7-14.3,15.7-29.1,27.6-40.8
		c12.8-12.5,30.6-18.9,48.9-17.6c18.6,1.4,35.7,10.5,46.8,25.1c7,9.3,3.1,25.6-2.2,33.4c-22.8,33-38.7,71.7-48.6,118.3
		c-6.4,30.1-15.3,57.2-26.5,80.6c-7.6,15.8-18.1,29.9-28.2,43.6c-4.8,6.5-9.8,13.3-14.3,19.9c-3,4.5-4.7,7.9-4.9,10.1
		c-0.8,9.3-1,18.6-1.2,28.5c-0.1,4.8-0.2,9.6-0.4,14.4c-0.8,22.2-11,32.2-32.9,32.5C665.5,936.3,656.6,936.3,647.9,936.3z
		 M621.2,912.2c2.5,0,4.9,0,7.4,0c14.9,0.1,30.2,0.1,45.3-0.1c6.3-0.1,7.7-1.1,7.8-1.1c0,0,1.1-1.5,1.3-8.2c0.2-4.6,0.3-9.3,0.4-14
		c0.2-9.8,0.4-20,1.3-30.2c0.8-8.3,5.1-15.7,8.8-21.2c4.8-7.2,10-14.1,15-20.9c9.9-13.3,19.2-25.9,25.8-39.7
		c10.4-21.7,18.7-47,24.7-75.2c10.5-49.8,27.6-91.3,52.3-127c0.9-1.3,1.7-4.6,1.8-6.6c-6.9-8.3-17.1-13.5-28.2-14.3
		c-11.4-0.8-22.4,3.1-30.2,10.8c-9.4,9.2-16.4,22.3-23.3,35l-0.9,1.6c-4.7,8.7-8.9,17.9-13.1,26.9c-5.8,12.6-11.8,25.7-19.3,38
		c-17.7,29-37.8,44.9-59.8,47.1c-22.8,2.3-45.7-9.4-70.3-35.8c-32.6-35-41.5-79-49.4-117.8c-2.2-10.7-1.7-23,1.4-34.7
		c4-15.2,8.4-30.4,12.7-45.1c5.2-17.8,10.6-36.2,15-54.4c1.6-6.4,0.8-12.2-2.3-16.7c-3.4-5-9.4-8.5-16.9-9.6
		c-10.3-1.6-19.1,3.4-24,13.7c-12.2,25.5-24,51.8-35.4,77.3l-8.1,18.1c-0.8,1.9-1.3,3.8-1.4,5.3c-0.1,9.1-0.2,18.2-0.4,27.3
		c-1,60.3-2,117.2,21.8,173.3l0.6,1.5c21.3,50.2,43.3,102.1,49.5,158.8c0.9,8,2.5,16,4.2,24.4l0.8,4.1c1.6,7.9,4,9.2,10.8,9.1
		c14.7-0.4,29.5-0.3,43.8-0.2c6.1,0,12.3,0.1,18.4,0.1h12.1L621.2,912.2L621.2,912.2z"/>
	<path class="st0" d="M574.5,640l-3.3-8.1c-1.2-2.9-2.4-5.8-3.6-8.7c-2.8-6.6-5.7-13.4-8.1-20.4c-13.5-39.4-14-72.2-1.3-103.2
		c5.3-12.9,8.9-26.4,12.8-40.8c1.7-6.5,3.5-12.9,5.4-19.3l3-10.1l10.5,1.6c26.1,4.1,40,19,41.6,44.1c0.2,3.3,1.2,5.9,1.7,6.5
		c13.7,13.3,17.3,30.2,9.9,47.5c-10.6,24.7-21.7,49.5-32.4,73.6c-4.3,9.7-8.7,19.5-13,29.2l-3,6.7L574.5,640z M596.3,457.7
		c-0.7,2.5-1.3,5-2,7.4c-3.9,14.4-7.9,29.3-13.7,43.6c-10.5,25.7-9.9,52.3,1.8,86.4c0.7,2.1,1.5,4.3,2.3,6.4
		c1.2-2.8,2.5-5.6,3.7-8.4c10.7-24,21.7-48.8,32.2-73.3c3.5-8.2,2.1-14.4-4.6-20.9c-7.2-6.9-8.6-17.8-8.8-22.2
		C606.6,466.7,603.5,461,596.3,457.7z"/>
</g>
</svg>
