<?xml version="1.0" encoding="utf-8"?>
<!-- Generator: Adobe Illustrator 24.3.0, SVG Export Plug-In . SVG Version: 6.00 Build 0)  -->
<svg version="1.1" id="Слой_1" xmlns="http://www.w3.org/2000/svg" xmlns:xlink="http://www.w3.org/1999/xlink" x="0px" y="0px"
	 viewBox="0 0 1080 1080" style="enable-background:new 0 0 1080 1080;" xml:space="preserve">
<style type="text/css">
	.st0{fill:#FBF8E7;}
</style>
<g>
	<path class="st0" d="M1080,430.4c-4.2,22.7-7.7,45.5-12.8,68c-25.7,112.4-74.3,212.3-160.1,291.7c-41.2,38.1-88.1,67.2-140.4,87.5
		c-8,3.1-11.3,6.9-10.9,15.9c0.8,18.6-0.1,37.2,0.4,55.9c0.3,11.3-4.3,18.4-14.3,23.4c-32.5,16.2-67.4,24.1-102.9,28.9
		c-73.6,9.8-147.3,10.2-220.2-4.3c-27.3-5.4-53.5-16-80.1-24.9c-10.6-3.5-14.6-11.9-14.4-23.1c0.5-19.7-0.1-39.4,0.2-59
		c0.1-5.6-1.3-8.7-7-11C164.2,818,73.7,701,26.4,547.1C15.4,511.4,10,474,2,437.3c-0.4-1.7-1.1-3.2-1.7-4.8c0-13.4,0-26.7,0-40.1
		c0.6-1.6,1.5-3.2,1.7-4.9c4.8-41.5,21-78.4,44.9-112.2c39.4-55.5,92.2-94.9,151.9-125.8c77.3-40,159.9-62,246.2-71.9
		c97.7-11.1,194.3-5.9,289.8,17.5c83.7,20.5,162,53.4,229.7,107.9c53.2,42.8,94.1,94.4,110,162.7c2.1,8.8,3.7,17.7,5.5,26.6
		C1080,405.1,1080,417.8,1080,430.4z M1002.1,592.9c-2.8,2.1-3.9,2.8-4.7,3.7c-53.1,53.3-116.8,89.5-187.2,114.3
		c-139,49.1-281.3,56.6-425.8,30.8c-79.8-14.3-155.8-39.9-224.2-84.1c-28.4-18.3-54.3-40.6-80.5-60.4c0.3-1.8,0-1.1,0.1-0.6
		c0.5,1.7,1.1,3.3,1.7,5c50.7,119.9,136.3,204.7,259,248.1c111.9,39.5,226.9,41.9,342.7,16.7c112.6-24.6,203.9-81,268.5-177.9
		C971.5,658.9,988.1,627.8,1002.1,592.9z M543.4,108c-90.6,0.7-175.8,12.8-258,42.1C214.8,175.3,149.8,210,98.2,265.8
		c-38.2,41.3-62.3,89-62,146.8c0.4,61.1,26.7,111.2,68.1,154.1c49.3,51.2,109.9,84.5,175.9,108.7c102.5,37.6,208.5,49.9,317.1,42.4
		c88.4-6.1,173.5-25.7,253.7-63.9c56.1-26.7,106.6-61.1,145.3-110.8c62.7-80.5,63.9-175.3,2.8-256.8c-37.4-49.8-87.4-84-142.7-110.7
		C756.5,127.5,650,109.1,543.4,108z M719.9,894.2C599.6,926,480.4,926,360.4,894.1c0,14.6,0.4,27.6-0.2,40.5
		c-0.3,6.7,1.9,10.5,8.3,12.3c14.8,4.2,29.4,9.7,44.4,12.8c74.3,15.5,149.2,16.5,224.1,5.4c25.2-3.7,49.7-11.8,74.4-18.4
		c3.3-0.9,7.9-4.9,8.1-7.7C720.3,924.4,719.9,909.8,719.9,894.2z"/>
	<path class="st0" d="M546.4,684.2C428.3,683,321.1,662,221.5,609.1c-36.5-19.4-69.8-43.4-97.6-74.3C53.3,456.3,55,364,128.3,288.1
		c42.6-44.1,94.3-73.9,150.7-95.9c112.5-43.9,229.1-56.3,348.7-42.8c83.5,9.4,163.2,31.4,236.9,72.5c42.8,23.8,81,53.3,109.6,93.7
		c45.3,64.1,45,134-0.8,197.8c-32.1,44.7-75.7,75.8-124,100.6c-78.3,40.1-162,60.6-249.3,67.5C580.2,683.1,560.2,683.5,546.4,684.2z
		 M562.7,252.6c-100.7-0.2-179.4,10.3-256,34.5c-68.3,21.6-131,53.4-185.2,101.2c-11.5,10.2-14.6,21-13,35.2
		c3.6,31.5,17.3,58.3,37.2,82.2c34.1,40.9,78.2,68,126.2,89.1c69.8,30.8,143.2,46.6,219.1,51.4c107.7,6.8,212.3-7,312.2-49.4
		c49.9-21.2,95.7-48.8,131-91.2c22.6-27.1,38.1-57.4,37.3-93.7c-0.1-6.2-3.5-13.8-8-18.1c-34.9-33.8-75.4-59.4-119.5-79.6
		C748.4,270.4,647,253.3,562.7,252.6z M933.1,320.9c-1-1.3-1.9-2.7-3.1-3.9c-5.1-5.3-10.1-10.7-15.6-15.7
		c-44.2-40.8-96.8-67-153.3-85.8c-113.3-37.7-229-44.8-346.3-24.3c-71.8,12.5-140.2,35.1-202.3,74.3c-24.4,15.4-46.6,33.2-64.9,55.9
		c119.9-75.9,252.5-105,392.1-105C679.6,216.2,812.3,245.2,933.1,320.9z"/>
	<path class="st0" d="M558.5,612c-4.4,0-9.7,0-14.9,0c-13.2-0.1-21.3-7-21.2-18c0.1-10.7,7.9-17.3,20.4-17.9
		c23.8-1.3,47.7-1.8,71.4-4.4c53-5.8,104.5-17.9,151.2-44.7c15.3-8.8,29.3-20.4,42.4-32.5c12.1-11.1,18.9-25.8,20.4-42.8
		c1.1-13.6,8.8-20.3,20-19.2c10.8,1.1,16.6,9.8,15.7,23.2c-1.8,26.2-14,47.5-31.9,65.8c-31.8,32.5-71.7,51-114.1,64.8
		C666.3,603,613.2,610,558.5,612z"/>
	<path class="st0" d="M216.2,452.7c1-29,10.6-49.3,26-67c28.7-33.1,66.3-52.4,106.6-66.9c60.7-21.9,123.8-30.1,188.1-30.4
		c12.8-0.1,20.6,6.6,21,17.1c0.4,11.1-7.3,18.7-20.6,18.7c-53.6,0.4-106.4,6.4-157.9,21.9c-31.4,9.5-61.4,22-87.7,42.1
		c-21.2,16.2-38.2,35.1-40,63.8c-0.7,10.3-9.4,16.8-18.6,16.1C222.8,467.3,216.1,459.1,216.2,452.7z"/>
	<path class="st0" d="M549,377.5c30.7,2.2,61.2,5.6,89.2,19c11.8,5.7,22.8,13.7,32.8,22.3c9.3,8,13.5,19.5,12.8,32.2
		c-0.5,9.1-7,16.3-15.7,16.9c-9.1,0.7-16.9-3.3-18.4-12.2c-2.4-13.9-12.1-19.9-23-25c-24.9-11.8-51.6-15.2-78.8-16.6
		c-3.5-0.2-7.1,0.1-10.5-0.5c-8.6-1.5-13.8-6.8-14.7-15.5c-0.9-8.6,2.7-15.4,11-18.3C538.4,378.1,543.8,378.2,549,377.5z"/>
	<path class="st0" d="M526.2,521.9c-28.6-1.5-56.8-5.4-82.8-17.7c-12.4-5.9-24-14.3-34.5-23.3c-9-7.7-12.9-19-12.4-31.3
		c0.4-9.3,5.4-15.1,14.4-16.9c8.8-1.9,18.2,2.7,19.7,11.6c2.5,14.9,12.9,22.1,24.8,25.8c21,6.4,42.7,10.5,64.1,15.1
		c5.4,1.2,11.2,0.5,16.8,0.7c14.2,0.7,22,7.7,21.5,19.1c-0.5,10.9-8.5,17-22.2,16.9C532.6,521.8,529.4,521.9,526.2,521.9z"/>
</g>
</svg>
