<?xml version="1.0" encoding="utf-8"?>
<!-- Generator: Adobe Illustrator 24.3.0, SVG Export Plug-In . SVG Version: 6.00 Build 0)  -->
<svg version="1.1" id="Слой_1" xmlns="http://www.w3.org/2000/svg" xmlns:xlink="http://www.w3.org/1999/xlink" x="0px" y="0px"
	 viewBox="0 0 1080 1080" style="enable-background:new 0 0 1080 1080;" xml:space="preserve">
<style type="text/css">
	.st0{fill:#FBF8E7;}
</style>
<g>
	<g>
		<path class="st0" d="M994.3,822.1c13.9,0,26.7-0.1,39.4,0c26.6,0.2,39.4,13.1,39.4,40c0,23.8,0.1,47.6,0,71.4
			c-0.1,25.8-13.3,39.1-39.2,39.1c-192.8,0-385.5-0.1-578.3-0.1c-135.7,0-271.4,0.1-407.1,0.1c-29.1,0-41.6-12.4-41.6-41.2
			c0-23.4-0.1-46.9,0-70.3c0.1-25.8,13.2-38.8,39.2-39c12.8-0.1,25.5,0,39.6,0c0-5.6,0-10.1,0-14.5c0-85.4-0.8-170.9,0.3-256.3
			c1.6-115,41.8-214.1,126.7-293.1C273.6,201.4,346,165.8,427,148.7c126.6-26.8,248.7-14.1,362,50.7c130.1,74.4,198,189.2,204,338.2
			c3.6,89.4,1,179.1,1.1,268.7C994.3,810.9,994.3,815.4,994.3,822.1z M370.8,821.4c-5.2-6.8-9.4-11.7-13.1-16.9
			c-36.7-51.8-58.9-108-51.4-172.9c3.7-31.4,16-61.4,39.8-80.6c3.3-2.7,11-5.8,15.7-7.1c1,4.4,1.2,11.6,0.9,16
			c-0.9,10.3-0.7,18.3,1.7,26.5c7.5,25.1,21.8,46.4,40.8,64.4c3.1,2.9,7,5,11.7,8.4c0-10.7,0.4-19.2-0.1-27.7
			c-2.8-55.6,12.2-103.9,56.6-140.4c11.1-9.1,22.2-18.2,33.1-27.6c16.1-13.8,20.5-31.1,11.5-49.9c-8.1-16.9-18.9-32.5-28.1-49
			c-2.5-4.5-5.7-11.7-3.8-14.6c2.1-3.4,9.6-5,14.6-4.7c29.4,1.8,55.2,13.4,76.7,32.8c53,47.8,81.4,106.9,78.9,179.4
			c-1.4,38.2-12.1,74.4-22,110.9c-3.2,12-6,24.3-7.3,36.6c-1.1,10.3,4.7,14,13,8c11.3-8,22.4-17,31.4-27.4
			c33.6-38.5,59.2-81.9,77.4-129.7c1.6-4.1,4.7-15.1,8.1-18.6c6.6,6.6,10.1,16,10.9,20.5c2.4,13.3,3.8,27,4.6,40.5
			c4.7,78.8,1.5,155.9-50.8,222.9c41.1,0,81.1,0,121.5,0c0.3-2.2,0.7-3.7,0.7-5.1c0-90.3,1.7-180.7-0.7-271
			c-2.6-95.7-46.1-169.8-130.5-216.4c-84-46.4-173.8-53.3-266-29.8c-117.8,30.1-214,118.3-211,272.7c1.5,78.6,0.3,157.3,0.3,235.9
			c0,4.4,0,8.9,0,14C281.2,821.4,325.2,821.4,370.8,821.4z M755,595.8c-0.8,0.1-1.7,0.2-2.5,0.3c-10.4,17.9-20.1,36.4-31.5,53.6
			c-11.5,17.3-23.9,34.1-37.6,49.6c-9.9,11.2-21.5,21.5-34.2,29.2c-22,13.3-41.6,0.6-40-25.1c0.6-10.1,3.1-20.1,5.4-30.1
			c7.2-31.3,16.9-62.1,21.7-93.7c11.4-74.2-14.7-135.9-68.7-186.5c-15-14-32.9-23.6-53.7-28c6.9,13.1,14.2,25.1,19.7,37.9
			c13.4,31.5,8.2,53.6-17.3,76.2c-10.5,9.3-21.6,17.8-32.3,26.8c-30.9,26.1-47.1,59.5-48.5,99.8c-0.6,17,0.9,34,0.4,51
			c-0.6,18-14.5,25.6-29.9,16.2c-7.6-4.6-14.6-10.8-20.8-17.3c-19.3-20.7-33.1-44.8-40.7-72.6c-1.4,1-2.5,1.5-3.1,2.3
			c-1.6,2.5-3.2,5.1-4.5,7.8c-12.3,24.3-16.2,50.3-13.4,77.1c5.7,54.9,29,101.9,65,143.2c5.4,6.2,11.1,8.7,19.5,8.7
			c86.2-0.3,172.4-1.5,258.6,0.6c25.9,0.6,40.5-9.2,53.2-29.1c22.3-35.1,32.6-73.9,35.2-114.7C756.4,651.5,755,623.6,755,595.8z
			 M530.2,954.1c0-38.1,0-75.6,0-113.4c-81.2,0-161.5,0-242.4,0c0,38.2,0,75.8,0,113.4C369,954.1,449.4,954.1,530.2,954.1z
			 M792.3,840.9c-81.5,0-162.1,0-242.6,0c0,38.2,0,75.5,0,113.2c81.1,0,161.5,0,242.6,0C792.3,916.5,792.3,879.3,792.3,840.9z
			 M268.3,841c-2.1-0.4-3.5-0.9-4.9-0.9c-73.3-0.1-146.6-0.2-219.8,0c-12.8,0-18.6,6.3-18.7,19.1c-0.2,24.2-0.1,48.3,0,72.5
			c0,17.9,5,22.9,22.8,23c69.9,0,139.8,0,209.6,0c3.6,0,7.2-0.4,11-0.7C268.3,915.8,268.3,878.5,268.3,841z M812,840
			c0,39.2,0,76.7,0,114.6c75.9,0,150.6,0.1,225.4-0.1c11.8,0,17.6-6.5,17.7-18.9c0.2-23,0.1-46.1,0.1-69.1
			c0-22.7-3.7-26.6-26.1-26.6c-68,0-136,0-204,0C821,840,816.9,840,812,840z M722.4,313.1c19.3-33.5,37.9-65.8,57.1-99
			c-72-40.1-148.4-58.6-229.9-60c0,38.9,0,76.1,0,114.3C610.5,270.1,668.1,283.2,722.4,313.1z M301.4,215.6
			c19.3,33.4,38.1,66,57.3,99.2c53.9-30.1,111.3-43.8,171.4-46.4c0-38.7,0-76.3,0-114.4C448.6,156.7,372.6,175.4,301.4,215.6z
			 M133.7,402.1c33.7,19.5,66.8,38.5,100.7,58.1c21.3-58.5,58.2-102.7,108.7-135.9c-19.4-33.6-38.2-66.2-57.4-99.3
			C216.8,269.1,165.4,326.5,133.7,402.1z M946.9,401.7c-31.7-76.4-82.7-134.4-151.9-178.4c-19.4,33.7-38.2,66.2-55.3,96
			c22.6,21.9,45.9,40.5,64,63.3c15.4,19.4,27,41.9,39.6,64.1c2.1,3.7,4.3,7.4,6.5,11.1C880.5,440,913.1,421.2,946.9,401.7z
			 M952.9,419.1c-29.3,16.9-57,33.7-85.6,49c-6.8,3.6-10.3,4.8-11.4,10c-0.8,3.7-0.7,7.4,0,13.2c6.6,39.5,5.5,87.6,6.1,130.2
			c0.1,5.1,0,10.3,0,15.8c38.6,0,75.8,0,114,0C976.8,563.6,980.1,490.5,952.9,419.1z M105,637c37.3,0,74.8,0,113,0
			c0-6.5,0-12.1,0-17.7c0.3-45.6-2.6-91.4,9.1-136.3c0.6-2.3-1.3-6.7-3.3-7.9c-31.8-18.7-63.7-37-95.7-55.4
			C108,459,95.2,580.1,105,637z M975.6,821.7c0-55.7,0-110.2,0-165.3c-37.9,0-75.1,0-112.7,0c0,55.4,0,110.1,0,165.3
			C900.7,821.7,937.6,821.7,975.6,821.7z M104.3,821.2c38.5,0,75.7,0,112.9,0c0-55.4,0-109.9,0-164.7c-38,0-75.1,0-112.9,0
			C104.3,711.8,104.3,766.3,104.3,821.2z"/>
		<path class="st0" d="M48.5,979.5c-33,0-48.5-15.3-48.5-48v-12.6c0-19.2,0-38.5,0-57.7c0.1-29.8,16-45.7,46-45.9
			c8.8-0.1,17.6-0.1,26.8,0h5.9v-7.6c0-26.3-0.1-52.6-0.1-78.9c-0.2-58.2-0.3-118.3,0.5-177.5c1.7-119.7,45-220,128.9-298.1
			c60-55.9,133.3-93.4,217.6-111.2c134.1-28.4,257.5-11.1,366.9,51.4c131.5,75.2,201.3,190.9,207.5,344c2.5,61.8,2,124.8,1.5,185.6
			c-0.2,27.8-0.4,55.6-0.4,83.4v8.9h5.7c9.2,0,18.1,0,26.9,0c30.2,0.2,46.2,16.4,46.2,46.8c0,23.8,0.1,47.6,0,71.5
			c-0.1,29.6-16.4,45.9-46,45.9l-578.3-0.1c-84.8,0-169.6,0-254.4,0.1L48.5,979.5L48.5,979.5z M61.1,829c-5,0-10,0-14.9,0
			c-22.3,0.2-32.3,10.1-32.4,32.1c-0.1,19.2,0,38.4,0,57.7v12.6c0,25,9.4,34.3,34.7,34.3l0,0h152.7c84.8,0,169.6-0.1,254.4-0.1
			l578.3,0.1c22,0,32.2-10.2,32.3-32.2c0.1-23.8,0-47.6,0-71.4c0-23-9.8-32.9-32.6-33.1c-8.8-0.1-17.6,0-26.8,0h-19.5v-22.7
			c-0.1-27.8,0.2-55.7,0.4-83.5c0.5-60.7,1-123.4-1.5-184.9c-6-148-73.4-259.8-200.5-332.5c-106.3-60.8-226.5-77.6-357.2-49.9
			c-81.9,17.3-152.9,53.6-211.1,107.8C136.5,338.8,94.6,435.7,93,551.5c-0.8,59.1-0.7,119.2-0.5,177.3c0.1,26.3,0.2,52.6,0.1,78.9
			V829H72.9C68.9,829,65,829,61.1,829z M923.1,961.5c-18.4,0-36.8,0-55.3,0h-62.7V833.1H1029c26.2,0,33,6.9,33,33.4v20.2
			c0,16.3,0.1,32.7-0.1,49c-0.1,16.3-9.1,25.6-24.5,25.7C999.4,961.5,961.3,961.5,923.1,961.5z M818.9,947.8h48.9
			c56.8,0,113.2,0,169.6-0.1c6.6,0,10.7-2,10.8-12c0.1-16.3,0.1-32.6,0.1-48.9v-20.2c0-18.9-0.7-19.7-19.2-19.7H819v100.9H818.9z
			 M139.2,961.5c-30.5,0-61,0-91.5,0c-21.6,0-29.6-8.1-29.7-29.8v-14.1c0-19.5-0.1-39,0.1-58.5c0.1-16.7,9.2-25.8,25.6-25.9
			c62.4-0.1,124.7-0.1,187.1,0h32.7c1.7,0,3.2,0.4,4.6,0.7c0.5,0.1,1,0.2,1.6,0.4l5.6,1.1v125.1l-9.9,0.7c-2.7,0.2-5.3,0.4-8,0.4
			C217.9,961.5,178.5,961.5,139.2,961.5z M134.3,846.9c-30.2,0-60.4,0-90.6,0.1c-8.9,0-11.7,3-11.8,12.2
			c-0.2,19.4-0.1,38.9-0.1,58.3v14.1c0,14.1,2,16.1,15.9,16.1c69.9,0,139.8,0,209.6,0c1.4,0,2.8-0.1,4.2-0.2V847h-30.8
			C198.5,846.9,166.4,846.9,134.3,846.9z M799.2,961H542.8V834h256.4L799.2,961L799.2,961z M556.6,947.3h228.8v-99.5H556.6V947.3z
			 M537,961H280.9V833.8H537V961z M294.6,947.2h228.6v-99.6H294.6V947.2z M668.6,829.8c-0.8,0-1.6,0-2.5,0
			c-68-1.7-137.3-1.3-204.4-0.9c-18,0.1-36,0.2-54,0.3h-0.1c-10.3,0-17.9-3.4-24.5-11.1c-39.3-45.1-61.1-93.2-66.6-147
			c-3-29.1,1.7-56.4,14.1-80.9c1.4-2.8,3-5.6,4.9-8.5c1.2-1.8,2.7-2.8,3.8-3.5c0.3-0.2,0.6-0.4,0.9-0.6l8.1-6l2.6,9.7
			c7.1,26,20.2,49.5,39.1,69.7c6.4,6.8,12.9,12.3,19.3,16.1c4.1,2.5,8,3.4,11.2,2.9l-7.4-5.2c-1.5-1.1-3-2-4.3-2.9
			c-2.9-1.9-5.7-3.7-8.2-6.1c-20.8-19.8-35.1-42.4-42.6-67.4c-2.9-9.6-2.9-18.6-2-29.1c0.1-1.7,0.2-3.8,0.1-6
			c-2.4,1.1-4.4,2.1-5.4,3c-26,21-34.6,53-37.3,76.1c-6.6,57,9.3,110.4,50.2,168.1c2.4,3.4,5,6.6,7.9,10.4c1.5,2,3.2,4,5,6.3
			l8.6,11.1h-156v-20.9c0-24.5,0.1-49,0.2-73.4c0.3-53.2,0.5-108.3-0.5-162.3C226.1,432,306.9,327.5,445,292.3
			c97.9-25,189.1-14.8,271,30.5c86.3,47.6,131.4,122.4,134.1,222.3c1.7,63.2,1.3,127.4,1,189.6c-0.1,27.2-0.3,54.4-0.3,81.6
			c0,1.3-0.2,2.6-0.5,4.2l-1.1,7.8H707.6l8.7-11.1c48-61.6,54.5-131.8,49.4-218.3c-0.9-15.4-2.3-28-4.5-39.7c-0.4-2-1.4-5.2-3.1-8.5
			c-0.6,1.6-1.1,3.1-1.4,4.1c-0.5,1.5-0.9,2.7-1.3,3.7c-18.6,49-45.1,93.3-78.7,131.8c-8.2,9.4-18.6,18.5-32.6,28.5
			c-8.5,6-14.6,4.1-17.4,2.5c-2.9-1.7-7.6-6.2-6.4-16.9c1.2-11.2,3.6-23.2,7.5-37.6l2.7-9.8c8.8-32.2,17.9-65.6,19.1-99.5
			c2.4-67.4-23.4-126-76.6-174.1c-21-19-45.4-29.5-72.5-31.1c-2.9-0.1-6.1,0.5-7.7,1.3c0.4,1.5,1.4,4.3,3.3,7.8
			c3.5,6.4,7.3,12.6,11.1,18.9c5.9,9.8,12,19.9,17.1,30.5c10.3,21.4,5.6,42.1-13.2,58.2c-9.9,8.5-20,16.8-30,25l-3.2,2.6
			c-39.3,32.4-57,76.5-54.1,134.8c0.3,5.9,0.2,11.9,0.1,18.2c0,3.1-0.1,6.4-0.1,9.9v9.4c2.9-2.2,4.7-6.4,4.9-12
			c0.3-8.2,0-16.8-0.2-25c-0.2-8.5-0.5-17.3-0.2-26c1.4-42.3,18.6-77.6,51-104.9c4.3-3.6,8.6-7.1,12.9-10.6
			c6.4-5.2,13-10.6,19.3-16.1c23.3-20.7,27.7-39.8,15.5-68.4c-3.6-8.4-8-16.5-12.7-25.1c-2.2-4-4.5-8.1-6.7-12.3l-6.8-12.9l14.3,3
			c21.6,4.6,40.8,14.5,57,29.7c58.2,54.5,82,119.3,70.8,192.5c-3.3,21.3-8.7,42.4-14,62.9c-2.7,10.4-5.4,20.9-7.8,31.4l-0.4,1.9
			c-2.1,8.9-4.2,18.2-4.8,27c-0.6,9.9,2.4,17.6,8.2,21.1c5.5,3.4,13.3,2.5,21.3-2.3c11.2-6.8,22.5-16.4,32.7-27.9
			c12.3-13.8,24.4-29.8,37.1-48.9c7.8-11.8,15-24.5,21.9-36.8c3.1-5.5,6.2-11,9.4-16.5l1.7-2.9l13.6-1.8v7.8
			c0,8.6,0.1,17.1,0.3,25.7c0.3,19,0.6,38.7-0.6,58.1c-2.9,45.5-14.7,84.1-36.3,118C710.9,820.1,693.9,829.8,668.6,829.8z
			 M551,814.8c38.4,0,77.1,0.3,115.4,1.2c22,0.6,34.9-6.5,47.2-25.9c20.3-31.9,31.4-68.3,34.2-111.4c1.2-18.8,0.9-38.2,0.6-57
			c0-1.4,0-2.9-0.1-4.3c-6.8,12-13.8,24.4-21.6,36.1c-13,19.6-25.5,36-38.2,50.4c-11.1,12.5-23.4,23-35.8,30.5
			c-12.5,7.6-25.5,8.4-35.6,2.3c-10.4-6.3-15.8-18.6-14.9-33.8c0.6-10,2.9-19.8,5.1-29.3l0.4-1.9c2.4-10.6,5.2-21.2,7.9-31.7
			c5.2-20.1,10.6-40.9,13.7-61.5c10.5-68.5-11.9-129.2-66.6-180.4c-10.4-9.7-22.1-17-35.1-21.9c4.4,8.1,8.6,15.8,12.1,24.1
			c14.6,34.2,8.9,59.3-19.1,84.1c-6.5,5.7-13.2,11.2-19.7,16.5c-4.3,3.5-8.5,6.9-12.7,10.4c-29.3,24.7-44.8,56.6-46.1,94.8
			c-0.3,8.3-0.1,16.9,0.2,25.1c0.2,8.4,0.5,17.2,0.2,25.8c-0.4,11.1-5.1,19.9-13,24.2s-17.9,3.4-27.4-2.3
			c-7.5-4.5-15-10.8-22.2-18.5c-17.1-18.4-29.9-39.2-38.1-62.1c-10.4,21.7-14.4,45.6-11.7,71.3c5.3,50.9,26,96.4,63.3,139.4
			c4.1,4.7,7.8,6.4,14.1,6.4h0.1c18-0.1,36-0.2,54-0.3C491.1,815,521,814.8,551,814.8z M242.9,814.6h113.8c-1.6-2.1-3.1-4.1-4.5-6.1
			c-42.4-59.8-59.6-117.9-52.6-177.6c3-25.7,12.8-61.3,42.4-85.2c4.5-3.6,13.3-7,18.1-8.3l7-2l1.6,7.2c1.2,5.4,1.4,13.4,1,18.1
			c-0.7,8.9-0.8,16.4,1.5,24c6.8,22.6,19.9,43.3,38.9,61.4c0.1,0.1,0.2,0.1,0.2,0.2c0.1-5.1,0.1-9.7-0.2-14.2
			c-3.2-63,16.2-110.7,59.1-146.1l3.2-2.6c10-8.2,20-16.5,29.8-24.9c14-12,17.3-26,9.7-41.7c-4.8-10-10.8-19.8-16.5-29.3
			c-3.9-6.4-7.8-12.8-11.4-19.4c-8-14.6-4.7-19.9-3.6-21.6c4.1-6.5,14.7-8.3,20.9-7.9c30.3,1.8,57.5,13.5,80.9,34.6
			c56.4,50.9,83.7,113.1,81.1,184.8c-1.3,35.5-10.6,69.7-19.6,102.7l-2.7,9.8c-3.7,13.7-6,25-7.1,35.5c-0.1,1.3-0.1,2.3,0,3
			c0.5-0.2,1.3-0.6,2.2-1.3c13.1-9.3,22.7-17.7,30.2-26.3c32.5-37.3,58.1-80.2,76.1-127.7c0.3-0.8,0.7-1.9,1.1-3.2
			c2.6-7.6,5-14.2,8.6-17.8l4.9-4.9l4.9,4.9c8.1,8.1,12,19.3,12.8,24.1c2.2,12.2,3.7,25.4,4.7,41.3c5,84.5-0.8,154.3-44.1,216.5H837
			c0-26.6,0.1-53.3,0.3-79.9c0.3-62,0.7-126.2-1-189.1C833.8,451,791,380.1,709.3,335c-78.7-43.5-166.5-53.3-261-29.2
			C315,339.7,240,436.6,242.6,571.5c1.1,54.2,0.8,109.3,0.5,162.7c-0.1,24.5-0.2,48.9-0.2,73.4L242.9,814.6L242.9,814.6z
			 M492.5,352.3L492.5,352.3L492.5,352.3z M982.5,828.6H856v-179h126.5V828.6z M869.8,814.9h98.9V663.3h-98.9V814.9z M224.1,828.1
			H97.4V649.7h126.7V828.1z M111.2,814.3h99.2V663.4h-99.2V814.3z M982.7,644.2H855.1v-12c0-3.6,0-7.1,0-10.6
			c-0.1-7.8-0.2-15.8-0.2-23.9c-0.2-36.2-0.5-73.5-5.8-105.3c-0.9-6.9-0.8-11.4,0.1-15.7c1.6-7.7,7-10.5,12.7-13.5l2.3-1.2
			c20.2-10.7,39.6-22.1,60.1-34.2c8.3-4.9,16.7-9.8,25.3-14.7l7-4l2.9,7.5c25.6,67.1,24.7,136.5,23.8,203.6L982.7,644.2z
			 M868.9,630.4h100.3l0.1-10.3c0.9-66.2,1.8-128.8-20.1-190.9c-6.1,3.5-12.1,7.1-18.1,10.6c-20.7,12.1-40.2,23.5-60.6,34.4
			l-2.4,1.2c-5.3,2.7-5.3,3-5.5,4.1c-0.6,2.7-0.5,5.8,0.1,10.9c5.4,32.6,5.7,70.5,5.9,107.2c0.1,8.1,0.1,16,0.2,23.8
			C868.9,624.3,868.9,627.3,868.9,630.4z M224.9,643.9H99.3l-1-5.7c-10.2-58.8,2.9-181,23.8-221.6l3.3-6.4l24.4,14.1
			c25.9,14.9,51.8,29.8,77.6,45c4.7,2.8,7.9,10.4,6.5,15.6c-9.4,35.9-9.2,73.5-9,109.9c0.1,8.2,0.1,16.4,0.1,24.7
			c0,3.7,0,7.5,0,11.4L224.9,643.9z M110.9,630.1h100.2c0-3.8,0-7.3,0-10.9c0.1-8.2,0-16.3-0.1-24.5c-0.2-37.1-0.5-75.4,9.3-112.9
			c-0.1-0.4-0.3-0.8-0.5-1.1c-25.6-15-51.2-29.8-77-44.6l-11.6-6.7C114.1,471.6,103.4,575.6,110.9,630.1z M220.4,482.2L220.4,482.2
			L220.4,482.2z M219.7,480.6L219.7,480.6L219.7,480.6z M238.1,470.2L125,405l2.4-5.6c31.4-74.8,82-133.8,154.7-180.3l6.1-3.9
			l64.2,111.2L347,330c-51.1,33.6-85.8,77-106,132.5L238.1,470.2z M142.5,399.1l88.4,51c20.9-52.8,54.7-94.9,103.1-128.1l-50.5-87.5
			C218.2,277.8,172,331.7,142.5,399.1z M847.3,467.1l-3.5-5.8c-2.2-3.7-4.4-7.5-6.5-11.2c-2.4-4.2-4.8-8.5-7.2-12.7
			c-10.2-18.1-19.7-35.2-31.9-50.5c-12.1-15.3-26.7-28.7-42.2-42.9c-7-6.4-14.1-12.9-21.1-19.8l-3.8-3.7l61.6-106.8l6.1,3.9
			c72.3,46,122.9,105.4,154.5,181.5l2.3,5.6L847.3,467.1z M748.3,318.1c5.7,5.4,11.4,10.6,17,15.8c15.9,14.6,30.9,28.3,43.7,44.5
			s23.1,34.6,33.1,52.3c2.4,4.2,4.7,8.4,7.1,12.6c1,1.7,2,3.4,3,5.1l86-49.6c-29.7-68.7-75.9-123-140.8-165.7L748.3,318.1z
			 M356.1,324.2L291.9,213l6-3.4c69.5-39.3,145.4-59.7,231.9-62.4l7.1-0.2v128.1l-6.6,0.3C467,278.1,411.9,293,362,320.9
			L356.1,324.2z M310.8,218.2l50.4,87.3c48.5-25.9,101.6-40.3,162-43.7V161.2C444.4,164.6,374.8,183.3,310.8,218.2z M725,322.4
			l-5.9-3.3c-50.2-27.7-105.7-42.1-169.7-43.9l-6.7-0.2V147l7,0.1c86.1,1.5,162.3,21.4,233.1,60.9l6.1,3.4L725,322.4z M556.5,261.7
			c60.9,2.6,114.5,16.4,163.3,42.2l50.2-87.1c-65.1-35.1-135.1-53.3-213.5-55.6V261.7z"/>
	</g>
</g>
</svg>
