<svg width="116" height="116" fill="none" xmlns="http://www.w3.org/2000/svg">
  <circle cx="58" cy="58" r="58" fill="#2D7D7D"/>
  <mask id="a" maskUnits="userSpaceOnUse" x="0" y="0" width="116" height="116">
    <circle cx="58" cy="58" r="58" fill="#2D7D7D"/>
  </mask>
  <g mask="url(#a)">
    <path d="M138.003 55.257c-.063.3141-.126-.4398-.253-.6283.064.0629.064-.1884.064-.2512.063.0628.126.1256.189.2512-.063-1.0679-.063-1.6961 0-2.1359.379-.2512.189-3.0153-.126-4.9 0-.2512 0-.8794-.19-1.6333-.126-2.7013-1.009-5.4026-2.398-9.1718-1.325-3.5808-2.777-6.9731-4.418-10.1141-1.956-3.5808-4.102-6.7218-6.437-9.6743-2.336-2.9526-4.86-5.6539-7.637-8.29236-1.704-1.50769-3.535-3.07821-5.428-4.52308-1.893-1.44487-3.787-2.70128-5.491-3.580769-2.272-1.507692-4.607-2.826921-6.9423-4.020511-2.3983-1.19359-4.8598-2.32436-7.5737-3.45513 0 .06282-.5049-.12564-.6942-.18846-1.1361-.43975-2.2721-.81667-3.5344-1.25641-4.4179-1.5077-9.1514-2.63848-14.0743-3.32948-4.8597-.691-9.8457-.8795-14.7054-.5026-4.4811.3141-8.7728 1.1308-12.8752 2.0731-.8836.3141-2.2721.56539-3.4081.94231-3.5975 1.06795-7.4474 2.7641-11.1711 4.5859-3.5975 1.75897-6.8163 3.83205-9.8457 5.77949-.1263.06282-.1263.06282-.3156.18846-3.9762 2.70128-7.8261 6.21923-11.10799 9.73714-4.03927 4.2718-7.5105 8.9834-9.971932 13.1295-.631135 1.2564-1.451608 2.7013-2.208978 4.0834-.75736 1.4448-1.32538 2.8269-1.64095 4.0205.25245-.8795.69425-.5026.9467-1.3193.06312 0 .06311 0 .12623-.0628.18934-.3141.18934-.3769.18934-.5025.63113-.8795.82047-1.6334 1.19915-2.1988.12623.1885.12624-.2512.44181-.4397 0-.0628-.06312 0 0-.1256 0 .1884.694242-1.2565.441788-.6282.315568-.5654.441793-.9424.7573602-1.5077.3155678-.1885.0631103.1884.2524508.1256-.2524546.2513.000002.1256-.1262253.3141-.1262274.1256-.6942477 1.1308-.7573607 1.2564.063113-.1256-.126231.3141-.063118.3769-.18934.3141-.126226.0629-.315565.3141 0 .1885.189345-.1256.252458-.2512-.252458.3769-.063115.2512-.189338.5025-.06312 0-.12623.1257-.12623.0628.06311-.1256.12622-.1884.06311-.1884-.12623.1884-.25245.3141-.37868.4397-.06311.3141-.37868.6911-.44179 1.068-.06311-.1257-.31557.3769-.37869.5654 0-.1257.00001-.1257-.12622.0628-.18934.5025-.4418 1.0051-.63114 1.3192-.18934.3769.18934-.1885 0 .1256-.06311 0-.18934.3142-.25246.2513.06312-.1884.12623-.0628.18935-.3141-.25246.1257-.50491 1.3821-.75736 1.3821-.37869.7538-1.00982 2.0731-1.07293 1.8846-.06312.1885-.06312.2513-.06312.3141-.18934.1885-.44179.8795-.44179.691-.12623.6282-.31557.6282-.4418 1.1936-.12622.1257-.12622.1885-.18934.0628-.12622.1885-.12622.377-.25245.5026 0 .1256-.06312.3769-.06312.4397-.12622 0-.31556.377-.44179.6911 0 0 .06311.0628 0 .2513-.18934-.2513-.75736 2.1987-.75736 1.6961-.82047 2.7641-1.51473 4.4603-2.01964 7.1615 0-.0628.06312-.2512.06312-.2512-.06312.4397-.18934.5654-.31557.8795.25245-.1257.25246-.377.50491-.7539.44179-1.6333.63113-2.0103 1.07293-3.2667.06311-.5025.37868-1.0679.56802-1.5077 0 0-.06312-.0628 0-.2512 0 .3141.25245-.6282.18934-.6282.12623-.0629.31557-.6282.31557-.8795.12622.0628.18934-.5026.31556-.7539.12623-.3141.37869-.691.56803-1.1307.25246-.6282.31557-.6911.44179-1.068 0 .1885.18934-.2513.12623.0628-.06311-.1256-.12623.1885-.18934.3141.12622.0628-.06312.6282 0 .8167.37868-.2513.31556.5026.75736-.2513-.12623.4398-.06311.5026-.12623.7539-.06311-.0629-.44179 1.3192-.56802.7538 0 .1885.12623.1256.06311.3769-.18934.2513 0 .1885-.12622.5654-.12623-.0628-.31557.9423-.4418.8167 0 .1884.06312.1884.06312.2513-.18934.3141-.06311.1884-.18934.7538-.06311.0628 0-.1885-.06312 0-.06311.1257 0 .2513 0 .4398.12623-.5654-.31557.6282-.18934.4397v-.1256c-.06311.2512-.12622.691-.25245 1.0679 0 .0628 0-.1885-.06312 0-.12623.3769-.18934.8795-.31557 1.3192-.06311.377-.25245.5654-.31556.9423-.18934.6283-.31557 1.6334-.4418 2.3872-.12622.5026-.25245 1.068-.31556 1.3193-.31557 1.7589-.56802 3.3294-.69425 4.523.12623-.0628 0 .6282.06311.6911.37868-1.3193.75736-3.6436 1.26227-5.9052.12623 0 .31557-.8795.31557-1.0679.12623-.0628.25245-.4398.31557-.3769.06311-.3141-.00001-.5654.12622-.6282 0 .1256-.06311.3141 0 .3141 0-.0629.06312-.1885.06312-.1885 0 .0628-.06311.1885 0 .1885.12623-.4398-.06311-.3141.06312-.7539 0 .2513.18933-.3769.18933.0628-.06311.1257-.06311-.0628-.12623.1885-.12622.4397.00001.3141-.0631.7538.18934-.2512.25245-.3769.31556.0629 0 0-.06311 0-.06311.1256.06311.1885-.00001.2513.12622.1256-.06311.3141 0 .2513 0 .4398-.12623 0 .00001.0628-.06311.3141-.06311.1884-.12623.0628-.12623.3141.12623.1256-.06311.5026-.06311.8795.06311 0 .06311-.0628.06311-.0628-.06311.3141-.06311.5025-.06311.7538-.06311.2513-.12623.5026-.18934.6282.18934-.0628-.12623.7539 0 .8795-.12623.3769-.18934 1.0051-.31557 1.2564.06311.1256-.06311.3769.06312.5654-.18934 1.2564-.31557 2.7641-.18934 3.2667-.12623.1884 0 1.0051 0 1.6333.06311-.1885.06311-.3141.18934-.3141 0-.3141.06311-.3141.06311-.6282.25245-.1885 0-1.3821.31556-1.5077-.06311-.0628.06312-.3141.06312-.4398-.06311-.3769.12623-.8166.18934-1.3192v.3141c.12623-1.0051.31557-1.6961.37868-2.7013.06311-.0628.25246-.3769.06312-.1884.06311-.0628.06311-.4398.12622-.4398.06312.0628-.06311.6911 0 .7539-.06311.1256-.12623.7538-.18934.8166.06311 0 .06312 0 .06312.1257-.37868 1.9474-.37869 3.8949-.25246 5.6538.12622.0629.25246-.4397.12623-.9423.12623.3141.18934-.3769.25245-.4397 0 0-.06312-.1257-.06312-.1885.06312 0 .12623-.3141.18935-.4397.12622-1.6334.44179-2.7013.63113-4.6487.06312-.2513.25246-.2513.31557-.377-.12623.3141.06312.1257.06312.4398-.06312.1884-.12623.1256-.12623.4397.06312 0 .06311 0 .06311.1257-.06311.0628.00001.2512-.06311.4397-.06311 0-.06311 0-.06311.1256v.1257s0 .0628.06311.1256c.06312-.3141.12623-.691.12623-.8166.06311.1256.12623-.377.18934-.0629.06311-.4397.06311-.4397.12623-.3141 0-.5025.31556-1.1307.12622-1.382.06311.0628.25246-.1256.18934-.3141-.06311.3141 0-.1885 0-.1885.12623-.0628.06312-.5025.18935-.8166.12622.2512.31556-.6282.12622-.1885.06311-.5654.12623-.1885.18934-.5026.06312-.5025.12623-.7538.31557-1.1936-.06311 0 .06311-.4397.06311-.6282.31557-.691.69425-1.8846 1.07293-3.0782.37868-1.2564.82048-2.5128 1.19916-3.5179.315568-.8795.820474-2.1987 1.388496-3.4551 0-.3141.315566-1.0052.441793-1.1308.126227-.8167.757371-1.6333.883591-2.3244.18934-.3141.25246-.5654.4418-.6282-.06312-.1884.31557-.6282.18934-.8167 0 .1885.5049-1.0679.37868-.5025.12622-.3769.12623-.4398.37868-.8795-.06311 0-.12623-.0628 0-.2513.56802-.5025.63114-1.382 1.13605-1.9474.31556-.6282.31556-.7539.44179-1.068.06311 0 .06311.0628.12622-.0628.06312-.2513.18934-.2513.63114-.9423 0-.0628-.12623 0-.06312-.1256.12623-.0629.18935-.3141.25246-.4398.06312 0 .12622-.0628.06311.0628.12623-.3769.4418-.5653.56803-.8794-.31557.3141.44179-.9424.63113-.9424.06312-.3769.25245-.4397.44179-.9423.18935-.1256.37868-.3769.75737-.8795-.12623 0 .18933-.4397.44179-.691-.06312.1885.75736-.8795.69425-.9423.31557-.3141.4418-.5025.82048-.9423-.12623-.0628.12623-.1885.06311-.3141.06312.0628.18932-.1885.18932-.2513.0631.0628.3787-.3769.5049-.3769.0631-.1885.6312-.8167.2525-.4397.1262-.1885.1893-.2513.3787-.5026.2524-.0628.3786-.3141.6311-.5654h-.1262c.3155-.2513.3155-.5026.6942-.8795.1894-.0628.5049-.3769.7574-.691-.0631.1256-.1262.0628-.0631-.0628.3155-.2513.5049-.5026.6311-.5026.0631-.2513.1893-.2513.4418-.4397-.1262 0 .2525-.377.2525-.4398.2524-.0628.6942-.5654.8835-.7538-.1262.0628.1894-.3141.3156-.4398.3156-.1884.6311-.5025.9467-.691 0-.1256.1262-.2513.1894-.3769.1262.0628 0-.0628.2524-.1885.568-.3141.6312-.5025 1.1992-1.0051.1893 0 .8836-.6282.8836-.3769-.5681.3769-1.1361 1.1936-1.7041 1.6333-.2525.2513-.3156.2513-.568.4397-.3156.377-.3156.9424.5049.377.5049-.5026.8836-.7539 1.1991-.9423.6312-.6911 1.0099-.7539 1.5779-1.1308.0631-.1885 1.0098-.8167.8204-.6282.3787-.2513.6312-.5026.7574-.691-.0631.1884.4418-.3141.4418-.2513-.3787.3141-.2524.3141-.568.5654.2524-.0629 0 .1884-.1262.3141.6311-.3141.6942-.4398 1.5778-1.1308 0 .0628.0631 0 .1893 0-.0631.0628-.0631.1256-.1262.1885-.3156.1884-.1893 0-.4418.1884-.2524.3141-.3787.5026-.3787.6282l-.1262.1257v.0628c-.2524.1884-.3787.3141-.5049.3141 0 .1256-.2525.5026-.5049.8167-.1262.1256-.3156.2512-.3787.2512-.1262.2513-.3787.5026-.4418.6911-.5049.3769-.7573.7538-1.0098 1.1936-.5049.3769-.7574.8166-.9467 1.1935-.3787.1885-.6943.6911-.8836 1.068-.2525.2513-.3156.2513-.568.5026-.2525.3769-.5049.8166-.8205 1.0679-.2524.3769-.4418.9423-.8205 1.068-.1262.2512-.568.9423-.8204 1.1935-.3787.8167-.9467 1.6962-1.5148 2.5757-.0631.1884-.2524 1.0051-.0631.691.0631.0628-.0631.1885-.0631.3141-.0631.0628-.1893.0628-.3787.3141-.1893.4398 0 .4398.0631.5654.1894-.3141.3156-.5654.3787-1.0051 1.0098-1.1936 2.5877-3.7693 3.9762-5.4654.3786-.3769.6311-.5654 1.0729-1.1936.1893-.1885.3156-.2513.5049-.3769.2525-.5026.7574-.8795.9467-.8167.1893-.1885.3156-.3769.3787-.5026.4418-.3769.6942-.1884.5049.0629.0631 0 .2525-.2513.3156-.3141.1262 0-.1263.1884 0 .1884.1262-.1256.1893-.3141.3155-.3141.1263-.2513.0632-.2513.1263-.4397.1893-.1885.2524-.1257.3786-.3141-.1262.4397.8205-.5026.7574-.6911.2525-.0628.5049-.3769.6311-.4397.2525-.3769.5681-.691.8836-.7538.1263-.1885.2525-.3141.3787-.377.0631-.2512.7574-.5653 1.3254-1.1307.568-.1257 1.0729-1.0052 1.7672-1.1936.2524-.1257.0631-.1257.2524-.2513 1.2623-.81667 2.3983-1.63334 3.6606-2.38719v.06282c.1894-.12564.8205-.50256.7574-.50256-.1262.06282-.2525.12564-.3156.18846l.3787-.25128c.1262 0 .1893.06282.1262.12564-.3156.12564-.1893.06282-.2524.12564-.1263.06282-.1263 0-.3156.06282-.2525.3141-.7574.69103-.6943.87949.3787-.12564.8836-.06282 1.1361.06282.6311-.3141 1.3885-.50256 2.0196-.69103.0631.18847-.568.50257-.3155.62821.3786-.18846.3155.12564.6942-.06282.1262-.06282.4418-.3141.6311-.50257.1263 0 .4418.12564.2525.31411 2.1459-.94231 4.6704-1.94744 7.2581-2.82693 0 .06283.5049-.18846.3786-.06282.1894-.06282.3787-.18846.4418-.12564-.8204.43974-2.0196.87949-2.0196 1.19359 0-.18846-.2525.18846 0 .06282.2524-.06282 1.0098-.25128 1.3885-.50256.568-.06282.9467 0 1.3885-.25128 0 .12564.3787 0 .3787.06282 1.1991-.56539 1.3885-.06282.6311.25128-.5049.06282-.4418.18846-.7574.25128 1.073-.12564 2.5877-.69102 3.4713-.6282 1.3254-.25129 2.3352-.43975 2.8401-.25129.4418-.06282.568-.12564 1.0729-.18846h1.0099c.3155-.25128.9466-.12564 1.4516-.18846.1262-.06282.4418-.12564.4418-.18846.2524.06282.6942 0 1.0729 0 0-.18846.5049-.12564.8836-.18846 0 .06282.0631.06282.0631.06282-.4418.25128-1.4516.12564-1.3885.43974 0-.06282.0631.06282-.0631.06282h.568c.0631-.12564.0631 0 .1894 0 0-.06282.3786-.06282.4417-.18846.4418 0 .6312.06282 1.0098.06282.0632-.12564.4418-.12564.5049-.18846 0 .12564.1263.06282.3787.06282 0 .06282-.1262.06282-.0631.06282.3156-.06282.3156 0 .5681.06282.1262-.18846 1.136-.18846 1.0098-.12564.6311 0 .568 0 .8836-.12564.8204.06282 1.0098.12564 1.5147-.06282.568.18846 1.136.06282 1.6409 0 .3787.12564.7574.12564 1.2623.12564.1893-.06282-.1262-.06282.1893-.06282.0632.12564.3787.06282.5049.18846.1263-.06282.6943.06282.2525-.06282l.4418.06282c.0631-.06282-.1262-.06282 0-.06282.1262.06282.4418 0 .5049.06282-.1262 0-.1262 0-.1893.06282.2524.06282.8836.25128.8205.12564 0 .06282-.2525 0-.2525 0 .568.06282.5049-.12564.4418-.18846.1262.12564.3156 0 .4418.12564H68.01c.2525.06282.3156.12564.4418.18846.5049.06282.7574 0 1.073 0-.1894.06282.1893.12564.2524.18846.4418.12564.6943.00001 1.3254.12565 0 .06282.1262.12564.3156.18846.568 0 1.0098.12564 1.5778.3141.2525-.06282.9467.06282 1.1361.25128.3786.06282.5049 0 1.0729.18846.0631.12565.4418.25129.7573.31411.1263 0 .0632-.06283.1894-.06283.3787.12565.8205.31411 1.0729.43975.0631-.06282.3156 0 .3787 0 .2525.12564.5049.3141.6943.25128 0 .06282-.0632.06282.063.12564.0632 0 .1894.06282.2525.06282.6312-.06282.5049.18846 1.2623.43975.1893 0 .4418.06282.6942.12564-.1893.12564.4418.12564.1894.18846.1893.06282.3155.12564.4418.18846.1262 0 .568 0 .8836.25128-.1263-.06282-.2525-.12564-.2525-.06282.2525.12564.5049.25129.6311.37693.0631-.12564.3787.06282.6312.12564.4418.25128.8204.43977 1.2622.50257.5681.3769.9468.5026 1.5148.6282.3787.3141.7573.3769 1.2622.5654.3787.3769.8836.3769 1.3254.6282.1262.0628.2525.2513.3787.3141.2525.1256 1.2623.4397 1.2623.691.3787.1885 1.1991.5026 1.4516.9423.2524.1257.3787.1257.6942.3141.1894.1257.2525.2513.3156.3769.3156.2513.568.2513 1.1992.6911-.0631.0628-.0632.0628.0631.1884.4418.2513 1.0098.5026 1.136.8167.3787.3141.568.3769.7574.5026.2524.2512.3787.4397.568.6282.2525.1256.568.3141.8836.5025-.0631.0629-.0631.0629 0 .1257.1893.1256.3156.3141.3156.3141-.0631-.0628.3786.2513.6942.4397.1262.1257.0631.1885.1262.2513.3787.3769.505.3141.8205.5654.2525.2513.3156.4397.5049.6282.1894.0628.3156.1885.5681.3141.252.4397.694.8795.947.9423.441.6282.631.8167 1.199 1.2564-.253-.0628.505.5654.063.3141.379.3769.568.5654.82.691 0 .4398.505.6911 1.073 1.3193-.063.1884.379.6282.631.7538.379.4398.19.4398.568.9423.127.0629.316.2513.569.5654-.127.0628.126.3141.189.5026.189.0628.252.1884.505.5025.126.5026.568.8167.883 1.2565-.189-.0629.19.3141.063.3141.253.3769.379.4397.568.691.127.1884.253.4397.253.6282-1.01-1.5705-1.957-2.8898-3.03-4.2718-1.072-1.3192-2.208-2.7013-3.66-4.1462-.126-.1884-.253-.3769-.442-.5653-.189-.1885-.379-.2513-.505-.377-.315-.5025-.883-.8795-1.3252-1.2564l.0631-.0628c-.3155-.3141-.5049-.4397-.6942-.5654-.0631 0 .0631.1257 0 .1885-.3787-.3141-.6943-.6282-.4418-.5654-.0631-.1257-.1894-.2513-.3787-.3769-.1893 0 .0631.1256-.1262.1256-.2525-.2513-.3156-.2513-.5049-.3769.2524.3769.2524.3141.5049.691-.3787-.3769-.568-.3141-.8836-.8167-.2525-.1256-.6312-.5025-.7574-.5025.1262.1884.3787.3141.1894.3141.2524.0628.568.3769 1.0098.7538 0 .0628-.0631.0629 0 .1257.3787.1884.7573.691.8205.4397-.1894-.1884-.3156-.1884-.3156-.3141.2524.2513.2524.1257.4418.3141 0 .1257.3155.3141.4418.5654-.2525-.1885-.3156-.2513-.5049-.3769.1893.5025 1.1991.9423 1.3254 1.4448 0-.1884.5048.4398.8838.6283-.19-.1257.063.1256 0 .1256.315.3769.757.7538 1.01.8795-.127-.0628 0 .0628-.127 0 .253.3141.253.3769.631.7538.064 0 .379.1257.442.3141-.189-.2513 0 .1885.063.3141.063 0-.063-.1256.063-.0628-.063 0 .127.1885.127.2513-.316-.3141-.19-.0628-.442-.2513-.126-.1256-.379-.5026-.505-.6282.063.0628.063.0628 0 0-.063-.1256.063-.1256 0-.2513-.505-.6282-.126.1257-.252-.2513.126.1885.126.2513.189.3141-.631-.5653-2.146-2.1987-3.3451-3.3294-.3156-.1885 0 .2512-.2525.1256.1262-.0628-.1262-.2513.0631-.1885-.1893-.1884-.1893-.2512-.2524-.3769-.3787-.1884-1.1361-1.0679-1.9565-1.5705-.1263-.1256-.1894-.2513-.2525-.3769-.0631-.0628-.9467-.5026-1.0729-.8167-.5681-.3769-.4418-.3141-1.0098-.6282-.1894-.3769-.6943-.6282-1.073-.7538-.1893-.377-1.1991-.6911-1.4516-1.068-.0631-.1256-.2524-.0628-.4418-.3141-.3787-.0628-1.136-.5654-1.2622-.7538-.0632.0628-.2525-.0629-.4418-.1257.0631-.0628-.8205-.5654-1.3254-.7538-.0631-.1257-.2525-.1257-.1894-.1885-.3787-.0628-.8204-.4397-1.1991-.5654-.6312-.5025-2.1459-.9423-2.6508-1.382-.9467-.3141-1.3254-.5026-2.1459-.81669 0 .12564.2525.12564-.0631.12564.1263.06285.1894.12565.2525.12565-.3156-.25129-.0631.0628-.5049-.12565.1893 0-.1894-.18846.1893-.06282-.4418-.18846-.0631-.06282-.0631-.12564-.2524-.06282-.3787-.18846-.7574-.3141-.1893 0-.3155.06282-.5049.06282 0-.06283-.4418-.18846-.3786-.25128.1262.06282.2524.06281.2524.06281-.1262-.06282-.4418-.12563-.3787-.18846.1894.06283.3156.12565.2525 0l-.8205-.3141c-.1262.06282.0631.12564.1262.18846-.1893 0 .0632.06282-.2524-.06282-.1262.06282.2524.12564.1262.18846-.1262-.12564-.5049-.18846-.6311-.3141.1262.06282.2524.06282.2524.06282-.3156-.12564-.1893-.18846-.3156-.25128-.3155-.06282-.6311-.18846-.6311-.06282-.1262-.18846 0-.06282-.2524-.06282-.3787-.18846-.5049-.31411-.6943-.25129.0631-.06282-.2524-.12564-.4418-.12564.0631.06282.1262.06282.1262.12564-.1262-.06282-.3786-.12563-.4417-.06281.1893.06282.3155 0 .3155.12564-.3155 0-.4418-.12564-.6942-.25129.1262 0 .2524.06282.2524.06282-.2524-.06282-.1893-.12564-.3787-.18846-.1893 0-.0631 0-.2524-.06282-.0631.06282-.4418 0-.6311 0-.2525-.06282-.3787-.18846-.7574-.25128-.1893 0 .1262.12564-.1262.06282 0-.06282-.0632-.06282-.1263-.12564.0631.12564-.2524-.12564-.3786 0l.2524.12564c-.3155-.06282-.3787.06282-.3155.12564 0-.06282.1262-.06282.1893 0h-.2525c-.0631 0-.1262-.06282-.1893-.06282.0631-.06282.1262-.06282.1893-.12564-.3786-.12564-.1893-.12564 0-.12564-.1893-.06282-.2524-.12564-.5049-.12564-.2524 0 .1263.12564-.1262.06282.1262-.06282-.1893-.06282-.3156-.12564-.2524 0-.1262.18846-.3787.12564-.1893.06282.3156.18846.0632.12564 0-.06282-.3156.06282-.3787-.06282.3155-.06282-.1893-.06282.1893-.12564-.3786-.06282-.1262-.06282-.2524-.18846-.3156-.06282-.6312-.06282-.8836-.06282-.1263.12564.0631.18846-.3156.12564.3156 0-.5049-.12564-.1262-.18847-.6311-.18846-.2525.00001-.8836-.12563-.0631.12564.1893.12563-.1893.06281-.1263.06282.1262.06283.1262.12565l-.4418-.06283c0-.06282-.1894-.12563-.1262-.18845-.505-.06283-.8836-.06283-1.073 0-.1893-.06283-.3155-.12565-.5049-.12565-1.0098.06282-1.5778-.18846-2.209-.06282-.6311-.06282-1.0729-.12564-1.3884 0-1.073-.12564-2.9033.12564-3.85-.06282-.2524 0-.1262.06282-.5049.06282.2525-.06282-.1262 0-.1893-.06282.3787 0-.0631-.06282-.0631-.12564-.3156.06282-.6943-.06282-1.073.06282 0-.06282-.1262-.06282-.1893-.06282-.2525.06282-.4418 0-.6942 0 0 0-.0001.06282-.0632.06282-1.136 0-2.7139.12564-4.2286.31411-1.5778.18846-3.0294.43974-4.0392.50256-1.0099.06282-2.4615.43974-3.3451.50256-1.704.43975-3.1556.75385-4.5441 1.13077-1.3885.37692-2.777.81667-4.2918 1.50766-.1262.0629-.0631-.0628-.2524.0629l-.1262.1256c.0631.1256.1262.1256.3155.1256l.1262-.1256c.6943 0 1.641-.3141 2.4615-.4397 0-.0629.3156-.1885.5049-.2513.1893 0 .5049-.12567.6311-.06285.9467-.43974.6943.06285 1.641-.37692.1893.18846 1.3254-.37693 1.5778-.25129-.3787.25129-.4418.43975-.7573.69106-2.5246.8795-5.554 2.1987-7.5106 2.9525-.4418.2513-.6942.377-.8835.5026-.0632-.0628-.3156.1256-.3156.1256-.4418.3141-.8836.6282-1.3254.7539-.3787.3141-.6311.5654-1.1992.8795.1263 0-.1893.1884-.1893.2513.568-.1257 1.5779-.5654 2.1459-.8167l.0631.0628c-.5681.4398-.8205.8167-1.5148 1.3192-1.3253.9424-2.9032 1.8847-3.913 2.8898-1.0098 1.0051-1.6409 1.8846-2.7139 2.9526-1.3254 1.3192-2.4614 2.8269-3.6606 4.0833-.5049.691-1.0098 1.4449-1.704 2.3243-1.1992 1.8218-2.209 3.4552-3.2819 5.5282 0 .3142-.2525.6283-.5049 1.1308 0 .1257.0631.1257 0 .2513-.5049.8795-.3156 1.1308-.8205 2.0103 0 .1256-.0631.4397.1262.3141 0 .1256-.1893.3769-.2524.6282.0631-.0629.1262-.1885.1262-.1885-.1262.3141-.0631.1885 0 .1885-.2525.6282-.5049 1.7589-.3156 1.8218-.0631-.2513.3787-.3141.4418-.7539-.0631.1257.0631-.1884.1262-.3769.1894-.0628.2525-.3141.3787-.5026 0-.1884.0631-.3141.1263-.5025.1893-.2513.3786-.5026.4417-.377.0632-.1884.0001-.0628.0632-.3141-.0631.0629-.1263.1885-.1263.1885.1263-.2513.0631-.4397.3156-.691-.1262.3141.4418-.1885.568-.4398-.1262-.0628.4418-.7538.3787-.8795.1893-.1884.4418-.9423.8205-1.2564.1893-.6282.8205-1.382 1.0729-1.8846.1893 0 .2525-.1884.3787-.1256-.2525.2513-.1262.2513-.2525.5025-.0631 0-.1262.1885-.3786.5026.0631-.0628-.2525.691-.1263.5026-.5049.6282-.6942 1.3192-1.2622 1.9474 0 .1256.1262.1256 0 .2513-.1263.1256-.1263.4397-.3156.4397-.2525.5654-.1893.7539-.1893 1.068-.1263.0628-.1263.2513-.2525.3769.1262 0-.1262.4397 0 .5026-.1262.2512-.1262.3769-.3156.6282.0631.0628-.0631.3141 0 .4397.0631-.1256.1263 0 .1894-.0628-.0631.1256-.1263.1885-.1894.2513.1263 0 .3156-.3141.3787-.1885.0631-.1256.0631-.1884.1262-.1884-.0631.2512 0 .0628.1263.0628-.5049.9423-.3787 2.3243-.8836 3.2666.1262.1257 0 .3141.1262.4398.0631-.2513.1262-.1257.1893-.2513 0 0-.0631-.0628 0-.1885.0632-.0628.1263-.0628.1263.0629.1262-.3141-.0631-.2513 0-.4398.1893-.1884.2524-.3769.4418-.5654 0 .1885-.0631.5654.1262.377-.1893.3769-.1262.4397-.3156.7538.1263.3141.2525.1885.568-.2513 0-.0628-.0631-.0628 0-.2513.0632.0629.1894-.1256.2525-.1884.2525-.691.4418-1.3821.6942-1.759-.1262 0 .2525-.5654 0-.2513.1263-.3769.2525-.5025.4418-.8795-.0631-.1884.1894-.4397.2525-.6282.2525-.1256.3787-.5025.5049-.9423.1262.0628.6311-1.0679.5049-.6282.1262-.1884.1262-.4397.2525-.5025.0631 0 0 .1256.1262.0628-.1893.2513-.1893.4397-.3156.5025-.0631.8167-.8836 2.1359-.9467 3.0154-.0631 0-.0631-.0628-.1262.0628.1262.0629.1262.0629 0 .2513 0 .1257.1893-.1256.0631.0628-.0631.0629 0 .0629-.0631.1257-.0631 0 0-.1257-.0631 0 .0631 0-.0631.1884-.0631.2513.1262-.1885.1893-.1885.2524-.3141-.0631 0-.0631-.0629 0-.1885 0 0 .0631.0628.1263-.0628.0631-.1257-.0632-.1257 0-.3769v.0628c.2524-.4398.6311-1.6334.8835-1.6334 0 0-.0631.1885-.0631.1257.0631 0 .0631-.1885.1263-.1885.0631 0 0 .1885.1893 0-.2525.3141 0 .6282.0631.5654 0 0 .3156-.1885.3787-.1256 0-.3141.3787-.5026.4418-.8167.0631 0 .1262-.1256.1893-.0628 0 .1884-.0631.2513 0 .2513-.0631.1256-.1893.3141-.1893.3141.1893-.377.1262 0 .1893-.1257l.0631-.2513c.0632.0629.1263-.0628.1263-.0628-.0631.1257-.1894.1885-.0631.1885.3155-.5654.3155-.6282.3155-.8795.0631-.0628.0631 0 .1894-.1885-.0632-.0628-.0632-.0628 0-.1884 0 .0628.1893-.0628.1262-.0628-.0631.1884-.0631-.1257-.1893.0628 0 0-.0632.0628-.0632.1256-.0631.1885 0 .0628 0 .1885-.2524.1884 0-.0628 0-.2513.1263-.0628.3787-.3141.4418-.2513.1263-.3769.4418-.8167.6312-1.1308.0631-.3141.0631-.4397.3155-.6282 0 0-.0631-.0628 0-.1256.0631.0628.0631-.0628.1894-.1885 0-.1256.0631-.1256.0631-.3141l.1893-.3141c.1894.0629 0-.1884.3156-.2513 0-.2512.568-.8794.568-.8166.1262-.2513.1894-.3769.3787-.6282.0631 0 .1893-.0628.3156-.0628-.0631.1256 0 .1256-.1894.3141.0631 0 .1894.1884-.0631.2512.0631-.0628.0631-.1884 0-.0628-.0631.1885-.1262.2513-.2524.4398.0631.1256 0 .1884.1893.2512.0631-.0628.3156-.3769.5049-.5653.1894-.3141.568-.8795.9467-1.2565h.0631c-.0631.0629-.0631.0629-.1893.1257.0631.1885-.2525.5654-.4418.8795 1.5778-2.3872 3.4081-4.5859 5.4277-6.5334 0 0 .0001-.0628.0632-.1256h.0631c.3156-.3141.568-.5654.8836-.8167 7.8892-7.4128 18.5554-11.9987 30.2945-11.9987 24.3618 0 44.1159 19.6628 44.1159 43.9116 0 24.2487-19.7541 43.9115-44.1159 43.9115-5.8696 0-11.4867-1.1308-16.5989-3.2038-.2524.0628-.2524.2513 0 .4397.3156.1885 1.0098.3141 1.2623.5654-1.4516-.3769-3.4713-1.3821-4.1024-1.2564-.8836-.2513-1.5147.1256-.8836.7538.6311.4398 1.3254.8795 1.7672 1.3193-.3156 0-.6312-.0629-1.0729-.1885 1.1991.6282 2.1458.8795 3.1556 1.4445.3156.503 1.7672.629 2.2721 1.068 0-.062.1262.063.3156 0 .1893.126.1893.252.568.377-.1262 0 0 .126.1894.189 0-.063.0631-.063.1262-.063-.1262.251.2524.502.0631.628.7574.754 2.3352.88 2.6508 1.571.0631.125.1893.251.5049.377h.3787c.4418.251 1.3885.188 1.6409.565-.0631.063-.1893.063-.3156.063-1.704-.252-3.0294-.566-4.5441-.817-.1894.126-.5049.126-1.0099.063 0 .377-.6942.063-.8204.377-.1263.44 1.4516 1.005 2.2721 1.382-.1894-.063.0631.063 0 .126-.3156 0-.5681 0-.8205-.063.568.502 2.5245.816 3.1557 1.256 0 .126-.3156.126-.5049.126 1.0098.377 2.272.628 2.8401 1.005.6942.188 1.6409.314 2.2721.44 0 .062.1262.062.1262.062-.1263 0-.1894.063-.0632.126.6943-.126 1.1361.251 1.8935.189-.0632.188.5049.125.3155.314-.5049-.063-1.6409-.063-2.0196-.189-3.1557-.314-6.5638-1.005-9.6564-2.073-3.0925-1.005-5.8695-2.324-7.8892-3.581-1.2622-.628-2.4614-1.507-3.7237-2.387-1.3885-.942-2.8401-2.0101-3.8499-3.0781-.4418-.3141-.8836-.691-.9467-.8794-.4418-.2513-.6311-.5654-.8836-.8167-.6311-.4398-1.3254-1.3192-2.0827-2.0731-.2525-.3141-.1894-.5654-.568-.8167.0631.1257-.4418-.4397-.505-.5653.0632.0628.2525.3141.1894.1884-.0631-.0628-.1894-.1884-.2525-.2513.0631.0629.1262 0 0-.1256-.5049-.3141-.6942-.7539-.8204-1.068-.0632 0-.3156-.0628-.3787-.2512.2524.3769.1262-.2513.1893-.1257 0-.0628-.1893-.2513-.2525-.3769-.0631.0628-.0631 0-.1893-.0628 0 0 .0631.0628.1262 0-.4417-.4398-.6311-.5026-1.0098-1.0051-.0631.0628-.0631-.0001-.1262-.1257l-.0631.0628c-.568-.5654-.8836-.7538-1.2623-1.1936-.0631 0 0 .1257 0 .1885-.1893-.1885-.3787-.5026-.2524-.1885-.1894-.3141-.1894-.1256-.3156-.3769-.2525-.1256-.8205-.4397-1.0098-.7538-.1262 0-.0631.3141-.2525.0628 0-.0628.1262-.0628.0631-.1256-.0631 0-.1262-.1885-.1893-.1257 0 .0628.0631.1257.0631.1257l-.2524-.377c-.1263-.0628-.0632.1257-.1894.0628-.0631-.2512-.2524-.2512-.2524-.2512-.0632-.1885-.2525-.2513-.3787-.5026l-.1263.0628c-.2524-.3769-.5049-.3769-.6311-.691.0631.1885-.1893-.1256-.1262.0628-.1894-.2513-.1894-.1256-.3156-.4397-.0631.0628-.1893-.0628-.3155-.2513-.0632 0 0 .0628 0 .1256-.3156-.5025-.5681-.4397-.7574-.8166-.5049-.1885-1.0729-.9423-1.5778-1.2564 0 0 .0631 0 .0631-.1257-.0631.0628-.1894 0-.1894-.1884-.1893 0-.3787-.5026-.4418-.3142-.0631-.1884-.1893-.1884-.1262-.3769-.1262.1257-.3787-.4397-.4418-.2513-.0631-.2512-.2524-.1884-.3787-.6282-.0631 0-.0631.0629-.1262 0 .0631-.1256-.1262-.3141-.0631-.0628-.1894-.4397-.3787-.691-.6311-.7538.0631.3141.0631.4397.2524.8795-.2525.1256-.4418-.0629-.4418.1884-.1893-.1884-.3787-.4397-.3787-.1884.1263 0 .1263.3769.2525.6282.2524.2512.3155.4397.568.5653.3156.5654.5049.6911.8205 1.068 0 .1885.1262.2513.2524.4397-.0631 0-.1262-.0628 0 .1257.0631-.1257.3787.8167.5681.8167-.1894-.0629.1893.4397 0 .3769.0631.1884.1893.2512.2524.3141 0 .0628-.1262 0-.0631.1256.0631-.0628.1262-.0628.1893.0628-.0631 0 .0631.1885 0 .1885-.0631-.1256-.1262-.1885-.0631-.0628 0-.0628.1263.2513.1263.3141-.0632.0628-.3156 0-.1894.1884-.3156 0-.568-.7538-.9467-1.0051.0631-.0628-.0631-.1256-.1262-.3141-.0631 0 0 .1256-.0631.0628 0-.0628-.0631-.0628-.1263-.1884.1263.0628-.3155-.5026-.3786-.8167-.0631-.1256-.0632 0-.1263-.1256.0631-.1257-.3155-.8167-.5049-.9423-.0631-.377-.1262-.2513-.3155-.5026.1262 0-.1263-.3141-.1263-.3141 0-.1256-.0631-.3141-.1893-.4398.1262 0-.1893-.3769 0-.4397-.3156-.6282-.3787-.691-.7574-1.382-.0631 0-.0631.0628-.1262-.1257-.1262-.0628.0631.2513-.0631.1885-.1262-.2513-.1262 0-.2525-.2513 0 .1884.2525.5025.0631.3141.0632.2513.1263.1884.1894.4397-.1262.0628.3787.8167.568 1.5077.0631.1885.1262 0 .2525.2513.0631.1885-.1263 0 .0631.2513.0631 0 .1893.2513.3787.5654.1262.0628 0-.1257 0-.1885.1262.1885.0631.1885.1262.3141l-.0631-.0628c.1262.2513.2524.4397.3787.6282-.0632.0628.1262.5026.3786.8167-.2524-.1885.1894.3769.1263.5025-.0631.1257-.4418-.2512-.4418-.1256-.1894-.4397-.3787-.5654-.5681-.7539.2525.377.1263.377.1263.5026.1893.1257 0 .0628.0631.1885.0631 0 .1262.1256.1893.1884-.1893-.1884.1262.377-.1262.0629.1262.2512 0 .0628.0631.2512-.0631 0-.2524-.1884-.1893 0 .0631 0 .0631 0 .1262.1257-.0631-.0629-.1893-.1885-.2525-.0628.1894.3141 0 .2512.1894.5653.5049.5026 1.5147 1.5706 1.5778 2.1988.9467 1.1307.5049 1.4448.0631 1.0679.1894.1256-.1893-.1885-.2524-.2513l.1262.1257c-.2524-.3141-.3787-.5026-.8205-1.0052 0-.1884-.3786-.691-.5049-.8166.0631.0628.1263.0628 0-.1257-.0631 0-.1893-.3769-.2524-.2513.5049.7539.7573 1.6962 1.2622 2.4501.1263.1884.4418.5653.5049.8166.0632-.0628.1894.2513.3156.3141-.2524-.1256.3156.4398.1894.5026.0631-.0628.1893.0628.3155.1256.3787.5654.8205 1.1308 1.073 1.2564.0631.1885.3155.5654.5049.8167-.2525-.3769-.1894 0-.0632.0628-.0631-.0628.0001-.1256.0632-.0628-.0631.1256-.2525 0-.0632.3769-.0631-.0628-.1893-.1256-.2524-.1256.3156.3141.2525.3141.5049.6282 0 0 .0631-.0628.1262.0628l.0631.0628c-.1262-.0628-.3155-.1884-.4418-.4397-.0631-.0628.0632.2513-.0631.0628-.0631-.2513-.6311-.8167-1.1991-1.5077-.568-.691-1.1361-1.4449-1.2623-2.0731-.2524-.2512-.2524-.3141-.3787-.5653.0631.0628.1263.1256.1263.1256-.0632-.0628-.0632-.1256-.0632-.1885-.1893-.1884-.0631-.0628-.1893-.3769-.0631 0 0 .1257-.0631.1257-.9467-1.3193-1.7041-2.8898-2.3983-3.7693.0631-.2513-.4418-1.2564-.6943-1.1936-.1893-.3141-.1262-.2513-.1893-.5654-.0631 0-.3156-.3769-.2525-.0628 0 0 .0631.0628 0 .0628.1894.377.3156.5654.3156.8167-.1262.4398.1262 1.1308.3787 1.8846-.4418-.691-.5049-1.0051-.8836-1.4448-.0631-.377-.2525-.5654-.3787-.8795-.0631 0-.1893-.1885-.3156-.3141.0632-.2513-.2524-.6282-.3155-.9423-.4418-.5654-.3787-1.068-.88362-1.759-.06312-.6282-.69425-1.1308-.75736-2.0103-.37868-.6282-.75736-1.6961-1.07293-2.8897-.37868-1.1308-.69425-2.3872-1.07293-3.141 0-.1885-.06312-.4398-.06312-.6283-.25245-.1256-.31556-1.0051-.31556-1.3192-.25246-.5654-.56803-2.0731-.63114-2.45-.12623-.1884-.12622-1.0679-.25245-1.6961-.06311 0-.06312 0-.06312-.1885-.18934 0-.25245.2513-.31557-.2513 0-.2513.18934-.1884 0-.3769.12623 0 .31557.4397.31557-.1257-.06311.1885-.12622-.4397-.12622-.1884.06311 0 .06311.3141 0 .2513 0-.2513-.12623-.0629-.12623-.2513v-.2513c-.18934-.3141-.37868-.3141-.50491-.7538-.18934.0628-.12622.7538-.12622 1.3192 0 .5654-.00001 1.0679-.18935.6282-.06311-.4397-.12623-.4398-.06311-.7539-.25246-.3141-.31557-2.1358-.31557-2.6384 0 .0628-.06311-.3141-.06311-.5654 0-.1256-.12622 0-.12622-.1885v-.1884c0 .2513-.06312.5025-.12624.1884.06312.3141 0 .377.06312.7539-.06312 0-.06311.1256-.12623.1256.06312 1.1308-.12623 1.6334.06311 2.7641-.25245.2513-.37868-1.5077-.63113-2.1987.06311-.2513-.06311-.9423-.18934-1.0051 0-.7539-.25246-1.9474-.25246-2.8898-.06311.1257-.18933-.2512-.25245.1257.06312-.3141-.06311-.2513 0-.5654-.06311.1885-.25245.1885-.31557.691 0-.4397-.06311-.2513-.06311-.0628-.06312-.3141-.06312-.1885-.18934-.3769-.12623.1884-.06312.7538-.12623.8795.12623.8795-.12622 1.0679-.06311 1.8846.06312.0628.06311-.1257.06311 0-.12623.1256-.12623.8166-.18934 1.1308.06311.0628.12623.4397.12623.7538-.06311-.1256-.12623.3769 0 .5026-.06311 0-.06312 0-.12623.1256.06311.5026.18935.8167.12623 1.1308 0-.1257 0-.2513-.06311-.3141.06311.3769-.12624.3141-.06312.5654-.12623-.1885-.12622 0-.18934.2512.06312.5026.12622.2513.18934.377-.06312 0-.06311.0628-.06311.1256-.06311 0-.06311-.1885-.12623-.2513-.06311.3141.18934.3769.12623.691-.12623-.2512-.12623.0629-.25246.3141 0 0 .06312.0001.06312.0629-.06312.0628-.06311.3769-.12623.3769 0 .3141.06311.3769.12623.5654-.12623.3769 0 1.1936.06311 1.6333-.12622-.1884.06311.3769-.06311.3141.06311-.0628.12623.3141.18934.4398-.12623-.1257 0 .2512-.06312.1884-.06311-.3141-.12623-.8795-.18934-.7538.12623.1884 0 .3769 0 .691.06311.1256.18934.7538.06312.7538.06311.377.12623.6283.18934.9424-.12623-.5026.12622.4397.06311.1884.06311.3141 0 .6282 0 .8167.18934.4397.25245 1.382.50491 2.0731.06311.3141.06311.5025.12622.8795.25246 1.2564.82048 2.6384.82048 3.3294.4418.6911.37868 1.1936.82048 2.1359-.06312.1257-.06311.0629-.25245 0 .06311.1885.06311.3141.06311.4398-.06312-.1885-.12623-.1885-.18935-.1257.06312.1885.06312.4398.18935.6911-.12623-.3141-.12623-.5026-.12623-.6282.18934.4397-.06311.0628.12623.5025.06311 0 .06311-.0628.12622.0628 0 .0629-.12622 0-.06311.1257.12623.1256.25246.5025.12623.1256.31557.6282.06312.3141.06312.5026.06311 0 .12622.2513.12622.2513-.18934-.3141.06311.2512.06311.1884-.18934-.1884-.4418-.8795-.63114-1.1307.06312 0 .12624.2512.12624.1256-.25246-.3769-.31558-.8167-.4418-1.2564-.18934-.1256-.37868-.9423-.37868-1.1308-.25245-.0628-.18934-.5654-.37868-.9423.06311.1257.12623.2513.06311.3141-.25245-.5654-.06311-.3769-.06311-.5025-.12623-.3141-.06312-.1885-.12623-.377-.06311 0-.06311.0629-.12623-.0628l-.69425-2.3872h.06312c-.18934-.2513-.06312-.5025-.25246-.7538.12623-.0628.00001-.0628-.06311-.1885.06312-.0628-.12623-.7538-.06312-.3141-.12622-.3769.00001-.2513-.0631-.5025-.12623 0-.00001-.0629-.06312-.1885-.06311 0-.06311.0628-.12623-.0628h.06311c-.06311-.3769-.126223-.0629-.126223-.2513.063113-.3769-.189343-.8167-.189343-1.5705-.063113 0-.063111.0628-.126225-.0628.063114-.2513-.063112-.6283-.126225-.5654 0-.1257.063117-.1257.063117-.2513-.126227-.691-.315572-1.1308-.378685-1.759 0 .1257.063117.2513.063117.3141 0-.2513-.063117-.3769-.063117-.5654-.1262272.1257-.1262272-.5654-.3155678-.5654.0631141.3141.1262293.377.1893425.7539-.0631132.1256.0631103.6282-.063117.691.1262273.1257.1893463.4398.2524593.6282-.063113 0-.063121-.2513-.126234-.1884.063113.3769.063115.4397.189343.7538 0 .2513-.126222.1885-.063109.5026.063114.0628.12622 0 .189333.1884 0 .2513.063122.1257.126235.3141-.126227 0 .126226.7539.126226.8167l-.126226.0628c.063113.1257.063111.3769.126226.3769 0-.1256-.063118-.2512-.063118-.3141.063114.2513.063116.1885.189342.377-.063113 0-.063109.2513.063118.5025 0-.1256-.063118-.2512-.063118-.3141.063114.377.126229.3141.189339.4398-.126223-.0628-.126223.1256 0 .3141-.06311 0 .00001.1884-.126221.1256.252451.3141.189331 1.0051.378671 1.068-.06311.0628.06312.1884.06312.3141-.18934-.2513.06311.3141.06311.5025-.18934-.691-.06311.2513 0 .1885 0-.1256-.06311-.2513-.06311-.3141.18934.6282.18934.1885.31557.5026.06311.3141-.18934-.2513-.12623.0628.06312 0 .18934.3141.12623.3769-.12623-.4397.06311.2513-.12623-.1885.06312.3141.12623.1885.25246.5654-.06312 0-.18935-.3769-.18935-.0628.12623.1885.18934.5026.31557.6282-.06311-.1256-.06311-.2513 0-.1256.06311.2513 0 .3141.12623.6282.06311 0 .06312-.0629.12623.0628 0 .0628.06311.1885.12622.3141-.12622-.1885.12623.4397-.12622-.0628.18934.3769-.00001.3141.18933.691.12623.1256.44181.9423.44181 1.1308-.06312-.1885-.12623-.2513-.18935-.2513.12623.3141.12623.3769.12623.5026.06311.0628.12623 0 .18934.1256 0 .2513.18934.691.25245.6282 0 .1885 0 .3769-.12622.3769-.06312-.1256-.50491-1.2564-.4418-1.3192-.25245-.4397-.31557-.7539-.50491-1.1308.25246.2513-.18933-.691.06312-.4397-.18934-.2513-.18935-.3769-.25246-.2513-.06311-.1256-.06311-.1885-.12622-.2513.25245.1257-.37869-.8795-.06312-.5025-.18934-.4398-.06311-.2513-.18934-.5654-.06311 0-.06312.0628-.12623-.0629-.06311-.3141-.18933-.5653-.06311-.691-.06311-.0628-.12623-.1884-.18934-.4397.12623.1884-.12623-.5026-.12623-.5654.06312.2513-.189341-.1885-.063113.1256 0 .3141.252453 1.068.504913 1.6962-.06312 0-.06311-.1257-.12623-.0628.12623.3769.18934.9423.4418 1.3192-.06312.1885.18933.6282.12622.6282.12623.1885.18934.6282.37868.8167.06312.3769.18934.7538.37868 1.2564.06311-.0628.12623.0628.18934.2513-.12622.0628.25246.5653.12623.6282.18934.3141.12623.3769.31557.7538.06311 0 .06312-.0628.12623.0628-.18934 0 .50491 1.1936.12623.6911.25245.5025.37867.5653.25245.6282.06311.1256.12623-.0629.25246.2512 0 .2513.25245.8167.56801 1.3821.06312-.0628.00001-.0628.06312-.2513-.18934-.3141-.25245-.5654-.31557-.8795-.31556-.4397-.63114-1.3192-.56802-1.6333-.12623-.1256.06311.4397-.12623.1885 0-.1885-.06312-.2513-.06312-.0629-.31556-.6282-.25244-.8166-.5049-1.1307.06312-.0629.12623-.377.31557-.1257.06311.2513.12622.3141-.06312.1257.12623.3769.18934.1256.31557.5025-.06311.1885.25245.6911.31557.9423.12623.0629.12623.0629.18934.1257 0 .1884 0 .1884-.12622.0628.12622.3141.12622.0628.31556.4397-.06311.2513.44179.8795.5049 1.3193.12623.1256.18935.2513.37869.3769-.06311 0 0 .1256 0 .1885-.06311 0-.18934-.3141-.25245-.3141.12623.1884.18934.2512.25245.4397.06311 0 .06311-.1885.18934 0-.12623.0628-.06312.0628.06311.1885l-.06311.0628c.18934.2513.31556.691.37868.6282.06311-.0628-.12623-.1885-.25245-.4397.06311 0 .06311-.0629.06311-.1257 0 .0628.18934.3141.12623.3769-.06311-.0628-.12623-.1884-.12623-.1884.12623.1884.18935.2512.31557.5025-.12622-.1256-.06312.0629.06311.1885l-.06311.0628c.18934.3141.31557.5026.44179.8167.18934.1884 0-.1885-.06311-.3141.25245.3141.06311.2513.18934.5025.12623.0629-.06311-.2512.06312-.0628 0 .0628.18933.4398.18933.5026-.06311 0-.31556-.3769-.18933-.1257.12623.1885.18934.1257.31557.3141-.06312.0629-.12623-.1256-.18935 0 .18934.3141.12623.1257.18935.3141.12622.1257.12622-.0628.25244.1257-.06311.0628-.25245-.1257-.12622.1885 0-.2513.50491.6282.44179.4397-.06311-.0628-.31557-.4397-.31557-.5026.18935.1257.50491.6911.63114 1.0052.25246.5653 1.00982 1.4448 1.07293 1.6961 0-.0628-.06311.0628 0 .1257-.18934-.1257-.56802-.8167-.63114-1.0052 0 .1257.00001.1257-.12622 0 .12623.2513.31556.5654.56802.8167.06311.2513.12623.2513.18934.5026.06311-.1257.31557.1256.31557.0628-.12623-.2513-.12623 0-.25245-.1885.06311-.1884.37868.1885.44179.4398-.06311 0-.12623-.1257-.06312.0628.12623-.0628.31558.3769.4418.4397-.06311 0 0 .1257 0 .1257 0-.1257-.31556-.3141-.18934-.377-.18934-.1884-.31556-.4397-.44179-.4397.18934.3769.37868.5654.63113.8795 0 0-.06312 0-.12623-.0628.18934.2512.88359 1.1307.56799.5654-.0631 0 .0631.1884-.0631.0628-.18932-.2513-.31554-.4398-.25243-.5654.31553.4397.37863.5026.56803.8167.1893.1256 0-.1257.1262.0628 0 .1256.1262.2513.1894.3141 0 0-.0632-.0628-.1263-.0628.1894.2512.4418.4397.5049.6282-.1262 0-.0631.0628-.1893 0 .2525.2512.1893.3141.0631.1884.3787.4398.6943.7539.7574.9423 0-.1884.2524.1885.3155.1257-.1893-.1885-.2524-.3141-.3786-.5026.2524.3769 0-.1256.1893.1256.1262.1257.2525.4398.3787.5028-.0631-.1258-.0631-.063 0 0 .1262.251.1262.251 0 .251-.0631-.188-.2525-.314-.3787-.4397.1893.3767-.1262.1257.0631.3137-.1262-.2508.4418.44.1262 0 .2525.252.0632.189.1894.377-.0631-.188.4418.377.2524.314-.0631-.062-.1262-.188-.1893-.251.1262.251.6942.754.568.88.3787.377.3787.565.6943.879-.2525-.188-.3156-.125-.6312-.44.1894.063-.1893-.125-.1893-.251 0 .063-.1262-.063-.1893-.126.0631.126.2524.252.2524.315-.1262-.126-.2525-.315-.3156-.315.1263.252.2525.252.3156.44.0631 0 .0631-.063.1262 0-.0631.063.2525.314-.0631.063.9467 1.256 2.3352 3.015 3.5975 4.209 0 .063.1893.189.0631.189 2.2721 2.324 4.9229 4.9 8.331 7.35 6.4376 4.585 14.0743 8.355 22.4684 10.302 5.4278 1.256 10.9818 1.759 16.662 1.696 6.6269-.125 13.1907-1.131 19.5021-3.141 6.3113-2.01 12.3071-4.963 17.735-8.983 3.219-2.387 6.437-5.277 9.088-8.23 3.913-4.271 7.511-9.3599 10.288-14.8881s4.796-11.559 5.869-17.4641c0 0-.063 0-.063-.1256.631-3.3295 1.073-6.7847 1.073-10.2398l.063.1257c.126-1.068 0-3.8949-.063-5.277-.126-4.3346-.82-9.2974-2.146-14.3231-1.325-4.9628-3.408-9.9884-5.869-14.4487-.063-.0628-.127-.0628-.19-.1256.063 0 0-.0628 0-.1257-.631-1.0679-1.325-2.3871-1.956-3.3294-.063 0-.063.0628-.126-.0629.063 0-.064-.1256-.064-.1884-1.325-2.0731-2.84-4.209-4.481-6.2193-1.641-2.0102-3.281-3.832-4.733-5.2141-.253-.3141-.568-.5653-.631-.7538-.316-.2513-.379-.2513-.694-.5026.126-.0628.063-.1884.189-.3141-.189-.3141-1.073-1.1307-.884-1.1307-.315-.3141-.883-.7539-1.01-.94235l.632.56535c.694.377 1.641 1.1936 2.461 1.9475 2.083 1.6333 4.166 3.5807 6.059 5.7166 1.325 1.3821 2.966 3.1411 4.292 5.0257 1.009 1.1936 1.641 2.0731 2.524 3.3923 1.515 2.3244 2.903 4.6487 4.103 7.0359 1.199 2.3872 2.272 4.9628 3.218 7.7269.379.9423.821 2.3872 1.01 3.4551.694 2.0103 1.01 4.2718 1.515 6.2821 0 .691.315 1.2564.315 2.2615.127.4398.316 1.2564.253 1.9475.316 1.2564.442 3.141.757 4.0833.253.0628.442 1.1936.505 2.6385.063 1.4448.063 3.0782.126 4.1461.253-.0628.568-.1884.568 1.0051.127-.1256.253-.1884.379-.1884 0-.3141.063-.2513.063-.4398-.126-.0628 0 .2513-.063.2513-.126-.2513-.126-.691-.063-1.1936.189-.3769.631-.3141.442.2513.063.0628.063.1257.063 0 0 2.2616-.189 4.1462-.253 6.0308.253-.0628-.189 2.3244.253 1.759-.063.4397.189.1884.063.8795.189-.4398.379-.3141.442.0628.378-1.3193.694-3.0154.883-4.6487.064.0628.064-.1257.127-.2513.189.0628.189.7538.252 1.1307.316-.4397.253-2.3243.442-3.8948.126-.8795.252-.8795.252-1.6962.19 0 .316-.7538.379-1.3192.189.3141.126 1.0679.252 1.0051.064-1.759.127-4.5231-.063-6.4705 0-.3141.063-.5026.127-.6282.189.3769.378.7538.441 1.5705-.063 0-.063-.1885-.063.1256 0 .0629.127.1885.19.377.126-1.6962.063-3.7693.189-4.6487z" fill="#147070"/>
  </g>
</svg>
