<svg width="20" height="20" viewBox="0 0 20 20" fill="none" xmlns="http://www.w3.org/2000/svg">
<path d="M16.75 8.5C16.75 13.75 10 18.25 10 18.25C10 18.25 3.25 13.75 3.25 8.5C3.25 6.70979 3.96116 4.9929 5.22703 3.72703C6.4929 2.46116 8.20979 1.75 10 1.75C11.7902 1.75 13.5071 2.46116 14.773 3.72703C16.0388 4.9929 16.75 6.70979 16.75 8.5Z" stroke="#D01E32" stroke-width="2" stroke-linecap="round" stroke-linejoin="round"/>
<path d="M10 10.75C11.2426 10.75 12.25 9.74264 12.25 8.5C12.25 7.25736 11.2426 6.25 10 6.25C8.75736 6.25 7.75 7.25736 7.75 8.5C7.75 9.74264 8.75736 10.75 10 10.75Z" stroke="#D01E32" stroke-width="2" stroke-linecap="round" stroke-linejoin="round"/>
</svg>
