<svg width="99" height="98" viewBox="0 0 99 98" fill="none" xmlns="http://www.w3.org/2000/svg">
<g clip-path="url(#clip0_121_5464)">
<path d="M81.3593 97.9998C75.2582 97.9998 70.2948 93.0348 70.2948 86.9353H92.4238C92.4238 93.0348 87.4604 97.9998 81.3593 97.9998Z" fill="#FBFBFB"/>
<path d="M30.7773 98C24.6762 98 19.7128 93.035 19.7128 86.9354C19.7128 80.8359 24.6762 75.8709 30.7773 75.8709C36.8784 75.8709 41.8418 80.8359 41.8418 86.9354C41.8418 93.035 36.8784 98 30.7773 98ZM30.7773 83.7741C29.0338 83.7741 27.616 85.1919 27.616 86.9354C27.616 88.6789 29.0338 90.0967 30.7773 90.0967C32.5208 90.0967 33.9386 88.6789 33.9386 86.9354C33.9386 85.1919 32.5208 83.7741 30.7773 83.7741Z" fill="#FBFBFB"/>
<path d="M75.0357 41.0967H65.5519C62.9378 41.0967 60.8099 38.9688 60.8099 36.3548C60.8099 33.7407 62.9378 31.6128 65.5519 31.6128H75.0357V41.0967Z" fill="#FBFBFB"/>
<path d="M49.743 12H6.74298V1.99998H49.743V12Z" fill="#FBFBFB"/>
<path d="M30.7739 82.1936C28.1598 82.1936 26.032 84.3214 26.032 86.9355C26.032 89.5496 28.1598 91.6775 30.7739 91.6775C33.388 91.6775 35.5159 89.5496 35.5159 86.9355C35.5159 84.3214 33.388 82.1936 30.7739 82.1936ZM30.7739 88.5162C29.9033 88.5162 29.1933 87.8076 29.1933 86.9355C29.1933 86.0634 29.9033 85.3549 30.7739 85.3549C31.6445 85.3549 32.3546 86.0634 32.3546 86.9355C32.3546 87.8076 31.6445 88.5162 30.7739 88.5162Z" fill="#FBFBFB"/>
<path d="M87.353 70.6359L84.5444 46.7633C85.5068 47.1824 86.5642 47.4194 87.6786 47.4194H92.4206C94.1641 47.4194 95.5819 46.0016 95.5819 44.2581V34.7742C95.5819 33.0307 94.1641 31.6129 92.4206 31.6129H73.4528V71.4532C71.3366 72.5376 69.4804 74.0549 67.9762 75.871H60.4187L54.9991 56.9032H60.8077V55.3226C60.8077 49.7602 56.6778 45.1557 51.3238 44.3846V0H3.90445V44.549C2.06912 45.2035 0.743164 46.9424 0.743164 49V52.1613C0.743164 54.7754 2.87102 56.9032 5.4851 56.9032H11.3253C6.84578 60.0522 3.90445 65.2487 3.90445 71.129V88.5161H16.5496V86.9355C16.5496 79.0909 22.9324 72.7097 30.7754 72.7097C38.6184 72.7097 45.0012 79.0909 45.0012 86.9355V88.5161H98.7432V86.9355C98.7432 79.4575 93.9904 73.0871 87.353 70.6359ZM92.4206 34.7742L92.4221 44.2581H87.6786C86.2138 44.2581 84.9172 43.575 84.0466 42.5269L84.0419 42.4922L84.0195 42.4953C83.3527 41.6787 82.9367 40.6491 82.9367 39.5161C82.9367 36.902 85.0646 34.7742 87.6786 34.7742H92.4206ZM76.6141 34.7742H81.397C80.3936 36.0986 79.7754 37.7302 79.7754 39.5161C79.7754 41.0559 80.2354 42.4829 81.0003 43.6985L84.0682 69.7807C83.1829 69.6418 82.2807 69.5484 81.3561 69.5484C79.7121 69.5484 78.1222 69.7838 76.6141 70.2121V34.7742ZM7.06574 44.2581V12.6452H48.1625V44.2581H7.06574ZM48.1625 3.16129V9.48387H7.06574V3.16129H48.1625ZM5.4851 53.7419C4.61451 53.7419 3.90445 53.0334 3.90445 52.1613V49C3.90445 48.1279 4.61451 47.4194 5.4851 47.4194H49.7432C53.5605 47.4194 56.7534 50.1399 57.4866 53.7419H5.4851ZM48.0915 85.3548C47.2904 76.5046 39.8309 69.5484 30.7754 69.5484C21.7199 69.5484 14.2605 76.5046 13.4593 85.3548H7.06574V71.129C7.06574 63.2845 13.4485 56.9032 21.2916 56.9032H51.7128L58.0354 79.0323H65.8784C64.889 80.961 64.2453 83.0942 64.0415 85.3548H48.0915ZM67.2175 85.3548C68.0063 78.2512 74.0456 72.7097 81.3561 72.7097C88.6666 72.7097 94.7059 78.2512 95.4947 85.3548H67.2175Z" fill="#FBFBFB"/>
<g clip-path="url(#clip1_121_5464)">
<path d="M21.7795 30.5461C21.6774 30.6545 21.5859 30.7489 21.5094 30.8278C20.9762 31.339 20.39 31.7991 19.7596 32.2011C19.1202 32.6196 18.4306 32.9661 17.7051 33.2336C17.0766 33.4755 16.3976 33.58 15.7197 33.5392C15.4192 33.5164 15.1272 33.4346 14.8625 33.2993C14.5978 33.1639 14.3663 32.9779 14.183 32.7533C13.9107 32.4266 13.7567 32.0269 13.7433 31.6124C13.7397 31.1957 13.8313 30.7831 14.0119 30.4024C14.3017 29.7958 14.6872 29.2336 15.1554 28.7347C15.5807 28.2682 16.0465 27.8357 16.5481 27.4417C16.9983 27.0994 17.2984 26.898 17.4485 26.8402C17.408 26.8008 17.3614 26.7613 17.3074 26.7163C17.0332 26.4925 16.7933 26.2341 16.5946 25.9486C16.4914 25.7932 16.4279 25.6174 16.4091 25.4351C16.3904 25.2528 16.4169 25.0689 16.4865 24.8978C16.6543 24.5186 16.8978 24.1729 17.2039 23.8795C17.5071 23.5747 17.8374 23.2948 18.1913 23.0428C18.523 22.809 18.7631 22.6526 18.9147 22.5681C19.691 22.1549 20.3078 21.9671 20.765 22.0047C20.9668 22.0111 21.1649 22.0577 21.346 22.1415C21.5271 22.2253 21.6872 22.3443 21.8155 22.4906C21.988 22.6792 22.1062 22.9062 22.1587 23.1498C22.2113 23.3934 22.1964 23.6456 22.1157 23.8823C21.9656 24.4147 21.5409 24.9288 20.8461 25.419C20.672 25.5162 20.4574 25.4937 20.2083 25.3514C19.9771 25.2319 19.7914 25.0478 19.677 24.8246C19.577 24.6133 19.66 24.4495 19.9261 24.333C20.1301 24.2456 20.322 24.1354 20.4979 24.0048C20.6913 23.8748 20.8602 23.7153 20.9976 23.533C21.1192 23.3682 21.1387 23.2315 21.0502 23.1245C20.9661 23.0681 20.75 23.1245 20.3778 23.2963C19.9529 23.5036 19.546 23.7419 19.1608 24.009C18.7398 24.2897 18.3532 24.6133 18.0082 24.9739C17.6886 25.3148 17.5295 25.6218 17.534 25.8979C17.5384 25.969 17.5668 26.037 17.6151 26.092C17.6634 26.1469 17.7291 26.186 17.8026 26.2036C17.9583 26.2446 18.1213 26.2547 18.2814 26.2331C18.396 26.2225 18.5095 26.2027 18.6205 26.174C18.7152 26.1561 18.8129 26.1584 18.9064 26.1809C19 26.2033 19.0869 26.2452 19.1608 26.3036C19.3403 26.4268 19.4888 26.5855 19.596 26.7684C19.6944 26.9259 19.7515 27.1031 19.7626 27.2853C19.7661 27.3176 19.7625 27.3501 19.7518 27.381C19.7412 27.4118 19.7238 27.4402 19.7007 27.4643C19.6777 27.4885 19.6495 27.5078 19.618 27.5211C19.5866 27.5345 19.5525 27.5414 19.5179 27.5417C19.2673 27.5712 18.8937 27.7417 18.3984 28.0586C17.856 28.4123 17.3432 28.8046 16.8647 29.2319C16.3747 29.6578 15.9373 30.1341 15.5606 30.6517C15.2154 31.1334 15.0699 31.5504 15.1209 31.911C15.229 32.3194 15.5846 32.4744 16.1849 32.3885C16.7852 32.3025 17.495 32.049 18.3054 31.6124C19.1472 31.1663 19.9365 30.638 20.66 30.0362C21.2603 29.539 22.2417 28.4643 22.8195 27.7177C22.9448 27.4609 23.0913 27.2137 23.2577 26.9783C23.2957 26.9412 23.3435 26.9143 23.3962 26.9002C23.4489 26.8861 23.5047 26.8853 23.5578 26.898C23.7058 26.919 23.848 26.9668 23.9765 27.0388C24.104 27.1049 24.2195 27.1895 24.3187 27.2895C24.4027 27.3797 24.4267 27.4586 24.3847 27.5262C24.2496 27.7065 24.0741 27.9811 23.8595 28.3459C23.6304 28.7452 23.4347 29.1606 23.2742 29.5883C23.4543 29.3066 23.7094 28.9418 24.0245 28.4854C24.3397 28.029 24.6728 27.5853 25.0015 27.1656C25.2298 26.857 25.4875 26.5684 25.7713 26.3036C25.8379 26.2644 25.9132 26.2404 25.9913 26.2333C26.0695 26.2262 26.1483 26.2363 26.2216 26.2627C26.4058 26.3125 26.576 26.4001 26.7198 26.5191C26.7832 26.5628 26.8345 26.6202 26.8695 26.6863C26.9044 26.7525 26.9221 26.8255 26.9209 26.8994C26.9049 26.9713 26.8828 27.042 26.8549 27.1107C26.8158 27.2177 26.7708 27.3388 26.7198 27.4755C26.6433 27.6797 26.5697 27.8685 26.5112 28.0389C26.4664 28.1358 26.4395 28.2392 26.4317 28.3445C26.4632 28.3065 26.5247 28.2319 26.6117 28.1206C26.8438 27.8098 27.159 27.4219 27.5572 26.9571C27.8603 26.5846 28.2134 26.2503 28.6077 25.9627C28.8868 25.8035 29.1554 25.8613 29.4135 26.1402C29.5555 26.2603 29.6682 26.4078 29.7437 26.5726C29.7866 26.7425 29.757 26.9215 29.6612 27.0712C29.5111 27.3529 29.328 27.7755 29.0954 28.3037C28.8628 28.8319 28.6452 29.37 28.4681 29.8925C28.3175 30.261 28.2166 30.6457 28.168 31.0377C28.5812 30.8067 28.9843 30.409 29.3775 29.8446C29.6006 29.5244 29.8067 29.2131 29.9958 28.9108C30.2083 28.2923 30.4863 27.6954 30.8257 27.129C30.9157 27.0276 31.0703 26.9881 31.2894 27.0276C31.5092 27.055 31.719 27.1308 31.9017 27.2487C32.0758 27.36 32.1313 27.4867 32.0683 27.6262C31.7045 28.271 31.3866 28.9378 31.1168 29.6221C30.9458 30.1066 30.8872 30.4165 30.9458 30.5531C31.0328 30.7419 31.2804 30.6024 31.6961 30.1306C32.2865 29.4025 32.8293 28.6414 33.3214 27.8515C33.6517 27.0286 34.0294 26.2232 34.4529 25.4387C35.1002 24.2386 35.6925 23.4146 36.2297 22.9667C36.2943 22.9191 36.3728 22.8911 36.4548 22.8864C36.6049 22.8864 36.836 22.971 37.1376 23.1583L37.2307 23.2005C37.5143 23.3668 37.6599 23.5189 37.6644 23.6597C37.666 23.6914 37.6596 23.7229 37.6458 23.7518C37.632 23.7806 37.6111 23.806 37.5848 23.8259C36.9657 24.3772 36.4381 25.0125 36.0196 25.7106C35.0481 27.2771 34.3581 28.9832 33.9772 30.7602C33.8668 31.2627 33.82 31.7757 33.8376 32.2885C33.8614 32.5289 33.9 32.7678 33.9532 33.004C33.9784 33.1405 34.0551 33.264 34.1693 33.3519C34.4693 32.9925 34.8006 32.657 35.1597 32.349C35.689 31.8851 36.1947 31.4701 36.6769 31.1039C37.2472 30.6653 37.5888 30.3686 37.7019 30.2137C37.8114 30.0052 37.93 29.7334 38.0651 29.3953C38.2001 29.0573 38.3082 28.7798 38.3907 28.5615C38.0543 29.0579 37.677 29.5289 37.2622 29.97C36.9086 30.3615 36.5055 30.7111 36.0616 31.0109C35.9682 31.0519 35.8671 31.0752 35.764 31.0793C35.661 31.0834 35.5581 31.0683 35.4614 31.0349C35.2185 30.9744 34.995 30.8593 34.81 30.6996C34.7265 30.6409 34.6604 30.5631 34.6181 30.4736C34.5758 30.3841 34.5587 30.2858 34.5684 30.1883C34.708 29.5811 34.9131 28.9888 35.1807 28.4206C35.4483 27.8154 35.8017 27.2469 36.2312 26.7303C36.3348 26.6388 36.4953 26.6205 36.7159 26.6754C36.9225 26.7281 37.1135 26.8244 37.2742 26.9571C37.4243 27.0867 37.4513 27.2149 37.3477 27.3473C37.1781 27.5422 37.0274 27.751 36.8975 27.9713C36.7264 28.2445 36.5679 28.5262 36.4218 28.8164C36.2971 29.0552 36.1927 29.303 36.1097 29.5573C36.0511 29.7559 36.0661 29.8503 36.1592 29.839C36.3633 29.7672 36.6859 29.4432 37.1316 28.8741C37.5773 28.3051 38.0095 27.7065 38.4372 27.0811C38.8649 26.4557 39.1516 26.0219 39.3016 25.7838C39.3902 25.6711 39.5372 25.643 39.7518 25.6796C39.9608 25.7194 40.1582 25.8006 40.3311 25.9176C40.5067 26.0373 40.5877 26.1585 40.5772 26.2782C40.5172 26.581 40.4272 26.936 40.2921 27.3487C40.157 27.7614 40.0355 28.1544 39.9109 28.5291C39.8224 28.7953 39.7518 29.022 39.6933 29.2052C40.061 28.9643 40.3761 28.7601 40.6418 28.5995C40.9074 28.4389 41.1715 28.2812 41.4416 28.1361C41.5737 28.0769 41.6667 28.0995 41.7103 28.2009C41.7583 28.3289 41.7529 28.4693 41.6952 28.5938C41.6317 28.7652 41.5119 28.9131 41.3531 29.0164C40.6208 29.4203 39.9256 29.8806 39.2746 30.3926C39.1419 30.4932 39.0339 30.6195 38.958 30.763C38.6919 31.2982 38.3632 31.88 37.972 32.5082C37.5977 33.1119 37.1684 33.684 36.6889 34.2182C36.3142 34.664 35.8344 35.0222 35.2873 35.2647C35.0343 35.3171 34.7699 35.2879 34.5369 35.1816C34.2387 35.0799 33.9845 34.8888 33.8136 34.6379C33.6415 34.3844 33.666 34.0764 33.8871 33.7139L33.9186 33.6688L33.8136 33.6618C33.6155 33.6463 33.3634 33.5209 33.0467 33.2913C32.7048 33.0116 32.4741 32.6312 32.3924 32.2124C32.3706 32.1064 32.3576 31.9991 32.3534 31.8912C32.3399 31.2252 32.4298 30.5609 32.6205 29.9193C32.4089 30.2165 32.1883 30.501 31.9557 30.7743C31.5956 31.2015 31.2674 31.4832 30.9713 31.6194C30.7748 31.6862 30.5617 31.6965 30.359 31.649C30.1364 31.605 29.9297 31.508 29.7587 31.3673C29.6355 31.27 29.5522 31.1356 29.5231 30.987C29.2877 31.2951 28.9936 31.5596 28.6557 31.7673C28.4547 31.8488 28.2313 31.868 28.0179 31.8222C27.7816 31.7861 27.5548 31.7077 27.3501 31.5912C27.1846 31.512 27.0562 31.378 26.9899 31.2151C26.9446 30.8813 26.9707 30.5422 27.0665 30.2179C27.1732 29.7787 27.305 29.3452 27.4611 28.9192C27.6232 28.4812 27.7613 28.1333 27.8873 27.8699C27.4153 28.3183 27.0022 28.8181 26.6568 29.3587C26.2312 30.003 25.8791 30.6876 25.6063 31.4011C25.5643 31.4729 25.4652 31.5053 25.3061 31.4954C25.1463 31.4828 24.9919 31.4345 24.8559 31.3546C24.7873 31.3211 24.7282 31.2727 24.6835 31.2134C24.6389 31.1541 24.61 31.0856 24.5993 31.0137C24.6151 30.7263 24.6603 30.4409 24.7344 30.1616C24.8274 29.7728 24.925 29.3953 25.0345 29.0347C25.1441 28.6741 25.2146 28.4347 25.2551 28.3305C24.9925 28.5953 24.6113 29.1122 24.1116 29.8798C23.6118 30.6475 23.1526 31.4025 22.7339 32.1561C22.6679 32.2575 22.5388 32.2969 22.3498 32.28C22.1618 32.2598 21.9801 32.2042 21.8155 32.1166C21.6489 32.0265 21.5619 31.925 21.5559 31.8138C21.5974 31.3859 21.6762 30.9619 21.7915 30.5461H21.7795ZM34.612 34.4055C34.9998 34.1179 35.3522 33.7905 35.6624 33.4294C36.009 33.0427 36.3226 32.6311 36.6004 32.1983C36.2002 32.5551 35.782 32.9547 35.3458 33.397C34.9096 33.8393 34.663 34.1754 34.606 34.4055H34.612ZM32.1928 26.5177C32.15 26.57 32.0931 26.6106 32.0279 26.6354C31.9627 26.6602 31.8917 26.6682 31.8222 26.6585C31.6632 26.6495 31.5089 26.6051 31.372 26.5289C31.2309 26.4543 31.1649 26.3684 31.1709 26.2655C31.2259 25.9803 31.3099 25.7006 31.4215 25.4303C31.5005 25.2298 31.5927 25.0341 31.6976 24.8443C31.758 24.782 31.8351 24.736 31.9209 24.7113C32.0067 24.6865 32.098 24.6838 32.1853 24.7035C32.4007 24.7224 32.6073 24.7927 32.7856 24.9077C32.9612 25.019 33.0137 25.1429 32.9447 25.2852C32.9042 25.357 32.8486 25.4486 32.7826 25.5669C32.6911 25.7275 32.589 25.8951 32.4825 26.0683C32.3759 26.2416 32.2814 26.3909 32.1988 26.5134L32.1928 26.5177Z" fill="#FBFBFB"/>
</g>
</g>
<defs>
<clipPath id="clip0_121_5464">
<rect width="98" height="98" fill="white" transform="translate(0.743164)"/>
</clipPath>
<clipPath id="clip1_121_5464">
<rect width="28" height="22" fill="white" transform="translate(13.7432 18)"/>
</clipPath>
</defs>
</svg>
