<svg width="100" height="99" viewBox="0 0 100 99" fill="none" xmlns="http://www.w3.org/2000/svg">
<rect x="82.7432" y="2" width="12" height="21" fill="#FBFBFB"/>
<path d="M95.1025 1.54688H82.7275C82.3173 1.54688 81.9238 1.70985 81.6337 1.99994C81.3436 2.29004 81.1807 2.68349 81.1807 3.09375V4.64062H48.8862C47.4877 4.6416 46.1118 4.99244 44.8836 5.66118L29.7391 13.9219H11.5713C8.96906 13.9219 6.93066 16.6397 6.93066 20.1094C6.93066 23.3478 8.70667 25.9295 11.0591 26.2603L4.08499 49.8695C4.07881 49.8906 4.07301 49.9119 4.06759 49.9329C3.91446 50.5464 3.837 51.1763 3.83691 51.8085V95.9062C3.83691 96.3165 3.99989 96.71 4.28998 97.0001C4.58008 97.2901 4.97353 97.4531 5.38379 97.4531H74.9932C75.4034 97.4531 75.7969 97.2901 76.087 97.0001C76.3771 96.71 76.54 96.3165 76.54 95.9062V51.9379C76.5402 51.1991 76.4343 50.4641 76.2256 49.7554L69.7806 27.8424C71.8795 27.827 73.896 27.0235 75.4302 25.5912C76.9645 24.1588 77.9045 22.2023 78.0639 20.1094H81.1807V23.2031C81.1807 23.6134 81.3436 24.0068 81.6337 24.2969C81.9238 24.587 82.3173 24.75 82.7275 24.75H95.1025C95.5128 24.75 95.9062 24.587 96.1963 24.2969C96.4864 24.0068 96.6494 23.6134 96.6494 23.2031V3.09375C96.6494 2.68349 96.4864 2.29004 96.1963 1.99994C95.9062 1.70985 95.5128 1.54688 95.1025 1.54688ZM10.0244 20.1094C10.0244 18.2208 10.9406 17.0156 11.5713 17.0156H55.7901L49.6026 23.2031H11.5713C10.9406 23.2031 10.0244 21.9979 10.0244 20.1094ZM58.2082 49.9331C58.0551 50.5466 57.9776 51.1764 57.9775 51.8087V94.3594H6.93066V51.8085C6.93081 51.4393 6.97489 51.0714 7.06196 50.7126L14.2741 26.2969H46.8039C45.9964 27.6612 45.6898 29.2644 45.9369 30.8304C46.1841 32.3964 46.9695 33.8272 48.1579 34.8766C49.3463 35.9259 50.8634 36.5281 52.448 36.5794C54.0325 36.6307 55.5854 36.128 56.8392 35.1578L64.2811 29.3692L58.2256 49.8697C58.2194 49.8908 58.2136 49.912 58.2082 49.9331ZM67.2588 90.3595L71.2586 94.3594H63.259L67.2588 90.3595ZM73.2578 50.629C73.3829 51.054 73.4464 51.4948 73.4463 51.9379V92.1717L68.8057 87.5311V54.1406C68.8057 53.7304 68.6427 53.3369 68.3526 53.0468C68.0625 52.7567 67.669 52.5938 67.2588 52.5938C66.8485 52.5938 66.4551 52.7567 66.165 53.0468C65.8749 53.3369 65.7119 53.7304 65.7119 54.1406V87.5313L61.0713 92.1719V51.8085C61.0714 51.4393 61.1155 51.0714 61.2026 50.7126L67.2547 30.2211L73.2578 50.629ZM81.1807 17.0156H77.4629C76.8082 17.0164 76.1804 17.2768 75.7174 17.7399C75.2544 18.2029 74.9939 18.8306 74.9932 19.4854C74.9916 20.8812 74.4364 22.2193 73.4494 23.2063C72.4625 24.1932 71.1243 24.7484 69.7286 24.75H65.926C65.4434 24.7508 64.9747 24.9117 64.5933 25.2073L54.9395 32.7164C54.1928 33.2977 53.2526 33.5724 52.3104 33.4845C51.3683 33.3966 50.4951 32.9528 49.8688 32.2434C49.2426 31.5341 48.9104 30.6126 48.94 29.6668C48.9696 28.721 49.3588 27.8221 50.0281 27.1533L60.6181 16.5632C60.8346 16.3469 60.9821 16.0712 61.0419 15.7711C61.1017 15.4709 61.0711 15.1598 60.9541 14.877C60.837 14.5942 60.6386 14.3525 60.3842 14.1825C60.1297 14.0125 59.8305 13.9218 59.5244 13.9219H36.2002L46.3653 8.3771C47.1388 7.95592 48.0054 7.73497 48.8862 7.73438H81.1807V17.0156ZM93.5557 21.6562H84.2744V4.64062H93.5557V21.6562Z" fill="#FBFBFB"/>
<path d="M10.0244 20.1094C10.0244 18.2208 10.9406 17.0156 11.5713 17.0156H55.7901L49.6026 23.2031H11.5713C10.9406 23.2031 10.0244 21.9979 10.0244 20.1094Z" fill="#FBFBFB"/>
<g clip-path="url(#clip0_121_5456)">
<path d="M25.9275 63.5349C25.8109 63.663 25.7063 63.7746 25.6188 63.8678C25.0095 64.472 24.3396 65.0157 23.619 65.4908C22.8883 65.9853 22.1003 66.3949 21.2711 66.711C20.5527 66.9968 19.7768 67.1204 19.002 67.0722C18.6587 67.0452 18.3249 66.9486 18.0224 66.7886C17.7199 66.6286 17.4553 66.4088 17.2458 66.1433C16.9347 65.7573 16.7586 65.2849 16.7433 64.795C16.7392 64.3025 16.8439 63.815 17.0503 63.3651C17.3815 62.6481 17.822 61.9837 18.3572 61.3941C18.8432 60.8429 19.3756 60.3317 19.9488 59.866C20.4633 59.4615 20.8063 59.2234 20.9778 59.1552C20.9315 59.1086 20.8783 59.062 20.8166 59.0087C20.5032 58.7442 20.2291 58.4389 20.0019 58.1015C19.884 57.9178 19.8114 57.7101 19.79 57.4946C19.7686 57.2792 19.7988 57.0618 19.8784 56.8597C20.0701 56.4114 20.3484 56.0029 20.6983 55.6561C21.0447 55.2959 21.4223 54.9651 21.8268 54.6673C22.2058 54.391 22.4802 54.2062 22.6535 54.1063C23.5407 53.618 24.2456 53.3961 24.7681 53.4405C24.9988 53.448 25.2251 53.5031 25.4321 53.6022C25.6391 53.7012 25.822 53.8418 25.9687 54.0148C26.1659 54.2377 26.3009 54.5058 26.3609 54.7938C26.421 55.0817 26.404 55.3797 26.3117 55.6594C26.1402 56.2887 25.6548 56.8963 24.8608 57.4756C24.6618 57.5904 24.4166 57.5638 24.1319 57.3957C23.8677 57.2545 23.6554 57.0369 23.5247 56.7731C23.4104 56.5234 23.5053 56.3297 23.8094 56.1921C24.0425 56.0888 24.2619 55.9586 24.4629 55.8043C24.6839 55.6506 24.877 55.4621 25.034 55.2466C25.1729 55.0519 25.1952 54.8904 25.094 54.7639C24.998 54.6973 24.751 54.7639 24.3257 54.967C23.84 55.2119 23.3749 55.4936 22.9347 55.8093C22.4536 56.1409 22.0118 56.5234 21.6175 56.9495C21.2522 57.3524 21.0704 57.7153 21.0756 58.0415C21.0806 58.1256 21.113 58.2059 21.1682 58.2709C21.2234 58.3358 21.2985 58.382 21.3826 58.4028C21.5605 58.4513 21.7468 58.4632 21.9297 58.4377C22.0607 58.4251 22.1904 58.4018 22.3173 58.3678C22.4255 58.3467 22.5371 58.3495 22.644 58.376C22.7509 58.4025 22.8503 58.452 22.9347 58.521C23.1399 58.6666 23.3097 58.8541 23.4321 59.0703C23.5445 59.2564 23.6098 59.4658 23.6225 59.6812C23.6265 59.7193 23.6224 59.7578 23.6102 59.7942C23.598 59.8307 23.5781 59.8642 23.5518 59.8928C23.5255 59.9213 23.4933 59.9442 23.4573 59.9599C23.4213 59.9757 23.3824 59.9839 23.3429 59.9842C23.0565 60.0191 22.6294 60.2206 22.0635 60.5951C21.4435 61.0131 20.8575 61.4767 20.3106 61.9817C19.7506 62.4851 19.2507 63.0479 18.8202 63.6597C18.4258 64.229 18.2594 64.7217 18.3177 65.1479C18.4412 65.6306 18.8477 65.8138 19.5337 65.7122C20.2198 65.6107 21.031 65.311 21.9571 64.795C22.9193 64.2679 23.8213 63.6435 24.6481 62.9323C25.3341 62.3446 26.4558 61.0745 27.1161 60.1923C27.2593 59.8887 27.4268 59.5965 27.6169 59.3183C27.6604 59.2745 27.715 59.2427 27.7752 59.226C27.8355 59.2094 27.8992 59.2085 27.9599 59.2234C28.129 59.2482 28.2916 59.3048 28.4384 59.3899C28.5841 59.468 28.7161 59.568 28.8295 59.6862C28.9255 59.7927 28.9529 59.886 28.9049 59.9659C28.7506 60.1789 28.5499 60.5035 28.3046 60.9347C28.0429 61.4065 27.8192 61.8974 27.6358 62.4029C27.8416 62.07 28.1331 61.6388 28.4933 61.0995C28.8535 60.5601 29.2342 60.0358 29.6098 59.5397C29.8707 59.175 30.1652 58.834 30.4897 58.521C30.5657 58.4747 30.6518 58.4463 30.7411 58.4379C30.8304 58.4295 30.9204 58.4414 31.0042 58.4727C31.2148 58.5315 31.4092 58.635 31.5736 58.7757C31.646 58.8274 31.7047 58.8952 31.7447 58.9733C31.7846 59.0515 31.8048 59.1378 31.8034 59.2251C31.7851 59.3102 31.7599 59.3936 31.728 59.4748C31.6834 59.6013 31.6319 59.7445 31.5736 59.9059C31.4861 60.1473 31.4021 60.3704 31.3352 60.5718C31.284 60.6863 31.2532 60.8085 31.2443 60.933C31.2803 60.8881 31.3506 60.7999 31.4501 60.6683C31.7154 60.301 32.0755 59.8427 32.5306 59.2934C32.877 58.8531 33.2805 58.4581 33.7312 58.1181C34.0502 57.93 34.3572 57.9983 34.6522 58.3279C34.8144 58.4698 34.9432 58.6441 35.0295 58.8389C35.0785 59.0398 35.0446 59.2512 34.9352 59.4282C34.7636 59.7611 34.5544 60.2605 34.2886 60.8848C34.0227 61.509 33.774 62.1449 33.5717 62.7625C33.3995 63.1979 33.2843 63.6526 33.2287 64.1158C33.7009 63.8428 34.1617 63.3728 34.611 62.7059C34.866 62.3274 35.1015 61.9596 35.3176 61.6022C35.5604 60.8713 35.8782 60.1658 36.2661 59.4964C36.369 59.3766 36.5456 59.33 36.796 59.3766C37.0472 59.4091 37.287 59.4986 37.4958 59.6379C37.6947 59.7694 37.7582 59.9193 37.6861 60.0841C37.2704 60.8461 36.9071 61.6341 36.5988 62.4429C36.4033 63.0155 36.3364 63.3817 36.4033 63.5432C36.5027 63.7662 36.7857 63.6014 37.2608 63.0438C37.9356 62.1833 38.5559 61.2839 39.1182 60.3504C39.4958 59.3779 39.9275 58.426 40.4114 57.4989C41.1512 56.0806 41.8281 55.1068 42.4421 54.5774C42.5159 54.5211 42.6056 54.488 42.6993 54.4825C42.8708 54.4825 43.135 54.5824 43.4797 54.8038L43.586 54.8538C43.9102 55.0502 44.0765 55.23 44.0817 55.3964C44.0835 55.4338 44.0762 55.4711 44.0604 55.5052C44.0446 55.5393 44.0208 55.5694 43.9908 55.5929C43.2832 56.2443 42.6802 56.9951 42.202 57.8202C41.0917 59.6716 40.3031 61.6878 39.8677 63.7879C39.7416 64.3818 39.6881 64.988 39.7082 65.594C39.7354 65.8781 39.7795 66.1605 39.8403 66.4397C39.8691 66.601 39.9568 66.747 40.0873 66.8508C40.4301 66.426 40.8088 66.0296 41.2192 65.6656C41.8241 65.1174 42.4021 64.6269 42.9532 64.1941C43.6049 63.6758 43.9954 63.3251 44.1246 63.142C44.2498 62.8956 44.3853 62.5744 44.5396 62.1748C44.694 61.7753 44.8175 61.4474 44.9118 61.1894C44.5273 61.7761 44.0961 62.3327 43.6221 62.854C43.218 63.3167 42.7572 63.7299 42.25 64.0842C42.1432 64.1327 42.0276 64.1601 41.9099 64.165C41.7921 64.1698 41.6746 64.152 41.564 64.1125C41.2864 64.041 41.0309 63.905 40.8196 63.7163C40.7241 63.647 40.6486 63.555 40.6002 63.4492C40.5519 63.3434 40.5323 63.2273 40.5435 63.112C40.7029 62.3944 40.9374 61.6944 41.2432 61.0229C41.549 60.3077 41.9529 59.6358 42.4438 59.0253C42.5621 58.9171 42.7456 58.8955 42.9978 58.9604C43.2338 59.0227 43.4521 59.1366 43.6358 59.2934C43.8073 59.4465 43.8382 59.598 43.7198 59.7545C43.5259 59.9848 43.3537 60.2316 43.2053 60.4919C43.0098 60.8148 42.8285 61.1478 42.6616 61.4907C42.5191 61.7729 42.3998 62.0657 42.3049 62.3663C42.238 62.601 42.2551 62.7125 42.3615 62.6992C42.5947 62.6143 42.9635 62.2314 43.4728 61.5589C43.9822 60.8864 44.4762 60.1789 44.965 59.4398C45.4538 58.7007 45.7813 58.188 45.9528 57.9067C46.054 57.7735 46.2221 57.7402 46.4674 57.7835C46.7061 57.8306 46.9318 57.9265 47.1294 58.0649C47.3301 58.2063 47.4227 58.3495 47.4107 58.491C47.3421 58.8489 47.2392 59.2684 47.0848 59.7561C46.9304 60.2439 46.7915 60.7083 46.6492 61.1511C46.548 61.4657 46.4674 61.7337 46.4005 61.9501C46.8207 61.6655 47.1808 61.4241 47.4844 61.2343C47.788 61.0446 48.0898 60.8581 48.3986 60.6867C48.5495 60.6167 48.6558 60.6434 48.7056 60.7632C48.7604 60.9146 48.7543 61.0805 48.6884 61.2277C48.6158 61.4301 48.4789 61.605 48.2974 61.7271C47.4605 62.2043 46.666 62.7483 45.922 63.3534C45.7703 63.4723 45.6468 63.6217 45.5601 63.7912C45.256 64.4238 44.8803 65.1113 44.4333 65.8537C44.0055 66.5671 43.5148 67.2433 42.9669 67.8746C42.5386 68.4015 41.9903 68.8248 41.365 69.1114C41.0759 69.1734 40.7737 69.1388 40.5075 69.0132C40.1666 68.893 39.8761 68.6672 39.6808 68.3706C39.4841 68.071 39.5121 67.707 39.7648 67.2786L39.8008 67.2254L39.6808 67.217C39.4544 67.1987 39.1663 67.0506 38.8044 66.7792C38.4136 66.4486 38.1499 65.9991 38.0566 65.5041C38.0317 65.3789 38.0168 65.252 38.012 65.1246C37.9965 64.3375 38.0994 63.5524 38.3173 62.7941C38.0755 63.1453 37.8234 63.4816 37.5575 63.8045C37.1459 64.3095 36.7709 64.6424 36.4324 64.8033C36.2079 64.8822 35.9643 64.8944 35.7327 64.8383C35.4783 64.7863 35.2421 64.6716 35.0466 64.5053C34.9058 64.3904 34.8106 64.2315 34.7774 64.0559C34.5084 64.42 34.1723 64.7327 33.7861 64.9781C33.5564 65.0744 33.301 65.0972 33.0571 65.043C32.7871 65.0004 32.5279 64.9077 32.2939 64.77C32.1048 64.6764 31.9581 64.5181 31.8823 64.3256C31.8306 63.931 31.8603 63.5303 31.9698 63.147C32.0918 62.628 32.2424 62.1156 32.4208 61.6122C32.6061 61.0945 32.7639 60.6833 32.9079 60.372C32.3685 60.902 31.8964 61.4927 31.5016 62.1316C31.0152 62.893 30.6128 63.702 30.301 64.5453C30.253 64.6302 30.1398 64.6685 29.958 64.6568C29.7753 64.6419 29.5989 64.5848 29.4435 64.4904C29.365 64.4508 29.2974 64.3936 29.2464 64.3235C29.1954 64.2534 29.1624 64.1725 29.1502 64.0875C29.1682 63.7478 29.2199 63.4105 29.3045 63.0804C29.4109 62.621 29.5224 62.1748 29.6476 61.7487C29.7728 61.3226 29.8534 61.0396 29.8997 60.9164C29.5995 61.2293 29.1639 61.8403 28.5928 62.7475C28.0217 63.6547 27.4968 64.547 27.0183 65.4375C26.9429 65.5574 26.7954 65.604 26.5793 65.584C26.3645 65.5601 26.1568 65.4945 25.9687 65.3909C25.7783 65.2844 25.6789 65.1645 25.672 65.033C25.7195 64.5273 25.8095 64.0263 25.9413 63.5349H25.9275ZM40.5932 68.096C41.0365 67.7561 41.4392 67.3692 41.7938 66.9424C42.1898 66.4854 42.5482 65.9989 42.8657 65.4875C42.4083 65.9092 41.9304 66.3814 41.4319 66.9041C40.9334 67.4268 40.6515 67.8241 40.5864 68.096H40.5932ZM37.8285 58.774C37.7796 58.8358 37.7145 58.8839 37.64 58.9131C37.5655 58.9424 37.4844 58.9518 37.4049 58.9405C37.2233 58.9298 37.0469 58.8773 36.8904 58.7873C36.7291 58.6991 36.6537 58.5975 36.6605 58.476C36.7235 58.1389 36.8194 57.8084 36.9469 57.4889C37.0372 57.2519 37.1426 57.0207 37.2625 56.7964C37.3316 56.7227 37.4197 56.6684 37.5178 56.6392C37.6158 56.6099 37.7202 56.6067 37.8199 56.6299C38.0661 56.6524 38.3022 56.7354 38.506 56.8713C38.7066 57.0028 38.7666 57.1493 38.6878 57.3174C38.6414 57.4023 38.578 57.5105 38.5025 57.6504C38.3979 57.8401 38.2813 58.0382 38.1595 58.243C38.0377 58.4477 37.9297 58.6242 37.8354 58.769L37.8285 58.774Z" fill="#FBFBFB"/>
</g>
<defs>
<clipPath id="clip0_121_5456">
<rect width="32" height="26" fill="white" transform="translate(16.7432 47)"/>
</clipPath>
</defs>
</svg>
