<svg width="17" height="18" fill="none" xmlns="http://www.w3.org/2000/svg"><path d="M14.7171 1.31127c-1.7484-1.748359-4.5929-1.748359-6.34122 0L1.69933 7.98779c-.20605.20605-.20605.53986 0 .74591.20605.20605.53986.20605.74591 0l6.67652-6.67652c1.29604-1.295019 3.55334-1.295019 4.84934 0 1.3368 1.33674 1.3368 3.51214 0 4.84888L4.64827 16.3339c-.79742.7974-2.18672.7974-2.9841 0-.822653-.8226-.822653-2.1609 0-2.9836l8.94993-9.05543c.2988-.29876.8201-.29876 1.1189 0 .3085.30853.3085.81081 0 1.11937L3.15648 14.0962c-.17789.1779-.17789.568 0 .7459.20605.206.53986.206.74591 0l8.57641-8.68198c.7202-.72018.7202-1.89102 0-2.61116-.6974-.69746-1.9142-.69644-2.61061 0L.918263 12.6044c-1.224351 1.2243-1.224351 3.251 0 4.4754C1.51634 17.6779 2.31115 18 3.15645 18c.8453 0 1.64018-.3221 2.23773-.9202L14.717 7.65194c1.7484-1.74836 1.7484-4.59235.0001-6.34067z" fill="#2D2C2C"/></svg>