<svg width="15" height="15" fill="none" xmlns="http://www.w3.org/2000/svg"><path d="M13.278.604a2.066 2.066 0 00-2.92 0l-.73.735-7.777 7.774-.017.016c-.004.004-.004.009-.008.009-.008.012-.02.024-.029.037 0 .004-.004.004-.004.008l-.02.033c-.005.004-.005.008-.009.012l-.012.033c0 .004-.004.004-.004.009L.022 14.46a.406.406 0 00.099.42.415.415 0 00.425.1l5.185-1.73c.004 0 .004 0 .009-.005a.148.148 0 00.037-.016.015.015 0 00.008-.004l.041-.025c.012-.008.025-.02.037-.029.004-.004.008-.004.008-.008.005-.004.013-.008.017-.017l8.508-8.509a2.066 2.066 0 000-2.919L13.278.604zM5.599 12.279L2.726 9.406l7.191-7.192 2.873 2.873L5.6 12.28zm-3.278-2.11l2.51 2.51-3.769 1.256 1.26-3.765zm11.493-6.11l-.437.442-2.874-2.873.442-.442a1.238 1.238 0 011.75 0l1.123 1.123c.48.485.478 1.267-.004 1.75z" fill="#6D6D6D"/></svg>