<svg width="17" height="17" viewBox="0 0 17 17" fill="none" xmlns="http://www.w3.org/2000/svg">
<path d="M12.3084 0H4.69126C2.1045 0 0 2.1046 0 4.69136V12.3085C0 14.8954 2.1045 16.9999 4.69126 16.9999H12.3084C14.8954 16.9999 16.9999 14.8953 16.9999 12.3085V4.69136C17 2.1046 14.8954 0 12.3084 0ZM15.4917 12.3085C15.4917 14.0637 14.0637 15.4916 12.3085 15.4916H4.69126C2.93618 15.4917 1.50831 14.0637 1.50831 12.3085V4.69136C1.50831 2.93628 2.93618 1.50831 4.69126 1.50831H12.3084C14.0636 1.50831 15.4916 2.93628 15.4916 4.69136L15.4917 12.3085Z" fill="#FBFBFB"/>
<path d="M8.50056 4.11963C6.08515 4.11963 4.12012 6.08466 4.12012 8.50007C4.12012 10.9154 6.08515 12.8803 8.50056 12.8803C10.916 12.8803 12.881 10.9154 12.881 8.50007C12.881 6.08466 10.916 4.11963 8.50056 4.11963ZM8.50056 11.3719C6.91693 11.3719 5.62843 10.0836 5.62843 8.49997C5.62843 6.91624 6.91683 5.62784 8.50056 5.62784C10.0843 5.62784 11.3727 6.91624 11.3727 8.49997C11.3727 10.0836 10.0842 11.3719 8.50056 11.3719Z" fill="#FBFBFB"/>
<path d="M13.0641 2.84082C12.7735 2.84082 12.488 2.95847 12.2828 3.16461C12.0766 3.36974 11.958 3.65531 11.958 3.94692C11.958 4.23762 12.0767 4.52309 12.2828 4.72923C12.4879 4.93436 12.7735 5.05301 13.0641 5.05301C13.3557 5.05301 13.6403 4.93436 13.8464 4.72923C14.0525 4.52309 14.1702 4.23752 14.1702 3.94692C14.1702 3.65531 14.0525 3.36974 13.8464 3.16461C13.6413 2.95847 13.3557 2.84082 13.0641 2.84082Z" fill="#FBFBFB"/>
</svg>
