<svg width="367" height="305" viewBox="0 0 367 305" fill="none" xmlns="http://www.w3.org/2000/svg">
<g clip-path="url(#clip0_121_5441)">
<path d="M105.788 193.967C104.454 195.47 103.258 196.779 102.257 197.872C95.2881 204.96 87.626 211.338 79.3848 216.911C71.0269 222.713 62.0137 227.517 52.5302 231.225C44.3141 234.578 35.4395 236.027 26.5779 235.463C22.6503 235.146 18.8332 234.013 15.3732 232.136C11.9132 230.259 8.88719 227.68 6.49081 224.566C2.9324 220.037 0.918847 214.496 0.743249 208.749C0.696719 202.972 1.89402 197.252 4.25456 191.975C8.0426 183.565 13.0817 175.77 19.2021 168.854C24.7611 162.387 30.85 156.391 37.406 150.928C43.2909 146.183 47.2142 143.39 49.1758 142.59C48.6461 142.043 48.038 141.496 47.3318 140.871C43.7477 137.769 40.6121 134.187 38.0141 130.229C36.6648 128.074 35.835 125.638 35.59 123.11C35.345 120.583 35.6913 118.033 36.6018 115.661C38.7943 110.403 41.977 105.611 45.9783 101.543C49.9413 97.3179 54.2595 93.4373 58.8858 89.9436C63.221 86.7021 66.3596 84.5345 68.3409 83.3629C78.489 77.6348 86.5513 75.0311 92.5277 75.5519C95.1657 75.6404 97.7545 76.287 100.122 77.4486C102.49 78.6102 104.582 80.2602 106.259 82.2889C108.514 84.9034 110.058 88.0493 110.745 91.4267C111.432 94.8041 111.238 98.3004 110.182 101.582C108.221 108.963 102.669 116.091 93.587 122.887C91.3115 124.234 88.5064 123.921 85.2501 121.949C82.2284 120.293 79.8009 117.74 78.3059 114.646C76.9982 111.717 78.0836 109.445 81.5622 107.831C84.2279 106.618 86.7372 105.091 89.036 103.281C91.5643 101.478 93.7721 99.2668 95.5682 96.7392C97.1571 94.4545 97.4121 92.5603 96.2548 91.0762C95.1563 90.2951 92.3315 91.0762 87.4667 93.4586C81.912 96.3323 76.5927 99.6362 71.5579 103.34C66.055 107.23 61.0023 111.716 56.4926 116.716C52.3144 121.442 50.2351 125.698 50.2939 129.526C50.3509 130.512 50.722 131.454 51.3534 132.216C51.9847 132.978 52.8436 133.52 53.8052 133.763C55.8397 134.332 57.971 134.472 60.0628 134.173C61.5612 134.026 63.0444 133.751 64.4961 133.353C65.7331 133.105 67.0104 133.138 68.2331 133.449C69.4557 133.76 70.5921 134.341 71.5579 135.15C73.9044 136.858 75.8462 139.058 77.2466 141.594C78.5325 143.777 79.2788 146.234 79.424 148.76C79.4706 149.207 79.4227 149.659 79.2834 150.086C79.1442 150.514 78.9168 150.907 78.6157 151.242C78.3146 151.577 77.9465 151.845 77.535 152.03C77.1236 152.214 76.6779 152.311 76.2266 152.314C72.9507 152.725 68.0662 155.087 61.5929 159.481C54.5023 164.385 47.8 169.823 41.5451 175.747C35.1399 181.652 29.4218 188.255 24.4985 195.431C19.9868 202.11 18.084 207.89 18.751 212.889C20.1633 218.552 24.8124 220.7 32.6589 219.509C40.5054 218.317 49.7839 214.802 60.3767 208.749C71.3811 202.566 81.6977 195.241 91.1546 186.898C99.0011 180.004 111.83 165.105 119.382 154.755C121.02 151.195 122.936 147.767 125.11 144.503C125.607 143.99 126.232 143.616 126.921 143.421C127.61 143.225 128.339 143.215 129.034 143.39C130.968 143.681 132.827 144.345 134.506 145.343C136.173 146.259 137.682 147.432 138.979 148.819C140.077 150.069 140.391 151.162 139.842 152.1C138.077 154.599 135.782 158.407 132.976 163.465C129.982 169 127.424 174.758 125.326 180.688C127.68 176.782 131.015 171.725 135.134 165.398C139.254 159.071 143.608 152.92 147.904 147.101C150.888 142.822 154.257 138.822 157.968 135.15C158.837 134.607 159.821 134.274 160.843 134.175C161.864 134.077 162.895 134.217 163.852 134.584C166.261 135.274 168.485 136.488 170.365 138.138C171.193 138.744 171.864 139.539 172.322 140.456C172.779 141.374 173.009 142.386 172.994 143.41C172.784 144.408 172.496 145.387 172.13 146.339C171.62 147.823 171.032 149.503 170.365 151.397C169.365 154.228 168.403 156.845 167.638 159.208C167.052 160.551 166.701 161.984 166.599 163.445C167.011 162.918 167.815 161.883 168.953 160.34C171.987 156.031 176.106 150.655 181.311 144.211C185.273 139.046 189.888 134.412 195.042 130.424C198.691 128.218 202.202 129.018 205.576 132.885C207.432 134.55 208.904 136.595 209.892 138.88C210.452 141.236 210.065 143.717 208.813 145.792C206.851 149.698 204.458 155.556 201.418 162.879C198.377 170.202 195.533 177.661 193.218 184.906C191.249 190.014 189.931 195.347 189.295 200.782C194.696 197.579 199.966 192.066 205.105 184.242C208.022 179.803 210.716 175.487 213.187 171.295C215.965 162.721 219.599 154.445 224.035 146.593C225.212 145.187 227.232 144.64 230.096 145.187C232.969 145.568 235.712 146.618 238.1 148.253C240.375 149.795 241.101 151.553 240.277 153.486C235.522 162.426 231.367 171.67 227.841 181.157C225.604 187.874 224.839 192.17 225.604 194.064C226.742 196.681 229.979 194.748 235.412 188.206C243.13 178.112 250.225 167.561 256.657 156.611C260.975 145.202 265.912 134.035 271.448 123.16C279.909 106.522 287.651 95.0989 294.673 88.8892C295.517 88.2288 296.544 87.8405 297.616 87.7761C299.577 87.7761 302.598 88.9477 306.541 91.5449L307.757 92.1307C311.465 94.435 313.367 96.5439 313.426 98.4967C313.447 98.9351 313.364 99.3722 313.183 99.7725C313.003 100.173 312.73 100.525 312.387 100.801C304.293 108.443 297.397 117.25 291.927 126.929C279.228 148.647 270.208 172.299 265.229 196.935C263.787 203.901 263.174 211.013 263.405 218.122C263.716 221.455 264.22 224.767 264.915 228.042C265.245 229.935 266.248 231.647 267.74 232.865C271.662 227.882 275.992 223.232 280.687 218.962C287.605 212.531 294.215 206.777 300.519 201.7C307.973 195.62 312.439 191.506 313.917 189.358C315.349 186.468 316.898 182.699 318.664 178.013C320.429 173.326 321.842 169.479 322.921 166.452C318.523 173.335 313.591 179.864 308.169 185.98C303.548 191.408 298.278 196.254 292.476 200.411C291.255 200.979 289.933 201.302 288.586 201.359C287.24 201.416 285.895 201.206 284.63 200.743C281.455 199.904 278.533 198.309 276.116 196.095C275.024 195.282 274.16 194.203 273.607 192.961C273.054 191.72 272.831 190.359 272.958 189.007C274.782 180.588 277.464 172.377 280.961 164.5C284.459 156.109 289.078 148.227 294.693 141.067C296.046 139.797 298.145 139.543 301.029 140.305C303.729 141.035 306.225 142.371 308.326 144.211C310.288 146.007 310.641 147.784 309.287 149.62C307.069 152.322 305.1 155.217 303.402 158.27C301.166 162.059 299.093 165.964 297.184 169.987C295.554 173.298 294.189 176.733 293.104 180.258C292.339 183.012 292.535 184.32 293.751 184.164C296.419 183.168 300.637 178.677 306.463 170.787C312.289 162.898 317.938 154.599 323.529 145.929C329.119 137.259 332.866 131.244 334.828 127.944C335.985 126.382 337.907 125.991 340.713 126.499C343.443 127.051 346.025 128.176 348.284 129.799C350.579 131.459 351.639 133.138 351.501 134.798C350.717 138.997 349.54 143.918 347.774 149.639C346.009 155.361 344.42 160.809 342.792 166.003C341.634 169.694 340.713 172.838 339.947 175.376C344.753 172.037 348.873 169.206 352.345 166.98C355.817 164.753 359.27 162.566 362.8 160.555C364.527 159.735 365.743 160.047 366.312 161.453C366.939 163.229 366.869 165.175 366.116 166.902C365.286 169.276 363.719 171.328 361.643 172.76C352.071 178.358 342.984 184.74 334.475 191.838C332.739 193.233 331.327 194.985 330.336 196.974C326.857 204.394 322.561 212.459 317.448 221.168C312.555 229.537 306.943 237.469 300.676 244.875C295.777 251.056 289.506 256.022 282.354 259.384C279.048 260.111 275.592 259.705 272.546 258.232C268.648 256.822 265.325 254.173 263.091 250.694C260.842 247.179 261.162 242.909 264.052 237.884L264.464 237.259L263.091 237.161C260.502 236.947 257.206 235.209 253.067 232.026C248.597 228.147 245.582 222.874 244.514 217.068C244.229 215.599 244.059 214.11 244.004 212.615C243.827 203.382 245.004 194.172 247.496 185.277C244.73 189.397 241.847 193.342 238.806 197.13C234.098 203.053 229.809 206.959 225.938 208.847C223.37 209.772 220.584 209.915 217.934 209.257C215.026 208.647 212.323 207.302 210.088 205.351C208.478 204.003 207.389 202.139 207.008 200.079C203.931 204.35 200.087 208.018 195.67 210.897C193.043 212.027 190.123 212.294 187.333 211.659C184.244 211.158 181.28 210.071 178.604 208.456C176.44 207.358 174.763 205.5 173.896 203.242C173.304 198.613 173.644 193.913 174.896 189.417C176.292 183.328 178.014 177.318 180.055 171.412C182.174 165.339 183.979 160.516 185.626 156.864C179.457 163.081 174.057 170.011 169.541 177.505C163.978 186.437 159.376 195.928 155.81 205.82C155.26 206.816 153.966 207.265 151.886 207.128C149.797 206.953 147.779 206.284 146.002 205.175C145.104 204.711 144.331 204.04 143.748 203.218C143.164 202.396 142.787 201.447 142.647 200.45C142.854 196.464 143.445 192.508 144.413 188.636C145.629 183.246 146.904 178.013 148.336 173.014C149.768 168.015 150.69 164.695 151.22 163.25C147.787 166.921 142.804 174.088 136.272 184.73C129.74 195.373 123.737 205.839 118.264 216.287C117.401 217.693 115.714 218.239 113.242 218.005C110.785 217.725 108.41 216.954 106.259 215.74C104.082 214.49 102.944 213.084 102.865 211.541C103.409 205.609 104.439 199.731 105.945 193.967H105.788ZM273.527 247.472C278.597 243.485 283.202 238.946 287.258 233.939C291.788 228.579 295.887 222.872 299.518 216.872C294.287 221.819 288.821 227.359 283.119 233.49C277.417 239.622 274.194 244.283 273.448 247.472H273.527ZM241.905 138.118C241.346 138.844 240.602 139.407 239.75 139.75C238.898 140.094 237.969 140.204 237.06 140.071C234.983 139.946 232.966 139.33 231.175 138.274C229.331 137.239 228.468 136.048 228.547 134.623C229.267 130.668 230.364 126.79 231.823 123.043C232.855 120.263 234.061 117.55 235.432 114.919C236.222 114.055 237.23 113.418 238.351 113.075C239.473 112.731 240.666 112.694 241.807 112.967C244.622 113.23 247.323 114.204 249.654 115.798C251.949 117.341 252.636 119.059 251.733 121.031C251.204 122.027 250.478 123.297 249.615 124.937C248.418 127.163 247.084 129.487 245.691 131.889C244.299 134.291 243.063 136.361 241.984 138.059L241.905 138.118Z" fill="#FBFBFB"/>
<path d="M103.807 303.77L104.18 304.336L104.709 304.629H111.32H111.85H113.635L115.42 304.746H115.969L116.577 304.453L116.852 303.906V303.34V301.544V300.997L116.479 300.411L115.596 300.118H111.673H111.124H110.477H109.849L109.221 299.767L108.966 298.868V297.443L109.241 296.818L109.77 296.506H110.908H111.497H113.027H113.831H114.439H114.969L115.557 296.174L115.832 295.627V293.323V292.756L115.577 292.19L115.086 291.878H113.909H113.321H112.713H112.046H109.731L109.241 291.565L108.888 291.038V290.14L109.182 289.28L110.084 289.027H115.694L116.303 288.714L116.636 288.187V286.996V286.449V285.804V285.258L116.342 284.672L115.734 284.418H113.399H112.87L112.281 284.32H111.006H110.418H109.28H108.75H104.827L103.984 284.516L103.689 285.16V286.312L103.572 287.171L103.689 288.636V289.261V289.788V294.982L103.591 295.607L103.689 296.74V297.892V298.517V299.142V299.708L103.591 300.235V300.899V301.485V302.618V303.184L103.474 303.77H103.807ZM128.072 304.844H128.935H129.857L132.721 304.297L134.251 303.477L135.193 302.852L135.997 301.915L136.586 300.977L136.821 300.45L136.998 299.884V299.357V297.54V296.974L136.86 296.408L136.272 295.334L135.566 294.436L135.075 294.026L133.526 293.323L131.152 292.912L128.19 292.522L126.974 292.092L126.523 291.858L126.071 291.389V290.608L126.17 289.847L126.483 289.437L126.974 289.066L127.386 288.89L127.915 288.773H129.877L130.524 289.007L130.956 289.358L131.937 290.374L132.839 290.667H134.801H135.33H135.88L136.448 290.315L136.703 289.769L136.468 288.636L135.997 287.581L135.625 287.113L135.33 286.644L134.958 286.215L132.996 284.926L131.387 284.379L130.779 284.262H130.25L129.602 284.125H127.974L125.659 284.594L125.13 284.789L124.679 285.082L124.208 285.258L123.619 285.609L123.207 285.98L122.678 286.332L122.364 286.839L121.991 287.21L121.775 287.738L121.481 288.206L121.069 289.886V291.838L121.265 292.659L121.658 293.674L122.384 294.631L123.207 295.392L124.228 295.998L125.895 296.545L126.935 296.779L129.347 296.955L129.857 297.052H130.446L131.505 297.501L131.917 297.833L132.054 298.595L131.878 299.357L131.407 299.767L130.936 300.02L129.857 300.352H129.053H128.17L127.503 300.177L127.052 299.981L126.542 299.649L126.091 299.239L125.659 298.673L125.071 298.439H122.854H122.266H121.677L121.089 298.712L120.893 299.318V299.962L121.01 300.47L121.481 301.641L122.207 302.54L123.051 303.379L123.541 303.711L125.659 304.668L126.287 304.629L126.836 304.824H128.053L128.072 304.844ZM144.256 303.711L144.491 304.336L145.119 304.629H145.668H146.257H146.806H148.63L149.199 304.395L149.434 303.809V303.243V302.579V301.426V300.919V300.313V298.536V298.009V296.798L149.317 290.94V290.354V289.73L149.552 289.202L150.199 288.929H151.278H151.808H153.416L154.083 288.656L154.378 288.089V287.464V285.082L154.083 284.496L153.495 284.223H152.808H152.338H151.769H151.141H150.553H149.964H149.376H148.709H139.999L139.352 284.516L139.057 285.101V288.011L139.371 288.656L139.96 288.948H140.725H143.314L143.844 289.261L144.138 289.827V293.03V293.928V294.475V295.061V296.213V297.072V297.931V299.122V300.899V301.485V303.75L144.256 303.711ZM157.987 303.711L158.34 304.356L158.811 304.629H159.635H160.263H160.831H161.459H166.716L168.678 304.375L170.385 303.848L172.856 302.188L174.033 300.841L174.936 299.396L175.092 298.849L175.367 298.283L175.485 297.697L175.701 297.189V296.564L175.857 295.959V295.471L175.975 293.518L175.544 291.858V291.253L175.387 290.725L174.955 289.573L174.288 288.577L174.053 288.089L173.288 287.171L172.797 286.8L171.973 286.019L170.895 285.355L170.306 285.062L168.698 284.535L167.501 284.301H163.146H162.558H160.596H160.027H159.498H158.889L158.36 284.633L157.909 285.18V286.371V286.957V287.542V288.656V289.28V289.866V290.452L158.026 292.776V293.889V295.139V295.685V296.291V297.443V299.767V300.333V302.676V303.77L157.987 303.711ZM164.186 299.942L163.48 299.669L163.225 299.025V298.458L163.107 297.931V297.345V289.866L163.44 289.339L164.303 289.027H165.52H166.402L167.56 289.378L168.56 290.022L169.443 290.96L169.776 291.526L170.149 291.975L170.502 293.694V294.592L170.365 296.017L170.188 296.584L169.757 297.619L169.364 298.146L168.992 298.556L168.639 299.025L168.168 299.318L167.599 299.61L166.54 299.903L164.107 300.02L164.186 299.942ZM181.213 304.727H181.958H182.272H182.566L182.88 304.629L183.272 304.395L183.508 304.278L183.763 304.043L184.018 303.75L184.234 303.457L184.489 302.559V301.876L184.371 301.544V301.212L184.194 300.841L183.998 300.548L183.782 300.372L183.586 300.079L183.253 299.903L182.998 299.728H182.645L182.272 299.591H181.939H181.272L180.624 299.708L180.252 299.825L180.016 299.942L179.428 300.431L178.957 300.919V301.212L178.8 301.544V302.93V303.262L178.957 303.575L179.133 303.809L179.447 304.063L179.604 304.297L180.271 304.688H180.526H180.918L181.213 304.727ZM189.334 304.727H190.02H197.494H197.965H201.496L202.084 304.414L202.32 303.828V303.262V302.696V302.11V300.938L202.084 300.313L201.084 300.079H197.396L196.71 299.903V299.435L197.023 298.888L198.436 297.033L198.867 296.525L199.122 296.095L200.829 293.713L201.005 293.108L201.535 291.995L201.751 290.862V290.296L201.535 288.558L200.437 286.605L200.064 286.176L199.632 285.765L198.083 284.809L197.573 284.535L196.729 284.379L194.768 284.203H193.375L192.257 284.496L191.217 284.965L190.687 285.316L189.432 286.527L189.157 286.996L188.431 288.695V289.261L188.314 289.847L188.588 290.374L189.118 290.686H191.982L192.551 290.413L192.904 289.905L193.1 289.398L193.571 289.027L194.002 288.812H194.846H195.65L196.043 289.144L196.396 289.632L196.494 290.237V290.764L196.356 291.35L196.003 292.17L195.533 292.893L195.062 293.323L194.14 294.904L192.727 296.857L192.472 297.365L191.394 298.79L191.099 299.357L190.707 299.767L190.472 300.294L190.06 300.763L189.785 301.231L189.491 301.778L189.04 302.208L188.353 303.203L188.059 303.906L188.176 304.551L189.275 304.766L189.334 304.727ZM213.442 305H214.403L215.522 304.902L216.895 304.629L217.974 304.219L219.582 303.34L219.994 302.911L220.975 301.563L221.603 300.489L221.858 299.415V290.12L221.622 288.929L221.348 288.382L221.151 287.796L220.622 286.898L220.19 286.429L219.916 286L219.464 285.59L217.915 284.711L217.405 284.477L216.797 284.281L215.678 284.047H213.383L211.029 284.535L210.519 284.73L210.049 285.062L209.48 285.355L208.617 286.097L208.224 286.547L207.793 286.957L207.538 287.406L207.302 287.933L206.596 290.179V291.897L206.714 292.541L206.577 294.26L206.694 294.826V295.412V295.998V299.513L206.988 300.626L207.283 301.153L207.498 301.641L208.224 302.54L208.597 302.989L209.068 303.379L209.597 303.672L210.009 304.004L210.598 304.317L212.167 304.805L213.364 305.02L213.442 305ZM215.247 300.255L214.325 300.372H213.442L212.834 300.157L212.422 299.903L212.069 299.435L211.873 298.849L211.638 297.951V290.96L211.775 290.101L212.069 289.554L212.442 289.144L213.423 288.616H215.208L215.757 288.812L216.247 289.163L216.581 289.632L216.777 290.159L216.914 290.999L217.032 292.405L216.914 294.69L217.032 295.217V295.803V296.388V296.877V297.755L216.895 298.654L216.718 299.181L216.287 299.649L215.835 299.942L215.306 300.138L215.247 300.255ZM227.232 304.727H227.899H235.393H235.864H239.395L239.983 304.414L240.199 303.828V303.262V302.696L240.297 302.11V300.938L240.081 300.313L239.081 300.079H235.393L234.687 299.903V299.435L235.02 298.888L236.413 297.033L236.864 296.525L237.119 296.095L238.826 293.713L238.983 293.108L239.512 291.995L239.748 290.862V290.296L239.512 288.558L238.433 286.605L238.061 286.176L237.609 285.765L236.06 284.809L235.569 284.535L234.726 284.379L232.764 284.203H231.371L230.253 284.496L229.194 284.965L228.664 285.316L227.409 286.527L227.154 286.996L226.428 288.695V289.261L226.31 289.847L226.605 290.374L227.134 290.686H229.998L230.548 290.413L230.901 289.905L231.116 289.398L231.587 289.027L232.019 288.812H232.862H233.647L234.059 289.144L234.412 289.632V290.237V290.764L234.275 291.35L233.922 292.17L233.451 292.893L232.98 293.323L232.215 294.865L230.822 296.818L230.548 297.326L229.469 298.751L229.174 299.318L228.802 299.728L228.566 300.255L228.154 300.723L227.86 301.192L227.566 301.739L227.134 302.169L226.428 303.164L226.134 303.867L226.252 304.512L227.37 304.727H227.232ZM244.318 303.887L244.534 304.453L245.221 304.766H249.791H250.34H254.381H254.931L255.578 304.473L255.813 303.867V303.34V302.735L255.715 302.169V301.153L255.382 300.548L254.891 300.255H253.224L252.635 299.962L252.459 299.357V296.994V296.408V295.9V295.256V294.67V294.123L252.341 293.537V292.912V292.346V291.76V291.194V288.831L252.459 288.245L252.302 287.601L252.42 287.054V286.449V285.863V285.316L252.125 284.691L251.458 284.32H249.732H249.144H245.417L244.848 284.574L244.593 285.199V286.234L244.495 286.742L244.612 287.289V287.933L244.848 288.48L245.397 288.714H246.221L247.104 289.007L247.418 289.612V293.518V294.69V295.275V295.842V296.427V298.478L247.535 299.318L247.221 299.923L246.77 300.196H246.201H245.083L244.593 300.489L244.2 301.036V301.661V302.208V302.676V303.164V303.75L244.318 303.887Z" fill="#FBFBFB"/>
<path d="M28.9514 76.333L29.6379 76.704H30.4422L31.3053 75.9034L32.2077 75.3176L36.229 72.0955L36.8567 71.7245L39.6422 69.3421L40.0738 68.854L41.29 67.1941L41.6039 66.5302L42.0158 64.7727V63.1519L41.8589 62.3708L41.6235 61.7069L41.4273 61.0039L39.6422 58.5825L38.5437 57.8014L37.1313 57.0593L36.4252 56.9227H35.6797L34.8951 56.4931L34.6597 55.8096L34.3458 54.306L33.8947 53.0367L33.1689 52.0603L32.4234 51.2402L31.4034 50.42L30.7561 49.9904L28.7944 49.4241H28.0686H27.4213H26.7936L26.0874 49.5217L25.3616 49.678L24.7535 49.8928L23.4588 50.4981L20.5164 52.7242L20.1044 53.232L18.9078 53.9545L18.3978 54.3646L15.0434 56.9617L14.6511 57.7233L14.8277 58.5434L15.3181 59.1488L15.7692 59.6175L16.2008 60.2228L16.6127 60.6915L17.8682 62.3904L18.8686 63.5034L22.9684 68.9125L23.7138 69.6936L28.4806 75.8643L28.9514 76.333ZM25.9893 60.711L25.1262 60.8282L24.2827 60.379L23.5177 59.4417L23.2038 58.3677L23.4784 57.6256L26.519 55.5557L27.1467 55.4386L27.7155 55.712L28.461 56.4735L28.9121 57.4304L28.7552 58.0943L28.1667 59.0121L26.0678 60.7891L25.9893 60.711ZM31.8742 68.2291L31.2072 68.4439L30.403 68.151L29.1671 66.413L29.0495 65.7491L29.2456 65.007L29.8341 64.6751L30.3834 64.1674L33.1296 62.488L33.7574 62.3122L34.4243 62.6052L35.1501 63.1715L35.6601 64.0892V64.7141L35.4247 65.3976L33.9927 66.745L31.7761 68.3462L31.8742 68.2291ZM48.5676 60.5352L49.4307 61.3163L50.5685 61.1797L51.1177 60.7305L52.1574 60.2619L52.6086 59.9104L53.5305 59.3636L54.3348 58.4849L54.0994 57.4304L53.4913 56.3954L53.2167 55.8096L52.7459 55.2238L51.667 53.271V52.5094L52.0397 51.826L54.0013 51.0254L54.9233 51.2011L55.6491 51.5917L56.218 52.0017L57.3949 52.5485L58.6308 53.3101L59.2389 53.5639L59.847 54.0326L60.4943 54.3646L61.4947 54.5208L62.7109 54.1888L65.0257 52.7242L65.6534 52.4509L66.6342 51.826L67.0657 51.2011L66.85 50.42L66.1242 49.9513L65.4768 49.7756L64.8883 49.3265L62.9267 48.3891L62.3186 47.9986L60.357 46.9636L59.7293 46.7293L59.2585 46.0068L59.1408 45.1671L59.2977 44.4641L59.5135 43.8392L59.592 41.0077L58.9446 39.055L57.6303 37.1022L57.1792 36.5555L55.6687 35.1495L55.1194 34.7785L54.4917 34.4856L51.6474 33.6654H50.235L48.8226 33.9388L46.861 34.5637L45.8606 35.1495L44.9975 35.7353L43.1535 36.8093L42.467 37.0437L41.8392 37.3952L41.3881 37.8833L40.7604 38.2348L40.0738 38.4692L39.3872 38.8402L37.661 40.0509L37.2883 40.6758L37.4256 41.7498L41.5646 48.7406L41.9962 49.3265L42.6239 50.6153L43.0555 51.2597L43.4085 51.8846L43.8205 52.4313L44.0951 53.0367L45.5271 55.5362L45.939 56.122L48.5676 60.5352ZM49.0973 46.866H48.2734L47.8222 46.6121L46.7433 44.7766L46.3706 44.2884L45.6056 42.9605V42.1989L46.1156 41.5936L46.7433 41.2616L47.9007 40.4219L48.8815 40.1095L49.7054 39.6994L50.3919 39.5041L51.7258 40.0118L52.1966 40.4024L52.7851 41.1249L53.2363 42.1013V42.8629V43.5268L53.0597 43.9955L52.6478 44.5618L51.8828 45.3038L51.3139 45.6748L49.8034 46.4754L49.1757 46.9246L49.0973 46.866ZM82.6999 44.9132L85.4854 43.3706L86.5447 42.4333L88.879 39.8752L90.2129 36.6922L90.3895 35.9306L90.6641 33.1967V32.4742L90.4679 31.7908V31.1854L90.2718 30.4043L89.4479 28.061L88.2905 25.8935L87.5059 24.7999L86.937 24.2336L86.3877 23.433L85.3285 22.6128L84.8577 22.1247L84.1711 21.7732L83.6219 21.5388L82.9353 21.1483L80.9737 20.4843L78.8551 20.1719L73.9903 20.6992L72.4406 21.3436L70.2043 22.4566L69.5962 22.8862L69.047 23.3549L68.5566 23.8626L67.4581 24.7413L66.2615 26.4988L65.9672 27.0846L65.2414 28.2563L64.7903 29.6232L64.3979 31.7322V32.4156L64.5549 34.466L64.908 35.9892L66.438 39.8947L67.6935 41.8474L68.6743 42.7457L69.1647 43.3315L69.7532 43.7807L72.2052 45.1866L73.4999 45.6748L74.1472 45.9677L76.8739 46.1825H77.6193L80.7579 45.792L82.7195 45.0304L82.6999 44.9132ZM79.2082 39.6018H78.4628L77.8351 39.7775H76.4619L75.0692 39.3479L74.5984 39.055L73.9707 38.7816L72.5583 37.2194L71.6756 35.6767L71.2832 34.6808L70.989 33.3725V32.7086L71.1655 32.0837V31.4002L71.3617 30.6972L71.6756 30.0528L72.3229 28.9983L72.7937 28.4516L73.3233 27.9243L74.7749 27.1432L76.3835 26.5574H78.3451L79.679 26.8698L80.9148 27.6314L81.4445 28.1196L81.9153 28.6664L82.4057 29.1546L83.1511 30.502L83.6807 32.2204L83.9553 33.6849L83.818 34.3293V34.9347L83.6807 35.6963L83.1315 36.907L82.6607 37.4342L82.2683 37.9615L81.6995 38.2739L81.1502 38.7035L79.2867 39.6018H79.2082ZM110.928 35.1495L113.929 34.0364L115.126 33.2749L117.833 31.1073L119.637 28.1587L119.932 27.4361L120.638 24.7023V23.9993V23.2768V22.6714V21.8903L120.167 19.4299L119.382 17.1061L118.755 15.9149L118.303 15.2705L117.911 14.5285L116.989 13.5521L116.597 13.0053L115.989 12.5367L115.459 12.2242L114.851 11.7165L113.027 10.7792L110.967 10.1348L106.082 9.86139L104.454 10.2519L102.061 11.0135L101.414 11.3259L100.786 11.7165L100.237 12.1461L99.0206 12.8296L97.5494 14.3918L97.1767 14.9385L96.2743 15.9735L95.6074 17.2623L94.8816 19.2151L94.7247 19.879L94.5677 21.9489L94.6854 23.4916L95.6074 27.5142L96.549 29.5842L97.3728 30.6191L97.7652 31.2831L98.2752 31.8103L100.492 33.5678L101.688 34.2512L102.277 34.6418L104.945 35.2667L105.671 35.3643L108.829 35.4619L110.928 35.1495ZM108.378 29.2912H107.613H106.985L105.651 28.9788L104.337 28.3344L103.866 27.9439L103.277 27.5728L102.12 25.8349L101.492 24.1555L101.257 23.1206L101.159 21.7732V21.1092L101.453 20.5234L101.61 19.8595L101.924 19.1955L102.316 18.6097L103.14 17.6529L103.67 17.1842L104.356 16.8327L105.906 16.2664L107.593 15.9344L109.555 16.2469L110.83 16.7741L111.948 17.731L112.379 18.2777L112.772 18.9026L113.164 19.4494L113.694 20.8944L113.949 22.6714V24.1555L113.713 24.7804L113.537 25.3662L113.282 26.0887L112.556 27.3385L112.007 27.7681L111.536 28.2172L110.928 28.4516L110.32 28.8031L108.358 29.3889L108.378 29.2912ZM129.661 29.9357L131.839 29.5061H132.839L133.938 29.2327L134.604 28.8421L134.879 28.0024L134.369 25.21V24.468L133.702 20.7968L133.996 20.1329L134.82 19.6251H135.781L136.684 20.0938L137.115 20.6015L137.488 21.3045L139.293 23.433L139.626 23.9993L140.019 24.4484L140.882 25.6396L141.392 26.1083L141.843 26.7136L142.274 27.1237L143.039 27.6705L143.903 27.9048L147.453 27.3385L148.081 27.1628H148.787L149.513 26.8698V26.0692L146.708 22.4371L146.178 21.9489L144.805 20.3086L144.334 19.879L143.942 19.0588L143.569 18.5121L142.137 16.8327L141.863 16.0321L142.216 15.2314L143.157 14.1574L144.079 12.5367L144.471 11.5603L144.609 10.8768L144.903 8.74832V6.4636L144.589 5.85825L144.354 3.67117L143.942 2.92912L143.118 2.73385H142.039L140.901 3.04629H139.822L138.763 3.24156L138.057 3.9055L137.88 4.62802L137.998 5.38959V6.07305L138.155 6.77604V9.09981L138.057 9.60753V10.3691L137.37 11.7165L136.272 12.771L135.664 13.1615L134.918 13.3763L134.232 13.6692H133.467L132.8 13.3373L132.506 12.6343V11.9508L132.074 9.43178L131.917 8.8069V7.96722L131.721 6.87368L131.564 5.42864L131.015 4.94046L129.955 4.78424H128.17L127.503 4.92093H126.778L126.013 5.07715L125.248 5.85825L125.032 6.56124V7.18612L125.738 11.4431V12.107L125.934 12.7905L126.523 17.1256L126.719 17.7114V19.1565L126.954 19.918L127.131 21.285L127.288 21.9099L127.405 23.3744L127.7 24.7999V25.3662L127.896 26.0887V26.8113L128.229 28.5883L128.759 29.6232L129.445 29.9357H129.661ZM154.437 25.1709L154.77 26.0692L155.476 26.3621H156.182L157.673 26.1278H159.066L160.4 25.9325H161.086L161.871 25.7958L168.894 25.21L169.541 24.7804L169.835 23.6478L169.541 20.7968L169.129 19.7618L168.443 19.3908L167.717 19.5275L167.05 19.7228H166.304L164.833 19.8985H164.127L163.48 20.0547H162.087L161.361 20.1914L160.616 19.9766L160.282 19.2932L159.243 7.2447L159.086 6.40502V4.97951L158.811 3.02676V2.3433L158.301 1.54267L157.556 1.19118L156.163 1.30834L155.457 1.50362H154.025L153.358 1.65984L152.651 1.95275L152.396 2.75338L152.848 7.811V8.49446L152.985 9.19745V10.5058L153.103 11.2869L153.22 11.9508L154.456 25.21L154.437 25.1709ZM178.251 23.9407L178.525 24.7218L179.271 25.0147H179.996H180.624H181.742H182.743H183.449L184.175 24.6437L184.469 23.9017L184.626 19.7814V19.0588V18.4535L184.744 17.8091V15.8563L184.959 14.8214L185.332 13.9036L189.981 6.56124L190.413 6.07305L192.767 2.3433L193.159 1.46456L192.982 0.585825L192.355 0.429605L191.021 0.371022H190.275L189.51 0.31244H188.118H187.51L186.529 0.644407L185.881 1.23023L184.94 2.75338L184.489 3.80786L183.684 4.94046L183.331 5.66297L182.959 6.26833L182.331 7.61572L181.86 8.20155H181.468L181.075 7.51809L180.703 6.95179L179.663 4.99904L179.251 4.31558L177.643 1.17165L176.917 0.46866L176.093 0.136692L175.328 0.175747L174.739 0L172.915 0.117165L171.287 0L170.561 0.351495L170.443 1.13259L170.796 1.95275L172.287 4.49132L172.66 4.99904L174.092 7.53761L174.936 8.68974L175.21 9.33414L177.878 13.6692L178.231 14.6652L178.388 15.622V18.434V19.1369L178.27 21.8708V22.5347V23.9017L178.251 23.9407ZM215.188 26.4598L216.11 27.1042L217.091 27.2994L217.895 27.1237L218.307 26.4402L219.543 13.5326V12.9272L219.857 9.43178L220.033 8.5921L220.367 3.67117L220.073 2.92912L219.406 2.47999L214.992 2.1285L214.286 2.44094L213.835 3.16345V3.9055V4.4718L213.599 5.95589V6.73699L212.971 13.0639L212.599 13.6692L212.089 13.3763L209.794 10.6425L208.852 9.76375L202.477 2.10897L201.986 1.64031L201.202 1.13259L200.162 0.7811L199.319 1.05448L198.926 1.69889L197.985 12.4195V13.0053V14.4699L197.828 15.0557L197.376 20.914L197.239 21.5974L197.043 24.5656L197.318 25.2686L198.043 25.581L199.475 25.7763H200.28L201.653 26.0106H202.398L203.144 25.7372L203.595 24.6632L204.281 15.622L204.399 14.919L204.713 14.3332L205.164 14.5675L205.556 15.1924L207.871 17.8286L208.283 18.3949L208.852 18.844L213.874 24.7023L214.698 25.8154L215.188 26.3231V26.4598ZM241.317 31.8689L243.024 32.2399L243.651 32.4352L244.455 32.5719H245.26L245.75 31.9275L245.946 31.244L246.182 30.502L246.437 29.2131L246.672 28.5883L246.849 27.7876L247.319 27.2409L248.222 27.0846L249.006 27.2018L249.693 27.5338L253.322 28.1782L256.931 27.7486L257.559 27.4557L258.187 27.0456L258.756 26.7136L259.344 26.3231L260.345 25.4053L261.286 24.2141L261.639 23.433L261.992 22.9448L262.797 20.1329V19.5275L262.895 18.7464V17.3599L262.542 16.0125L262.012 14.6652L260.815 12.9272L259.678 11.8337L258.403 11.0526L257.893 10.662L257.206 10.4863L256.578 10.0567L255.598 9.76375L254.499 9.50989H253.714L251.615 8.92407L250.949 8.63115L248.771 8.22108L248.026 7.811L247.437 7.53761H246.672L245.946 7.811L245.495 8.27966L244.436 12.439L243.926 13.7864V14.4503L241.533 23.3354L241.435 23.9993L239.728 30.3457L239.924 31.1073L240.905 31.7322L241.513 31.9275L241.317 31.8689ZM249.595 21.4802L249.026 20.8749L248.869 20.211L249.497 17.4185L249.752 16.7155L250.125 15.29L250.635 14.7433L251.459 14.587L255.009 15.622L255.617 16.1102L256.068 16.6374L256.402 17.2037L256.578 17.9848V18.6292L256.382 19.6056L256.068 20.5039L255.676 21.0702L255.205 21.5388L254.617 21.9684L253.95 22.2418H253.361L252.263 22.1051L250.497 21.5974L249.654 21.4607L249.595 21.4802ZM271.683 41.203L273.036 41.6131L273.762 41.4959L274.331 40.9882L275.528 37.6881L275.351 36.907L274.743 36.2626L274.056 36.0087L273.331 35.4619L273.213 34.5441L273.546 33.9388L274.841 30.2676L275.175 29.5451L275.9 27.1042L277.254 23.765L277.784 23.0815H278.627L279.333 23.2377H280.137L280.667 22.8276L281.883 19.5275L281.707 18.7464L281.236 18.1606L277.175 16.7155L276.607 16.4226L275.881 16.325L273.134 15.3291L272.526 14.9971L271.761 14.7237H270.977L270.349 15.4072L269.486 17.9458L269.192 18.5707L269.329 19.3713L269.937 19.9962L270.604 20.2305L271.094 20.8554V21.8708L267.524 32.1618L266.779 33.0405L264.327 32.9038L263.738 33.3725L262.522 36.4188V37.4342L263.091 37.981L263.719 38.2153L264.386 38.3715L265.308 38.8597L266.367 39.1917L267.053 39.3674L268.348 39.9728L269.407 40.2071L271.055 40.7929L271.663 41.203H271.683ZM278.333 42.3747L278.137 43.0972L278.647 43.7025L285.728 47.0613L286.513 47.2565L287.101 47.5885L287.611 47.94L288.317 48.1939L288.984 48.5063L289.691 48.7211L290.24 49.1312L290.966 49.4046L294.222 50.9277L294.85 51.1425H295.634L296.223 50.752L296.497 50.088L296.87 49.4436L297.517 48.0962L297.733 47.4909V46.7488L297.204 46.124L296.478 45.7334L295.791 45.46L295.203 45.1085L291.907 43.5073L291.299 43.2925L290.632 42.941L289.965 42.6871L289.573 42.1013L289.769 41.5155L290.377 41.2225L290.985 40.7929L291.554 40.2462L292.123 39.8752L292.751 39.387L293.575 38.8792L296.203 36.9265L296.851 36.575L298.675 35.1886L299.165 34.9152L300.342 33.9388L300.99 33.5678L305.717 30.0919L305.815 29.2717L305.285 28.7445L304.697 28.393L302.735 27.5728L301.931 27.0846L297.145 24.878L296.556 24.468L295.83 24.2532L293.3 23.062L292.653 22.691L292.045 22.4762L290.691 21.8317L290.122 21.4802H289.436L288.71 21.9684L288.455 22.6714L287.239 25.3857V26.1668L288.082 26.8698L289.102 27.3385L289.691 27.729L290.358 27.9243L294.281 29.8771L294.575 30.3653L294.222 30.9316L286.787 36.3993L286.12 36.7898L284.983 37.6685L284.355 38.0005L283.198 38.9574L282.021 39.6994L280.373 41.0077L279.686 41.3788L279.059 41.867L278.431 42.5309L278.333 42.3747ZM299.656 52.3923L299.361 53.0953L299.793 53.7397L306.384 57.9967L307.129 58.2896L307.679 58.6801L308.13 59.1097L308.797 59.4417L309.425 59.8518L310.091 60.1447L310.582 60.6329L311.268 60.9844L314.309 62.9371L314.878 63.23H315.682L316.31 62.9176L316.663 62.2927L317.134 61.7069L317.938 60.4571L318.213 59.8713L318.35 59.1488L317.899 58.4458L317.232 57.9771L316.584 57.6061L316.055 57.196L312.975 55.2433L312.406 54.9504L311.798 54.5208L311.17 54.1693L310.857 53.5444L311.112 52.9976L311.778 52.7828L312.426 52.4313L313.054 51.9627L313.662 51.6698L314.348 51.2597L315.251 50.8691L318.095 49.2679L318.781 48.9945L320.743 47.8619L321.253 47.6471L322.548 46.8269L323.234 46.5536L328.335 43.7025L328.55 42.9214L328.08 42.3161L327.55 41.906L325.745 40.832L325.019 40.2462L320.547 37.4342L320.017 36.9656L319.331 36.6531L316.977 35.1495L316.388 34.7004L315.8 34.4075L314.544 33.6068L314.015 33.1772H313.348L312.544 33.5482L312.21 34.2122L310.68 36.6531V37.4342L311.425 38.2544L312.289 38.8011L312.838 39.2698L313.465 39.5432L317.055 41.867L317.271 42.3942L316.839 42.9214L308.718 47.3737L308.012 47.6861L306.776 48.4282L306.109 48.6625L304.834 49.4632L303.579 50.049L301.774 51.123L301.048 51.4159L300.362 51.826L299.656 52.3923ZM334.219 78.7544L335.298 79.5746L335.75 80.0627L336.613 80.7657L337.476 81.293L338.123 80.7267L338.476 79.9651L338.967 78.6177L339.477 76.665L339.967 75.3566L340.281 73.9311L341.438 70.6114V69.9866L341.634 69.2445L341.988 68.522L342.105 67.8971L342.321 67.3308L342.635 65.8662L342.949 65.1437L344.479 59.8908L344.793 59.2269L344.93 58.4849L345.185 57.86L345.518 56.4931V55.6143L344.891 54.5598L343.773 54.1107H342.89L342.243 54.345L341.576 54.7161L341.007 54.8723L337.77 56.3759L337.123 56.5126L336.515 56.9227L335.769 57.1765L335.181 57.5085L327.334 60.7891L326.648 61.2187L326.039 61.3945L325.373 61.746L324.137 62.1756L322.783 62.8785L322.155 62.9957L321.606 63.3667L320.115 63.9526L319.488 64.3431L319.036 65.1242L319.429 65.7491L320.508 66.6083L320.998 67.1355L322.528 68.4048L323.313 68.7563H324.411L325.667 68.3072H326.628L327.452 68.5025L327.883 69.0297L329.1 69.928L329.512 70.4162L332.14 72.7009L332.572 73.1891L333.219 73.6187L333.553 74.4388L333.69 75.298L333.474 76.0206L333.199 76.6454L333.376 77.5046L333.768 78.3248L334.278 78.8716L334.219 78.7544ZM334.063 66.784L333.611 66.2178L332.964 65.7296L332.689 65.1633L333.121 64.636L336.927 62.8785H337.437L337.633 63.4253L336.279 67.448L335.73 67.819L335.141 67.6823L334.063 66.7645V66.784Z" fill="#FBFBFB"/>
</g>
<defs>
<clipPath id="clip0_121_5441">
<rect width="366" height="305" fill="white" transform="translate(0.743164)"/>
</clipPath>
</defs>
</svg>
