<svg width="11" height="11" viewBox="0 0 11 11" fill="none" xmlns="http://www.w3.org/2000/svg">
<path d="M4.81995 1.05518C4.81995 0.502892 5.27319 0.0551758 5.82548 0.0551758V0.0551758C6.37776 0.0551758 6.831 0.502891 6.831 1.05518V9.11042C6.831 9.66271 6.37776 10.1104 5.82548 10.1104V10.1104C5.27319 10.1104 4.81995 9.66271 4.81995 9.11042V1.05518Z" fill="#555555"/>
<path d="M1.79785 6.08832C1.24557 6.08833 0.797852 5.63508 0.797852 5.0828V5.0828C0.797852 4.53052 1.24557 4.07728 1.79785 4.07728L9.8531 4.07727C10.4054 4.07727 10.8531 4.53051 10.8531 5.0828V5.0828C10.8531 5.63508 10.4054 6.08832 9.8531 6.08832L1.79785 6.08832Z" fill="#555555"/>
</svg>
