<svg width="67" height="84" fill="none" xmlns="http://www.w3.org/2000/svg"><path d="M8.40683 57.523c-1.91499-.7535-3.90712.8508-3.61425 2.8864.91354 5.8899 2.46732 11.7555 6.02442 13.8709 1.8991 1.1487 4.1273 2.0322 4.6522 4.0097.2045 1.0033.0088 2.0218.1532 2.9041.2747 1.5554 1.4366 2.9355 3.0334 3.5901.6264.2599 1.2367.4217 1.6129.7527.8126.783-.437 3.1113-.0534 4.2866 1.2577 3.2568 5.2008 2.38 6.7289 3.6599 1.3359 1.0899.9357 1.105 2.3059 2.7731.9828 1.2081 2.8566 1.5255 4.4229.8867 1.5664-.6388 2.8413-2.1359 2.8507-3.6774.0383-1.9188-.148-2.4419-.1097-4.3606.0782-2.1668 1.2735-2.6745 2.1135-3.4461 1.559-1.4831 1.3588-4.4901-.2612-5.594-.8996-.6378-2.031-.7245-3.1175-1.0902-1.5969-.6546-1.249-1.235-1.7557-2.7323-.5176-1.1333-.4612-2.5718-1.2338-3.6029-.7387-.9461-2.0384-1.5688-3.5808-1.2761-.8183.0433-3.3133-.0718-3.9867-.4347-.3131-.1299-.5864-.508-.8126-.783-1.151-1.7442 1.7558-5.0785-.4492-5.5129-1.3576-.3616-6.2862.2135-7.7439-.0211-4.0944.1366-4.6989-3.1264-5.60808-5.4839-.26737-.7111-.83078-1.2631-1.53215-1.551.00499-.031-.02603-.036-.03904-.054zM52.2618 2.38562C50.965.043033 47.6372.002042 46.2445 2.28691c-3.9633 6.66573-7.2643 13.83759-5.4484 18.90699.9536 2.7258 2.457 5.4582 1.3452 7.8771-.6262 1.1759-1.6663 2.0355-2.2524 3.0403-1.0132 1.788-.9909 4.1352.0687 6.115.4131.7796.8913 1.4476.9945 2.0914.1665 1.4588-3.0162 2.7593-3.6051 4.2562-1.4365 4.3092 3.2458 6.6965 3.7184 9.2466.4372 2.2002.0232 1.8839.0157 4.6926-.0149 2.0262 1.602 3.8971 3.7027 4.554 2.1006.6568 4.62.2112 5.9066-1.3275 1.6281-1.8932 1.8747-2.5723 3.5028-4.4655 1.8737-2.109 3.4934-1.628 4.9754-1.7062 2.7929-.1962 5.0834-3.3788 4.3727-5.8284-.374-1.3853-1.4374-2.4096-2.2244-3.6767-1.0596-1.9797-.2297-2.2737.5025-4.1958.4196-1.5657 1.6681-2.9621 1.7472-4.6367.0428-1.5611-.7451-3.2627-2.5351-4.247-.8568-.6345-3.2645-2.8171-3.6394-3.739-.2065-.3898-.1674-.9955-.1665-1.4588.2903-2.7035 5.9691-3.6402 4.1168-5.9028-1.0624-1.4876-6.4833-4.9941-7.7513-6.4371-4.2209-3.2553-2.1239-7.0296-1.0828-10.14804.321-.93498.2131-1.95555-.2521-2.82542.0308-.02698.0038-.05768.0056-.08652z" fill="#009C00"/></svg>