<svg width="83" height="81" fill="none" xmlns="http://www.w3.org/2000/svg"><path d="M159.226-79.5595l.075.0747.084.0635c5.34 4.02 10.818 7.946 16.254 11.8285.373.2666.746.5331 1.119.7994 5.06 3.6138 10.071 7.1925 14.909 10.7924 10.395 7.7361 19.914 15.5167 27.268 23.824 7.349 8.3013 12.473 17.0577 14.182 26.73882 1.706 9.65739.043 20.39878-6.473 32.74118-12.945 24.517-45.034 39.5062-81.357 46.5568-36.229 7.0325-76.1343 6.0561-104.0209-.8859-18.411-4.5833-29.1884-15.2224-34.70955-29.3923C.998683 29.3175.734742 11.3749 3.67928-7.73644 9.56626-45.9454 28.1678-88.1615 41.4222-113.265c6.5032-12.317 14.4473-18.771 23.2032-21.121 8.8072-2.364 18.7396-.659 29.3502 3.977 21.2584 9.288 44.4964 30.007 65.2504 50.8495z" stroke="#ECECEC" stroke-width="3"/></svg>