<svg width="83" height="13" viewBox="0 0 83 13" fill="none" xmlns="http://www.w3.org/2000/svg">
<path fill-rule="evenodd" clip-rule="evenodd" d="M56.6252 0C53.432 0 50.8359 2.75522 50.8359 6.14428C50.8359 9.53333 53.432 12.2886 56.6252 12.2886C59.8185 12.2886 62.4145 9.53333 62.4145 6.14428C62.4267 2.75522 59.8307 0 56.6252 0ZM56.6252 10.3612C54.4192 10.3612 52.6276 8.4597 52.6276 6.14428C52.6276 3.81592 54.4192 1.92736 56.6252 1.92736C58.8191 1.92736 60.5985 3.82886 60.5985 6.14428C60.5985 8.48557 58.8312 10.3612 56.6252 10.3612Z" fill="white"/>
<path fill-rule="evenodd" clip-rule="evenodd" d="M76.8082 2.23767V5.18692H81.659V7.11429H76.8082V10.0506H82.3781V11.978H75.0166V0.323242H82.3781V2.23767H76.8082Z" fill="white"/>
<path fill-rule="evenodd" clip-rule="evenodd" d="M72.7259 0.310547V11.9911H71.0318L66.0225 4.03592V11.9911H64.1943V0.310547H65.8275L66.0347 0.608059L70.9099 8.21403V0.310547H72.7259Z" fill="white"/>
<path fill-rule="evenodd" clip-rule="evenodd" d="M49.9579 0.310547V2.25085H46.4721V11.9911H44.6439V2.25085H41.1582V0.310547H49.9579Z" fill="white"/>
<path fill-rule="evenodd" clip-rule="evenodd" d="M40.2815 8.79612C40.2449 9.84388 39.7818 10.7623 38.9896 11.422C38.2339 12.017 37.2711 12.3016 36.2473 12.3016C36.1863 12.3016 36.101 12.3016 36.0035 12.2887C34.8944 12.2498 33.895 11.8618 33.1393 11.1245C32.5178 10.5294 32.1156 9.68865 32.0059 8.75731V8.7185V7.98119H33.7731L33.8219 8.60209C33.895 9.05482 34.1022 9.46875 34.4191 9.7792C34.8091 10.1543 35.3575 10.3613 36.1132 10.4001C36.8689 10.426 37.4661 10.2449 37.8683 9.94736C38.2583 9.64985 38.4533 9.23592 38.4655 8.77025V8.75731C38.4899 8.26577 38.307 7.89064 37.8195 7.54139C37.3686 7.21801 36.7348 7.01104 36.1376 6.81701C36.101 6.80408 36.0645 6.79114 36.0279 6.7782L35.6988 6.67472L35.4672 6.59711C34.9188 6.41602 34.1631 6.17024 33.5415 5.70457C32.7371 5.12248 32.2984 4.30756 32.3349 3.28567C32.3593 2.28965 32.8103 1.41004 33.6025 0.827955C34.3459 0.271736 35.3576 -0.0128412 36.4057 0.0259647C38.0877 0.103577 39.4771 0.996114 40.0621 2.52248V2.53542L40.2449 3.13044L38.5264 3.63492L38.3558 3.20805C38.0633 2.45781 37.332 1.95333 36.3448 1.91452C35.5891 1.90159 35.0407 2.06975 34.6872 2.32845C34.3338 2.60009 34.1631 2.93641 34.1509 3.36328C34.1509 3.53144 34.1875 3.67373 34.2606 3.79014C34.3338 3.9195 34.48 4.06179 34.7116 4.21701C35.1747 4.51452 35.8329 4.73442 36.4788 4.94139L36.6495 4.99313H36.6617C36.686 5.00606 36.7104 5.00606 36.7348 5.019C37.3686 5.22597 38.2217 5.51054 38.9286 6.01502C39.8305 6.64885 40.3302 7.619 40.2815 8.79612Z" fill="white"/>
<path fill-rule="evenodd" clip-rule="evenodd" d="M25.0339 0.310547H21.4141V11.9911H25.0339C28.0809 11.9911 30.5794 9.36527 30.5794 6.15731C30.5672 2.93642 28.0809 0.310547 25.0339 0.310547ZM25.0339 10.0638H23.2301V2.23791H25.0339C27.1058 2.23791 28.7634 3.99711 28.7634 6.15731C28.7634 8.33045 27.0936 10.0638 25.0339 10.0638Z" fill="white"/>
<path fill-rule="evenodd" clip-rule="evenodd" d="M13.7237 2.23767V5.18692H18.5624V7.11429H13.7237V10.0506H19.2814V11.978H11.9199V0.323242H19.2814V2.23767H13.7237Z" fill="white"/>
<path fill-rule="evenodd" clip-rule="evenodd" d="M10.0312 11.9782H7.88615L5.54607 7.90359H2.65752L1.58498 6.0021H6.04577C7.02081 6.0021 7.8374 5.1613 7.8374 4.1006C7.82521 3.05284 7.02081 2.21205 6.04577 2.21205H1.10965L0.0371094 0.336426H6.03358C7.99585 0.336426 9.58028 2.01802 9.58028 4.1006C9.58028 5.6011 8.7515 6.94638 7.50833 7.55434L10.0312 11.9782Z" fill="white"/>
<path d="M0.365234 9.6499H2.55907V11.3444V11.9783H0.365234V9.6499Z" fill="#E70000"/>
</svg>
