<svg width="30" height="30" viewBox="0 0 30 30" fill="none" xmlns="http://www.w3.org/2000/svg">
<path d="M2.94473 21.3564H27.0551C27.3863 21.3564 27.6551 21.0876 27.6551 20.7564C27.6551 14.5125 22.3001 9.4002 15.5999 9.1107V8.8089C16.6541 8.5407 17.4368 7.5861 17.4368 6.4497C17.4368 5.106 16.3436 4.0128 15.0002 4.0128C13.6565 4.0128 12.563 5.106 12.563 6.4497C12.563 7.5861 13.346 8.5404 14.3999 8.8086V9.1107C7.69973 9.3999 2.34473 14.5125 2.34473 20.7564C2.34473 21.0876 2.61353 21.3564 2.94473 21.3564ZM13.7633 6.4494C13.7633 5.7675 14.3183 5.2125 15.0005 5.2125C15.6821 5.2125 16.2371 5.7675 16.2371 6.4494C16.2371 7.1313 15.6821 7.6863 15.0005 7.6863C14.3183 7.6863 13.7633 7.1313 13.7633 6.4494ZM15.0002 10.2963C21.0959 10.2963 26.0933 14.6667 26.435 20.1561H3.56513C3.90683 14.667 8.90423 10.2963 15.0002 10.2963Z" fill="#FBFBFB"/>
<path d="M29.3229 24.9636L27.5292 22.6467C27.4158 22.5 27.2406 22.4142 27.0549 22.4142H2.94453C2.75883 22.4142 2.58363 22.5 2.46993 22.6467L0.633331 25.02C0.493231 25.2012 0.468331 25.4463 0.569131 25.6515C0.669931 25.857 0.878731 25.9872 1.10763 25.9872H28.8921H28.8981C29.2296 25.9872 29.4981 25.7184 29.4981 25.3872C29.4981 25.2219 29.4312 25.0722 29.3229 24.9636ZM2.33103 24.7875L3.23913 23.6142H26.7609L27.6693 24.7875H2.33103Z" fill="#FBFBFB"/>
</svg>
