<svg width="28" height="29" viewBox="0 0 28 29" fill="none" xmlns="http://www.w3.org/2000/svg">
<path d="M6.875 3.04172L3.4375 7.62505V23.6667C3.4375 24.2745 3.67894 24.8574 4.10871 25.2872C4.53848 25.7169 5.12138 25.9584 5.72917 25.9584H21.7708C22.3786 25.9584 22.9615 25.7169 23.3913 25.2872C23.8211 24.8574 24.0625 24.2745 24.0625 23.6667V7.62505L20.625 3.04172H6.875Z" stroke="#FBFBFB" stroke-width="2" stroke-linecap="round" stroke-linejoin="round"/>
<path d="M3.4375 7.625H24.0625" stroke="#FBFBFB" stroke-width="2" stroke-linecap="round" stroke-linejoin="round"/>
<path d="M18.3337 12.2083C18.3337 13.4239 17.8508 14.5896 16.9912 15.4492C16.1317 16.3087 14.9659 16.7916 13.7503 16.7916C12.5348 16.7916 11.369 16.3087 10.5094 15.4492C9.64988 14.5896 9.16699 13.4239 9.16699 12.2083" stroke="#FBFBFB" stroke-width="2" stroke-linecap="round" stroke-linejoin="round"/>
</svg>
