<svg width="16" height="20" fill="none" xmlns="http://www.w3.org/2000/svg"><path d="M15.4987 15.9161c-.0588-.0381-.5012-.3481-.9443-1.2858-.8136-1.7219-.9844-4.1476-.9844-5.87932 0-.00754-.0002-.015-.0004-.0225-.0089-2.28864-1.3793-4.26153-3.3404-5.14672V2.22797C10.2292.999453 9.23136 0 8.00488 0h-.18434c-1.22648 0-2.2243.999453-2.2243 2.22797v1.35371c-1.96765.88805-3.34082 2.87101-3.34082 5.1693 0 1.73172-.17078 4.15732-.98441 5.87932-.443008.9377-.885469 1.2476-.944297 1.2858-.247734.1147-.369883.3795-.31289.6479.057538.2711.310898.458.587578.458H4.89621C4.92019 18.6681 6.26371 20 7.91273 20s2.99257-1.3319 3.01657-2.978h4.2948c.2766 0 .53-.1869.5875-.458.057-.2684-.0652-.5333-.3129-.6479zM6.76816 2.22797c0-.58129.47211-1.05418 1.05242-1.05418h.18434c.58031 0 1.05242.47289 1.05242 1.05418v.97332c-.36984-.07645-.7527-.11668-1.14477-.11668-.39195 0-.77468.04019-1.14437.11656v-.9732h-.00004zM7.91273 18.8262c-1.00285 0-1.82086-.8053-1.84465-1.8042h3.68926c-.02375.9988-.84176 1.8042-1.84461 1.8042zm2.35937-2.9781H1.93675c.10137-.1579.20453-.3368.30707-.539.78532-1.5485 1.18352-3.755 1.18352-6.55812 0-2.47723 2.01207-4.49258 4.48519-4.49258 2.47317 0 4.48517 2.01535 4.48517 4.49453 0 .00723.0001.01441.0004.0216.0022 2.79187.4004 4.99047 1.1835 6.53457.1026.2022.2058.3811.3071.539h-3.6166z" fill="#ffffff"/></svg>